{
date = "2014-09-12 11:47:48 +0000";
designer = "Icomoon extended";
designerURL = www.nexusthemes.com;
familyName = "Nexus";
featurePrefixes = (
{
automatic = 1;
code = "languagesystem DFLT dflt;\012";
name = Languagesystems;
}
);
fontMaster = (
{
ascender = 1536;
capHeight = 1536;
descender = "-512";
id = "C6537DE0-68DF-4C5B-B6D5-25B465FDDD7D";
xHeight = 1024;
}
);
glyphs = (
{
glyphname = aries;
lastChange = "2014-09-19 13:45:34 +0000";
layers = (
{
layerId = "C6537DE0-68DF-4C5B-B6D5-25B465FDDD7D";
name = Regular;
paths = (
{
closed = 1;
nodes = (
"1596 1536 OFFCURVE",
"1558 1532 OFFCURVE",
"1520 1524 CURVE SMOOTH",
"1482 1516 OFFCURVE",
"1446 1506 OFFCURVE",
"1412 1490 CURVE",
"1378 1476 OFFCURVE",
"1344 1456 OFFCURVE",
"1312 1434 CURVE SMOOTH",
"1280 1412 OFFCURVE",
"1252 1386 OFFCURVE",
"1222 1356 CURVE SMOOTH",
"1196 1330 OFFCURVE",
"1174 1304 OFFCURVE",
"1154 1274 CURVE SMOOTH",
"1134 1242 OFFCURVE",
"1114 1212 OFFCURVE",
"1100 1180 CURVE SMOOTH",
"1084 1146 OFFCURVE",
"1068 1112 OFFCURVE",
"1058 1074 CURVE SMOOTH",
"1048 1036 OFFCURVE",
"1038 1000 OFFCURVE",
"1030 958 CURVE",
"1022 998 OFFCURVE",
"1016 1036 OFFCURVE",
"1004 1072 CURVE SMOOTH",
"992 1108 OFFCURVE",
"978 1144 OFFCURVE",
"964 1176 CURVE SMOOTH",
"948 1210 OFFCURVE",
"932 1242 OFFCURVE",
"912 1272 CURVE SMOOTH",
"892 1302 OFFCURVE",
"870 1330 OFFCURVE",
"848 1356 CURVE",
"818 1386 OFFCURVE",
"790 1412 OFFCURVE",
"760 1434 CURVE SMOOTH",
"730 1456 OFFCURVE",
"698 1476 OFFCURVE",
"664 1490 CURVE",
"632 1506 OFFCURVE",
"596 1516 OFFCURVE",
"562 1524 CURVE SMOOTH",
"528 1532 OFFCURVE",
"490 1536 OFFCURVE",
"452 1536 CURVE SMOOTH",
"390 1536 OFFCURVE",
"332 1526 OFFCURVE",
"280 1504 CURVE SMOOTH",
"228 1482 OFFCURVE",
"180 1450 OFFCURVE",
"138 1408 CURVE SMOOTH",
"92 1362 OFFCURVE",
"58 1310 OFFCURVE",
"36 1252 CURVE SMOOTH",
"12 1194 OFFCURVE",
"0 1128 OFFCURVE",
"0 1058 CURVE SMOOTH",
"0 1020 OFFCURVE",
"2 988 OFFCURVE",
"6 956 CURVE SMOOTH",
"10 924 OFFCURVE",
"16 892 OFFCURVE",
"24 860 CURVE SMOOTH",
"32 830 OFFCURVE",
"42 800 OFFCURVE",
"52 774 CURVE SMOOTH",
"62 748 OFFCURVE",
"76 720 OFFCURVE",
"90 698 CURVE",
"104 674 OFFCURVE",
"120 650 OFFCURVE",
"136 632 CURVE SMOOTH",
"152 614 OFFCURVE",
"172 594 OFFCURVE",
"190 580 CURVE SMOOTH",
"212 564 OFFCURVE",
"230 550 OFFCURVE",
"252 542 CURVE",
"274 532 OFFCURVE",
"294 526 OFFCURVE",
"316 520 CURVE",
"320 520 LINE",
"320 522 LINE",
"322 522 LINE",
"322 524 LINE",
"430 734 LINE",
"430 734 OFFCURVE",
"432 736 OFFCURVE",
"432 738 CURVE",
"428 742 LINE",
"406 742 OFFCURVE",
"388 744 OFFCURVE",
"372 750 CURVE",
"354 756 OFFCURVE",
"334 762 OFFCURVE",
"318 770 CURVE SMOOTH",
"302 778 OFFCURVE",
"284 790 OFFCURVE",
"268 802 CURVE",
"250 814 OFFCURVE",
"232 826 OFFCURVE",
"214 842 CURVE SMOOTH",
"196 858 OFFCURVE",
"180 874 OFFCURVE",
"166 892 CURVE",
"152 908 OFFCURVE",
"140 926 OFFCURVE",
"132 944 CURVE",
"122 960 OFFCURVE",
"116 980 OFFCURVE",
"112 998 CURVE SMOOTH",
"108 1016 OFFCURVE",
"104 1036 OFFCURVE",
"104 1058 CURVE SMOOTH",
"104 1080 OFFCURVE",
"108 1102 OFFCURVE",
"112 1124 CURVE SMOOTH",
"116 1146 OFFCURVE",
"122 1166 OFFCURVE",
"130 1184 CURVE SMOOTH",
"138 1202 OFFCURVE",
"150 1222 OFFCURVE",
"162 1238 CURVE SMOOTH",
"174 1254 OFFCURVE",
"188 1270 OFFCURVE",
"202 1284 CURVE",
"218 1298 OFFCURVE",
"236 1312 OFFCURVE",
"254 1322 CURVE SMOOTH",
"272 1332 OFFCURVE",
"290 1342 OFFCURVE",
"312 1350 CURVE SMOOTH",
"334 1358 OFFCURVE",
"356 1364 OFFCURVE",
"380 1368 CURVE SMOOTH",
"402 1372 OFFCURVE",
"428 1372 OFFCURVE",
"452 1372 CURVE SMOOTH",
"510 1372 OFFCURVE",
"566 1354 OFFCURVE",
"616 1322 CURVE SMOOTH",
"666 1288 OFFCURVE",
"712 1234 OFFCURVE",
"754 1168 CURVE SMOOTH",
"776 1134 OFFCURVE",
"794 1100 OFFCURVE",
"810 1068 CURVE",
"824 1034 OFFCURVE",
"838 998 OFFCURVE",
"846 964 CURVE",
"856 930 OFFCURVE",
"866 894 OFFCURVE",
"870 856 CURVE SMOOTH",
"874 818 OFFCURVE",
"876 780 OFFCURVE",
"876 742 CURVE SMOOTH",
"876 -506 LINE SMOOTH",
"876 -508 OFFCURVE",
"876 -508 OFFCURVE",
"878 -508 CURVE",
"878 -510 LINE SMOOTH",
"878 -512 OFFCURVE",
"878 -512 OFFCURVE",
"880 -512 CURVE SMOOTH",
"1184 -512 LINE SMOOTH",
"1184 -512 OFFCURVE",
"1186 -510 OFFCURVE",
"1186 -508 CURVE SMOOTH",
"1186 742 LINE SMOOTH",
"1186 780 OFFCURVE",
"1188 818 OFFCURVE",
"1194 854 CURVE SMOOTH",
"1200 890 OFFCURVE",
"1208 924 OFFCURVE",
"1218 962 CURVE SMOOTH",
"1228 996 OFFCURVE",
"1242 1032 OFFCURVE",
"1258 1066 CURVE SMOOTH",
"1274 1098 OFFCURVE",
"1290 1132 OFFCURVE",
"1312 1164 CURVE SMOOTH",
"1334 1198 OFFCURVE",
"1356 1228 OFFCURVE",
"1382 1254 CURVE SMOOTH",
"1406 1278 OFFCURVE",
"1432 1300 OFFCURVE",
"1458 1318 CURVE SMOOTH",
"1484 1336 OFFCURVE",
"1512 1350 OFFCURVE",
"1542 1360 CURVE",
"1572 1368 OFFCURVE",
"1600 1372 OFFCURVE",
"1632 1372 CURVE SMOOTH",
"1662 1372 LINE",
"1682 1370 OFFCURVE",
"1702 1366 OFFCURVE",
"1720 1360 CURVE",
"1776 1336 LINE",
"1792 1326 OFFCURVE",
"1810 1314 OFFCURVE",
"1826 1302 CURVE",
"1840 1290 OFFCURVE",
"1854 1274 OFFCURVE",
"1868 1260 CURVE",
"1888 1236 LINE",
"1900 1218 OFFCURVE",
"1910 1202 OFFCURVE",
"1918 1180 CURVE",
"1926 1162 OFFCURVE",
"1934 1142 OFFCURVE",
"1938 1122 CURVE SMOOTH",
"1942 1102 OFFCURVE",
"1944 1080 OFFCURVE",
"1944 1058 CURVE SMOOTH",
"1944 1036 OFFCURVE",
"1942 1018 OFFCURVE",
"1938 1002 CURVE SMOOTH",
"1934 984 OFFCURVE",
"1926 966 OFFCURVE",
"1916 950 CURVE",
"1908 932 OFFCURVE",
"1898 916 OFFCURVE",
"1884 900 CURVE SMOOTH",
"1870 884 OFFCURVE",
"1854 870 OFFCURVE",
"1836 854 CURVE SMOOTH",
"1820 840 OFFCURVE",
"1800 826 OFFCURVE",
"1784 816 CURVE",
"1766 806 OFFCURVE",
"1744 794 OFFCURVE",
"1726 786 CURVE SMOOTH",
"1708 778 OFFCURVE",
"1686 772 OFFCURVE",
"1668 766 CURVE SMOOTH",
"1650 760 OFFCURVE",
"1628 758 OFFCURVE",
"1610 758 CURVE SMOOTH",
"1608 758 LINE",
"1608 756 LINE",
"1606 756 LINE",
"1606 754 LINE",
"1604 754 LINE",
"1604 750 LINE",
"1606 748 LINE",
"1750 524 LINE",
"1750 522 OFFCURVE",
"1750 522 OFFCURVE",
"1752 522 CURVE",
"1752 520 OFFCURVE",
"1752 520 OFFCURVE",
"1754 520 CURVE",
"1756 522 LINE",
"1766 524 OFFCURVE",
"1778 528 OFFCURVE",
"1788 534 CURVE",
"1810 542 OFFCURVE",
"1830 554 OFFCURVE",
"1850 568 CURVE SMOOTH",
"1870 582 OFFCURVE",
"1886 600 OFFCURVE",
"1904 618 CURVE SMOOTH",
"1920 634 OFFCURVE",
"1934 654 OFFCURVE",
"1950 678 CURVE SMOOTH",
"1964 700 OFFCURVE",
"1976 722 OFFCURVE",
"1988 748 CURVE SMOOTH",
"1994 760 OFFCURVE",
"1998 772 OFFCURVE",
"2004 786 CURVE",
"2012 810 OFFCURVE",
"2020 838 OFFCURVE",
"2028 868 CURVE",
"2034 898 OFFCURVE",
"2040 926 OFFCURVE",
"2044 958 CURVE SMOOTH",
"2048 988 OFFCURVE",
"2048 1020 OFFCURVE",
"2048 1052 CURVE",
"2046 1052 LINE",
"2046 1122 OFFCURVE",
"2036 1184 OFFCURVE",
"2014 1242 CURVE SMOOTH",
"1992 1298 OFFCURVE",
"1962 1350 OFFCURVE",
"1922 1396 CURVE SMOOTH",
"1880 1444 OFFCURVE",
"1836 1478 OFFCURVE",
"1788 1502 CURVE SMOOTH",
"1740 1524 OFFCURVE",
"1688 1536 OFFCURVE",
"1634 1536 CURVE SMOOTH"
);
}
);
width = 2048;
}
);
unicode = 2648;
},
{
glyphname = taurus;
lastChange = "2014-09-19 13:45:34 +0000";
layers = (
{
layerId = "C6537DE0-68DF-4C5B-B6D5-25B465FDDD7D";
name = Regular;
paths = (
{
closed = 1;
nodes = (
"1094 -312 OFFCURVE",
"1152 -306 OFFCURVE",
"1204 -300 CURVE",
"1230 -298 OFFCURVE",
"1254 -292 OFFCURVE",
"1278 -286 CURVE SMOOTH",
"1326 -274 OFFCURVE",
"1372 -262 OFFCURVE",
"1414 -246 CURVE SMOOTH",
"1454 -232 OFFCURVE",
"1490 -208 OFFCURVE",
"1524 -188 CURVE SMOOTH",
"1540 -178 OFFCURVE",
"1556 -168 OFFCURVE",
"1570 -154 CURVE",
"1628 -106 OFFCURVE",
"1672 -48 OFFCURVE",
"1700 7.49219 CURVE SMOOTH",
"1728 63.4375 OFFCURVE",
"1742 123.379 OFFCURVE",
"1742 185.319 CURVE",
"1740 217.288 OFFCURVE",
"1734 245.261 OFFCURVE",
"1726 277.229 CURVE SMOOTH",
"1718 309.198 OFFCURVE",
"1706 333.175 OFFCURVE",
"1690 365.144 CURVE",
"1674 389.12 OFFCURVE",
"1654 421.089 OFFCURVE",
"1632 447.064 CURVE",
"1608 471.04 OFFCURVE",
"1580 499.013 OFFCURVE",
"1550 522.989 CURVE SMOOTH",
"1518 548.964 OFFCURVE",
"1484 570.942 OFFCURVE",
"1446 590.923 CURVE SMOOTH",
"1428 600.913 OFFCURVE",
"1408 608.905 OFFCURVE",
"1388 614.899 CURVE SMOOTH",
"1366 620.894 OFFCURVE",
"1344 628.886 OFFCURVE",
"1322 636.878 CURVE",
"1300 640.874 OFFCURVE",
"1278 644.87 OFFCURVE",
"1254 650.864 CURVE",
"1206 660.854 OFFCURVE",
"1154 666.849 OFFCURVE",
"1098 670.845 CURVE SMOOTH",
"1068 672.843 OFFCURVE",
"1040 672.843 OFFCURVE",
"1010 670.845 CURVE",
"890 672.843 OFFCURVE",
"784 654.86 OFFCURVE",
"696 630.884 CURVE SMOOTH",
"606 606.907 OFFCURVE",
"532 564.948 OFFCURVE",
"474 516.995 CURVE",
"442 487.024 OFFCURVE",
"418 465.046 OFFCURVE",
"396 437.073 CURVE",
"372 409.101 OFFCURVE",
"354 383.126 OFFCURVE",
"340 353.155 CURVE",
"324 327.181 OFFCURVE",
"314 297.21 OFFCURVE",
"308 267.239 CURVE",
"300 237.269 OFFCURVE",
"296 205.3 OFFCURVE",
"296 175.328 CURVE SMOOTH",
"296 141.361 OFFCURVE",
"300 113.389 OFFCURVE",
"308 83.418 CURVE SMOOTH",
"316 51.4492 OFFCURVE",
"328 25.4746 OFFCURVE",
"344 -4 CURVE",
"360 -30 OFFCURVE",
"380 -62 OFFCURVE",
"404 -86 CURVE",
"428 -112 OFFCURVE",
"456 -142 OFFCURVE",
"486 -164 CURVE",
"548 -214 OFFCURVE",
"620 -250 OFFCURVE",
"708 -274 CURVE SMOOTH",
"796 -300 OFFCURVE",
"896 -310 OFFCURVE",
"1014 -312 CURVE",
"1036 -310 LINE"
);
},
{
closed = 1;
nodes = (
"990 -510 LINE",
"926 -510 OFFCURVE",
"866 -504 OFFCURVE",
"806 -496 CURVE SMOOTH",
"746 -488 OFFCURVE",
"688 -476 OFFCURVE",
"634 -462 CURVE SMOOTH",
"578 -446 OFFCURVE",
"528 -430 OFFCURVE",
"480 -406 CURVE SMOOTH",
"430 -382 OFFCURVE",
"384 -362 OFFCURVE",
"344 -330 CURVE",
"330 -322 OFFCURVE",
"318 -312 OFFCURVE",
"306 -302 CURVE SMOOTH",
"270 -274 LINE SMOOTH",
"258 -264 OFFCURVE",
"246 -254 OFFCURVE",
"236 -244 CURVE",
"224 -234 OFFCURVE",
"212 -224 OFFCURVE",
"202 -214 CURVE",
"192 -202 OFFCURVE",
"184 -190 OFFCURVE",
"174 -180 CURVE SMOOTH",
"164 -170 OFFCURVE",
"154 -160 OFFCURVE",
"144 -148 CURVE SMOOTH",
"134 -136 OFFCURVE",
"126 -124 OFFCURVE",
"118 -114 CURVE SMOOTH",
"102 -94 OFFCURVE",
"88 -70 OFFCURVE",
"74 -46 CURVE SMOOTH",
"60 -22 OFFCURVE",
"48 -1 OFFCURVE",
"38 25.4746 CURVE SMOOTH",
"28 49.4512 OFFCURVE",
"20 73.4277 OFFCURVE",
"14 97.4043 CURVE SMOOTH",
"8 121.381 OFFCURVE",
"4 147.355 OFFCURVE",
"2 171.332 CURVE",
"0 183.321 OFFCURVE",
"0 197.308 OFFCURVE",
"0 211.294 CURVE SMOOTH",
"0 233.273 OFFCURVE",
"4 259.247 OFFCURVE",
"8 283.224 CURVE SMOOTH",
"12 307.2 OFFCURVE",
"16 335.173 OFFCURVE",
"24 359.149 CURVE SMOOTH",
"32 385.124 OFFCURVE",
"44 409.101 OFFCURVE",
"56 435.075 CURVE SMOOTH",
"74 473.038 LINE",
"96 511 LINE",
"120 540.972 OFFCURVE",
"152 576.937 OFFCURVE",
"188 604.909 CURVE SMOOTH",
"224 632.882 OFFCURVE",
"264 664.851 OFFCURVE",
"312 688.827 CURVE",
"360 718.798 OFFCURVE",
"414 740.776 OFFCURVE",
"472 764.753 CURVE SMOOTH",
"528 788.729 OFFCURVE",
"590 806.712 OFFCURVE",
"656 824.694 CURVE",
"606 826.692 OFFCURVE",
"556 840.679 OFFCURVE",
"512 850.669 CURVE SMOOTH",
"468 860.659 OFFCURVE",
"426 878.642 OFFCURVE",
"388 894.626 CURVE",
"350 916.604 OFFCURVE",
"316 936.585 OFFCURVE",
"286 962.56 CURVE SMOOTH",
"254 988.534 OFFCURVE",
"226 1016.51 OFFCURVE",
"202 1050.47 CURVE",
"178 1080.44 OFFCURVE",
"156 1116.41 OFFCURVE",
"140 1148.38 CURVE",
"130 1164.36 OFFCURVE",
"122 1182.35 OFFCURVE",
"116 1200.33 CURVE",
"100 1238.29 OFFCURVE",
"88 1274.26 OFFCURVE",
"80 1310.22 CURVE",
"70 1346.19 OFFCURVE",
"64 1388.14 OFFCURVE",
"62 1428.11 CURVE",
"60 1448.09 OFFCURVE",
"60 1470.06 OFFCURVE",
"60 1492.04 CURVE SMOOTH",
"60 1532 LINE SMOOTH",
"60 1534 OFFCURVE",
"60 1534 OFFCURVE",
"62 1534 CURVE",
"62 1532 OFFCURVE",
"62 1532 OFFCURVE",
"64 1534 CURVE",
"64 1536 OFFCURVE",
"64 1536 OFFCURVE",
"64 1534 CURVE",
"66 1536 LINE",
"66 1534 OFFCURVE",
"66 1534 OFFCURVE",
"68 1536 CURVE",
"70 1534 LINE",
"70 1532 OFFCURVE",
"70 1532 OFFCURVE",
"70 1534 CURVE",
"86 1508.03 OFFCURVE",
"102 1484.05 OFFCURVE",
"118 1462.07 CURVE SMOOTH",
"166 1398.13 LINE",
"180 1376.16 OFFCURVE",
"196 1358.17 OFFCURVE",
"212 1340.19 CURVE",
"226 1322.21 OFFCURVE",
"242 1306.22 OFFCURVE",
"256 1288.24 CURVE",
"286 1256.27 OFFCURVE",
"314 1228.3 OFFCURVE",
"340 1206.32 CURVE",
"366 1182.35 OFFCURVE",
"394 1160.37 OFFCURVE",
"418 1150.38 CURVE",
"458 1126.4 OFFCURVE",
"500 1112.41 OFFCURVE",
"546 1096.43 CURVE SMOOTH",
"568 1088.44 OFFCURVE",
"592 1082.44 OFFCURVE",
"616 1076.45 CURVE SMOOTH",
"662 1064.46 OFFCURVE",
"710 1052.47 OFFCURVE",
"760 1044.48 CURVE",
"810 1034.49 OFFCURVE",
"862 1032.49 OFFCURVE",
"914 1028.5 CURVE SMOOTH",
"940 1026.5 OFFCURVE",
"964 1024.5 OFFCURVE",
"990 1026.5 CURVE",
"1102 1024.5 OFFCURVE",
"1208 1034.49 OFFCURVE",
"1310 1048.48 CURVE SMOOTH",
"1412 1062.46 OFFCURVE",
"1508 1090.44 OFFCURVE",
"1602 1116.41 CURVE",
"1602 1118.41 LINE",
"1676 1158.37 OFFCURVE",
"1750 1218.31 OFFCURVE",
"1814 1284.25 CURVE SMOOTH",
"1878 1350.18 OFFCURVE",
"1940 1436.1 OFFCURVE",
"1990 1530.01 CURVE",
"1992 1532 OFFCURVE",
"1992 1534 OFFCURVE",
"1992 1534 CURVE SMOOTH",
"1992 1534 OFFCURVE",
"1994 1536 OFFCURVE",
"1996 1536 CURVE",
"1996 1534 OFFCURVE",
"1996 1534 OFFCURVE",
"1996 1536 CURVE",
"1998 1534 OFFCURVE",
"1998 1534 OFFCURVE",
"2000 1534 CURVE",
"2000 1528.01 LINE SMOOTH",
"1998 1432.1 OFFCURVE",
"1988 1338.19 OFFCURVE",
"1966 1258.27 CURVE SMOOTH",
"1944 1178.35 OFFCURVE",
"1914 1100.43 OFFCURVE",
"1874 1038.49 CURVE",
"1836 972.55 OFFCURVE",
"1776 926.595 OFFCURVE",
"1692 888.632 CURVE SMOOTH",
"1608 850.669 OFFCURVE",
"1500 832.687 OFFCURVE",
"1372 818.7 CURVE",
"1444 802.716 OFFCURVE",
"1510 780.737 OFFCURVE",
"1570 758.759 CURVE SMOOTH",
"1630 736.78 OFFCURVE",
"1682 708.808 OFFCURVE",
"1730 684.831 CURVE",
"1778 654.86 OFFCURVE",
"1818 630.884 OFFCURVE",
"1856 598.915 CURVE SMOOTH",
"1894 564.948 OFFCURVE",
"1924 534.977 OFFCURVE",
"1948 497.015 CURVE",
"1956 487.024 OFFCURVE",
"1964 475.036 OFFCURVE",
"1972 461.05 CURVE",
"1978 447.064 OFFCURVE",
"1986 435.075 OFFCURVE",
"1992 423.087 CURVE",
"2006 399.11 OFFCURVE",
"2016 373.136 OFFCURVE",
"2024 349.159 CURVE SMOOTH",
"2032 323.185 OFFCURVE",
"2038 299.208 OFFCURVE",
"2042 275.231 CURVE SMOOTH",
"2046 249.257 OFFCURVE",
"2048 225.28 OFFCURVE",
"2048 199.306 CURVE SMOOTH",
"2048 149.354 OFFCURVE",
"2040 95.4063 OFFCURVE",
"2024 47.4531 CURVE SMOOTH",
"2008 -1 OFFCURVE",
"1984 -50 OFFCURVE",
"1954 -92 CURVE",
"1922 -142 OFFCURVE",
"1884 -180 OFFCURVE",
"1838 -224 CURVE SMOOTH",
"1792 -268 OFFCURVE",
"1738 -304 OFFCURVE",
"1680 -344 CURVE",
"1592 -398 OFFCURVE",
"1492 -444 OFFCURVE",
"1382 -470 CURVE SMOOTH",
"1270 -496 OFFCURVE",
"1148 -512 OFFCURVE",
"1014 -510 CURVE",
"990 -512 LINE"
);
}
);
width = 2048;
}
);
unicode = 2649;
},
{
glyphname = gemini;
lastChange = "2014-09-19 13:45:38 +0000";
layers = (
{
layerId = "C6537DE0-68DF-4C5B-B6D5-25B465FDDD7D";
name = Regular;
paths = (
{
closed = 1;
nodes = (
"2009.75 1536 LINE",
"1921.75 1526 OFFCURVE",
"1837.75 1518 OFFCURVE",
"1751.75 1512 CURVE SMOOTH",
"1665.75 1504 OFFCURVE",
"1587.75 1500 OFFCURVE",
"1501.75 1494 CURVE SMOOTH",
"1381.75 1488 LINE SMOOTH",
"1339.75 1486 OFFCURVE",
"1299.75 1486 OFFCURVE",
"1261.75 1484 CURVE SMOOTH",
"1181.75 1482 OFFCURVE",
"1101.75 1480 OFFCURVE",
"1023.75 1480 CURVE SMOOTH",
"943.75 1480 OFFCURVE",
"867.75 1482 OFFCURVE",
"787.75 1484 CURVE SMOOTH",
"705.75 1486 OFFCURVE",
"625.75 1488 OFFCURVE",
"543.75 1494 CURVE SMOOTH",
"505.75 1496 OFFCURVE",
"465.75 1500 OFFCURVE",
"423.75 1502 CURVE SMOOTH",
"381.75 1504 OFFCURVE",
"339.75 1508 OFFCURVE",
"297.75 1512 CURVE SMOOTH",
"215.75 1518 OFFCURVE",
"123.75 1526 OFFCURVE",
"41.75 1534 CURVE",
"39.75 1536 OFFCURVE",
"37.75 1536 OFFCURVE",
"37.75 1536 CURVE",
"37.75 1534 OFFCURVE",
"37.75 1534 OFFCURVE",
"35.75 1534 CURVE SMOOTH",
"33.75 1534 OFFCURVE",
"33.75 1534 OFFCURVE",
"35.75 1534 CURVE",
"35.75 1532 OFFCURVE",
"35.75 1532 OFFCURVE",
"33.75 1532 CURVE",
"33.75 1530 LINE",
"31.75 1528 OFFCURVE",
"31.75 1528 OFFCURVE",
"33.75 1528 CURVE SMOOTH",
"35.75 1528 LINE",
"33.75 1526 OFFCURVE",
"35.75 1526 OFFCURVE",
"37.75 1526 CURVE",
"51.75 1516 OFFCURVE",
"65.75 1508 OFFCURVE",
"81.75 1500 CURVE",
"113.75 1482 OFFCURVE",
"141.75 1466 OFFCURVE",
"173.75 1446 CURVE SMOOTH",
"205.75 1426 OFFCURVE",
"235.75 1406 OFFCURVE",
"265.75 1384 CURVE SMOOTH",
"279.75 1374 OFFCURVE",
"295.75 1362 OFFCURVE",
"311.75 1352 CURVE",
"327.75 1340 OFFCURVE",
"343.75 1328 OFFCURVE",
"357.75 1316 CURVE SMOOTH",
"371.75 1304 OFFCURVE",
"387.75 1292 OFFCURVE",
"405.75 1280 CURVE",
"403.75 -256 LINE",
"389.75 -272 OFFCURVE",
"373.75 -288 OFFCURVE",
"357.75 -302 CURVE",
"323.75 -334 OFFCURVE",
"295.75 -360 OFFCURVE",
"265.75 -382 CURVE SMOOTH",
"249.75 -394 OFFCURVE",
"235.75 -406 OFFCURVE",
"221.75 -416 CURVE SMOOTH",
"191.75 -438 OFFCURVE",
"167.75 -454 OFFCURVE",
"139.75 -468 CURVE SMOOTH",
"111.75 -482 OFFCURVE",
"89.75 -492 OFFCURVE",
"59.75 -500 CURVE",
"61.75 -500 OFFCURVE",
"61.75 -500 OFFCURVE",
"59.75 -500 CURVE",
"57.75 -502 OFFCURVE",
"57.75 -502 OFFCURVE",
"59.75 -502 CURVE",
"59.75 -504 LINE",
"57.75 -506 OFFCURVE",
"57.75 -506 OFFCURVE",
"59.75 -506 CURVE",
"57.75 -508 OFFCURVE",
"57.75 -508 OFFCURVE",
"59.75 -508 CURVE",
"59.75 -510 LINE",
"63.75 -510 LINE",
"177.75 -498 LINE SMOOTH",
"251.75 -492 OFFCURVE",
"329.75 -484 OFFCURVE",
"403.75 -480 CURVE SMOOTH",
"627.75 -468 LINE SMOOTH",
"665.75 -466 OFFCURVE",
"701.75 -466 OFFCURVE",
"739.75 -464 CURVE",
"811.75 -464 OFFCURVE",
"891.75 -462 OFFCURVE",
"965.75 -462 CURVE SMOOTH",
"1131.75 -462 OFFCURVE",
"1293.75 -466 OFFCURVE",
"1465.75 -474 CURVE SMOOTH",
"1637.75 -482 OFFCURVE",
"1809.75 -496 OFFCURVE",
"1987.75 -512 CURVE",
"1985.75 -512 LINE",
"1991.75 -502 LINE",
"1929.75 -478 OFFCURVE",
"1875.75 -448 OFFCURVE",
"1813.75 -406 CURVE SMOOTH",
"1751.75 -366 OFFCURVE",
"1695.75 -316 OFFCURVE",
"1631.75 -254 CURVE",
"1633.75 1278 LINE",
"1635.75 1280 OFFCURVE",
"1639.75 1284 OFFCURVE",
"1643.75 1286 CURVE SMOOTH",
"1647.75 1288 OFFCURVE",
"1651.75 1292 OFFCURVE",
"1655.75 1296 CURVE SMOOTH",
"1657.75 1298 OFFCURVE",
"1661.75 1302 OFFCURVE",
"1667.75 1304 CURVE",
"1677.75 1310 OFFCURVE",
"1685.75 1314 OFFCURVE",
"1693.75 1322 CURVE",
"1697.75 1324 OFFCURVE",
"1701.75 1328 OFFCURVE",
"1707.75 1330 CURVE SMOOTH",
"1713.75 1332 OFFCURVE",
"1717.75 1336 OFFCURVE",
"1723.75 1340 CURVE SMOOTH",
"1739.75 1350 LINE",
"1753.75 1360 LINE",
"1759.75 1362 OFFCURVE",
"1763.75 1366 OFFCURVE",
"1769.75 1370 CURVE SMOOTH",
"1785.75 1380 LINE",
"1797.75 1386 OFFCURVE",
"1807.75 1392 OFFCURVE",
"1815.75 1400 CURVE",
"1831.75 1410 LINE",
"1843.75 1416 OFFCURVE",
"1849.75 1420 OFFCURVE",
"1863.75 1428 CURVE",
"1865.75 1430 OFFCURVE",
"1867.75 1432 OFFCURVE",
"1873.75 1434 CURVE",
"1885.75 1442 LINE",
"1887.75 1444 OFFCURVE",
"1891.75 1448 OFFCURVE",
"1897.75 1450 CURVE",
"1905.75 1454 OFFCURVE",
"1913.75 1458 OFFCURVE",
"1921.75 1464 CURVE",
"1923.75 1466 OFFCURVE",
"1927.75 1470 OFFCURVE",
"1931.75 1472 CURVE SMOOTH",
"1943.75 1478 LINE",
"1945.75 1480 OFFCURVE",
"1949.75 1482 OFFCURVE",
"1955.75 1484 CURVE",
"1957.75 1486 OFFCURVE",
"1959.75 1490 OFFCURVE",
"1963.75 1492 CURVE SMOOTH",
"1967.75 1494 OFFCURVE",
"1971.75 1496 OFFCURVE",
"1973.75 1498 CURVE SMOOTH",
"1975.75 1500 OFFCURVE",
"1979.75 1502 OFFCURVE",
"1983.75 1504 CURVE",
"1989.75 1510 LINE",
"1997.75 1512 OFFCURVE",
"1999.75 1516 OFFCURVE",
"2005.75 1520 CURVE",
"2013.75 1526 LINE",
"2013.75 1526 OFFCURVE",
"2015.75 1528 OFFCURVE",
"2015.75 1530 CURVE SMOOTH",
"2015.75 1532 LINE",
"2013.75 1532 LINE",
"2015.75 1534 OFFCURVE",
"2015.75 1534 OFFCURVE",
"2015.75 1536 CURVE"
);
},
{
closed = 1;
nodes = (
"1309.75 -196 LINE",
"727.75 -196 LINE",
"729.75 1226 LINE",
"1307.75 1226 LINE"
);
}
);
width = 2048;
}
);
unicode = 264A;
},
{
glyphname = cancer;
lastChange = "2014-09-19 13:45:38 +0000";
layers = (
{
layerId = "C6537DE0-68DF-4C5B-B6D5-25B465FDDD7D";
name = Regular;
paths = (
{
closed = 1;
nodes = (
"1089.06 1536 LINE SMOOTH",
"1047.06 1536 OFFCURVE",
"995.064 1532 OFFCURVE",
"949.064 1526 CURVE",
"903.064 1518 OFFCURVE",
"853.064 1508 OFFCURVE",
"807.064 1494 CURVE SMOOTH",
"757.064 1478 OFFCURVE",
"713.064 1462 OFFCURVE",
"665.064 1442 CURVE SMOOTH",
"617.064 1422 OFFCURVE",
"575.064 1396 OFFCURVE",
"527.064 1370 CURVE",
"481.064 1340 OFFCURVE",
"435.064 1308 OFFCURVE",
"395.064 1276 CURVE SMOOTH",
"355.064 1242 OFFCURVE",
"315.064 1206 OFFCURVE",
"283.064 1166 CURVE",
"249.064 1128 OFFCURVE",
"219.064 1088 OFFCURVE",
"195.064 1046 CURVE",
"169.064 1004 OFFCURVE",
"151.064 962 OFFCURVE",
"133.064 916 CURVE",
"135.064 914 OFFCURVE",
"135.064 914 OFFCURVE",
"133.064 914 CURVE",
"131.064 912 OFFCURVE",
"131.064 912 OFFCURVE",
"133.064 912 CURVE SMOOTH",
"135.064 912 LINE",
"133.064 910 OFFCURVE",
"135.064 910 OFFCURVE",
"137.064 910 CURVE",
"135.064 908 OFFCURVE",
"135.064 908 OFFCURVE",
"137.064 908 CURVE SMOOTH",
"139.064 908 LINE",
"141.064 910 LINE",
"143.064 910 OFFCURVE",
"143.064 910 OFFCURVE",
"141.064 910 CURVE",
"203.064 972 OFFCURVE",
"263.064 1026 OFFCURVE",
"343.064 1074 CURVE SMOOTH",
"421.064 1120 OFFCURVE",
"505.064 1158 OFFCURVE",
"603.064 1190 CURVE SMOOTH",
"681.064 1216 OFFCURVE",
"767.064 1236 OFFCURVE",
"849.064 1250 CURVE SMOOTH",
"929.064 1264 OFFCURVE",
"1015.06 1272 OFFCURVE",
"1095.06 1272 CURVE SMOOTH",
"1153.06 1272 OFFCURVE",
"1201.06 1270 OFFCURVE",
"1251.06 1264 CURVE SMOOTH",
"1299.06 1258 OFFCURVE",
"1343.06 1250 OFFCURVE",
"1385.06 1240 CURVE SMOOTH",
"1425.06 1230 OFFCURVE",
"1467.06 1216 OFFCURVE",
"1501.06 1200 CURVE SMOOTH",
"1533.06 1184 OFFCURVE",
"1569.06 1166 OFFCURVE",
"1595.06 1144 CURVE",
"1625.06 1126 OFFCURVE",
"1647.06 1100 OFFCURVE",
"1671.06 1076 CURVE",
"1693.06 1050 OFFCURVE",
"1709.06 1022 OFFCURVE",
"1725.06 990 CURVE SMOOTH",
"1739.06 960 OFFCURVE",
"1751.06 926 OFFCURVE",
"1759.06 892 CURVE",
"1765.06 858 OFFCURVE",
"1769.06 820 OFFCURVE",
"1767.06 782 CURVE",
"1769.06 772 OFFCURVE",
"1769.06 762 OFFCURVE",
"1767.06 754 CURVE",
"1765.06 744 OFFCURVE",
"1765.06 736 OFFCURVE",
"1765.06 728 CURVE",
"1759.06 702 LINE",
"1753.06 678 LINE",
"1749.06 670 OFFCURVE",
"1745.06 662 OFFCURVE",
"1743.06 656 CURVE",
"1739.06 648 OFFCURVE",
"1735.06 640 OFFCURVE",
"1731.06 634 CURVE",
"1725.06 626 OFFCURVE",
"1721.06 618 OFFCURVE",
"1717.06 612 CURVE",
"1711.06 604 OFFCURVE",
"1705.06 596 OFFCURVE",
"1697.06 590 CURVE",
"1695.06 584 OFFCURVE",
"1691.06 580 OFFCURVE",
"1687.06 576 CURVE SMOOTH",
"1673.06 562 LINE",
"1669.06 556 OFFCURVE",
"1665.06 552 OFFCURVE",
"1661.06 550 CURVE",
"1655.06 546 OFFCURVE",
"1651.06 542 OFFCURVE",
"1649.06 538 CURVE",
"1645.06 536 OFFCURVE",
"1641.06 532 OFFCURVE",
"1639.06 530 CURVE",
"1627.06 524 LINE",
"1621.06 522 OFFCURVE",
"1617.06 520 OFFCURVE",
"1615.06 518 CURVE",
"1611.06 516 OFFCURVE",
"1607.06 512 OFFCURVE",
"1601.06 510 CURVE SMOOTH",
"1595.06 508 OFFCURVE",
"1585.06 504 OFFCURVE",
"1577.06 504 CURVE",
"1569.06 502 OFFCURVE",
"1559.06 500 OFFCURVE",
"1553.06 500 CURVE SMOOTH",
"1537.06 500 LINE",
"1533.06 498 OFFCURVE",
"1529.06 498 OFFCURVE",
"1523.06 498 CURVE SMOOTH",
"1461.06 498 LINE SMOOTH",
"1439.06 498 OFFCURVE",
"1423.06 500 OFFCURVE",
"1405.06 502 CURVE SMOOTH",
"1387.06 504 OFFCURVE",
"1371.06 506 OFFCURVE",
"1357.06 512 CURVE",
"1349.06 514 OFFCURVE",
"1341.06 518 OFFCURVE",
"1333.06 520 CURVE SMOOTH",
"1325.06 522 OFFCURVE",
"1317.06 526 OFFCURVE",
"1311.06 530 CURVE",
"1287.06 544 LINE",
"1265.06 560 OFFCURVE",
"1241.06 580 OFFCURVE",
"1225.06 600 CURVE SMOOTH",
"1201.06 630 LINE SMOOTH",
"1185.06 650 OFFCURVE",
"1173.06 670 OFFCURVE",
"1165.06 694 CURVE SMOOTH",
"1153.06 730 LINE SMOOTH",
"1149.06 742 OFFCURVE",
"1147.06 754 OFFCURVE",
"1147.06 768 CURVE",
"1143.06 808 LINE",
"1145.06 810 OFFCURVE",
"1145.06 814 OFFCURVE",
"1145.06 816 CURVE",
"1143.06 818 OFFCURVE",
"1143.06 822 OFFCURVE",
"1145.06 824 CURVE",
"1145.06 830 LINE",
"1143.06 832 OFFCURVE",
"1145.06 834 OFFCURVE",
"1147.06 836 CURVE",
"1145.06 838 OFFCURVE",
"1145.06 842 OFFCURVE",
"1147.06 844 CURVE",
"1147.06 850 LINE",
"1145.06 852 OFFCURVE",
"1145.06 854 OFFCURVE",
"1147.06 856 CURVE SMOOTH",
"1149.06 858 OFFCURVE",
"1149.06 862 OFFCURVE",
"1147.06 864 CURVE",
"1157.06 930 OFFCURVE",
"1171.06 988 OFFCURVE",
"1195.06 1036 CURVE SMOOTH",
"1217.06 1082 OFFCURVE",
"1239.06 1118 OFFCURVE",
"1277.06 1144 CURVE",
"1275.06 1144 OFFCURVE",
"1275.06 1144 OFFCURVE",
"1277.06 1146 CURVE",
"1279.06 1146 LINE",
"1277.06 1146 OFFCURVE",
"1277.06 1146 OFFCURVE",
"1279.06 1148 CURVE",
"1277.06 1150 LINE",
"1279.06 1150 OFFCURVE",
"1279.06 1150 OFFCURVE",
"1277.06 1152 CURVE",
"1275.06 1152 OFFCURVE",
"1275.06 1152 OFFCURVE",
"1277.06 1152 CURVE",
"1275.06 1152 LINE SMOOTH",
"1273.06 1152 OFFCURVE",
"1273.06 1152 OFFCURVE",
"1275.06 1152 CURVE",
"1265.06 1152 OFFCURVE",
"1255.06 1152 OFFCURVE",
"1247.06 1150 CURVE",
"1229.06 1148 OFFCURVE",
"1207.06 1144 OFFCURVE",
"1191.06 1136 CURVE SMOOTH",
"1175.06 1128 OFFCURVE",
"1155.06 1118 OFFCURVE",
"1139.06 1108 CURVE",
"1121.06 1098 OFFCURVE",
"1107.06 1084 OFFCURVE",
"1091.06 1070 CURVE",
"1075.06 1054 OFFCURVE",
"1059.06 1038 OFFCURVE",
"1049.06 1022 CURVE",
"1043.06 1014 OFFCURVE",
"1037.06 1006 OFFCURVE",
"1031.06 996 CURVE SMOOTH",
"1025.06 986 OFFCURVE",
"1019.06 978 OFFCURVE",
"1015.06 968 CURVE SMOOTH",
"1011.06 958 OFFCURVE",
"1007.06 948 OFFCURVE",
"1001.06 938 CURVE",
"993.064 916 OFFCURVE",
"987.064 896 OFFCURVE",
"983.064 874 CURVE SMOOTH",
"979.064 852 OFFCURVE",
"975.064 832 OFFCURVE",
"977.064 808 CURVE",
"975.064 798 OFFCURVE",
"975.064 786 OFFCURVE",
"977.064 776 CURVE",
"979.064 754 OFFCURVE",
"981.064 734 OFFCURVE",
"989.064 712 CURVE",
"995.064 690 OFFCURVE",
"1001.06 674 OFFCURVE",
"1009.06 654 CURVE SMOOTH",
"1013.06 644 OFFCURVE",
"1019.06 634 OFFCURVE",
"1025.06 624 CURVE",
"1037.06 606 OFFCURVE",
"1047.06 586 OFFCURVE",
"1065.06 570 CURVE",
"1071.06 560 OFFCURVE",
"1077.06 552 OFFCURVE",
"1087.06 544 CURVE",
"1103.06 526 OFFCURVE",
"1119.06 508 OFFCURVE",
"1143.06 492 CURVE",
"1173.06 468 LINE",
"1209.06 444 LINE",
"1219.06 436 OFFCURVE",
"1233.06 428 OFFCURVE",
"1247.06 420 CURVE SMOOTH",
"1287.06 396 LINE SMOOTH",
"1301.06 388 OFFCURVE",
"1315.06 380 OFFCURVE",
"1331.06 372 CURVE",
"1353.06 358 OFFCURVE",
"1385.06 350 OFFCURVE",
"1413.06 344 CURVE",
"1441.06 336 OFFCURVE",
"1473.06 334 OFFCURVE",
"1503.06 334 CURVE SMOOTH",
"1537.06 334 OFFCURVE",
"1567.06 336 OFFCURVE",
"1599.06 342 CURVE SMOOTH",
"1631.06 348 OFFCURVE",
"1657.06 356 OFFCURVE",
"1689.06 366 CURVE",
"1715.06 376 OFFCURVE",
"1745.06 390 OFFCURVE",
"1771.06 406 CURVE",
"1795.06 422 OFFCURVE",
"1825.06 440 OFFCURVE",
"1847.06 462 CURVE",
"1877.06 486 OFFCURVE",
"1897.06 514 OFFCURVE",
"1919.06 542 CURVE SMOOTH",
"1941.06 570 OFFCURVE",
"1955.06 600 OFFCURVE",
"1971.06 632 CURVE",
"1985.06 664 OFFCURVE",
"1997.06 700 OFFCURVE",
"2003.06 734 CURVE SMOOTH",
"2009.06 768 OFFCURVE",
"2015.06 806 OFFCURVE",
"2013.06 844 CURVE",
"2013.06 846 LINE SMOOTH",
"2011.06 934 OFFCURVE",
"2003.06 1012 OFFCURVE",
"1981.06 1084 CURVE SMOOTH",
"1957.06 1154 OFFCURVE",
"1929.06 1216 OFFCURVE",
"1887.06 1266 CURVE",
"1847.06 1320 OFFCURVE",
"1795.06 1366 OFFCURVE",
"1735.06 1402 CURVE SMOOTH",
"1675.06 1438 OFFCURVE",
"1599.06 1466 OFFCURVE",
"1521.06 1488 CURVE",
"1519.06 1488 LINE",
"1497.06 1494 LINE SMOOTH",
"1481.06 1498 OFFCURVE",
"1467.06 1500 OFFCURVE",
"1451.06 1502 CURVE",
"1441.06 1504 OFFCURVE",
"1433.06 1504 OFFCURVE",
"1425.06 1506 CURVE SMOOTH",
"1399.06 1512 LINE",
"1371.06 1516 LINE",
"1361.06 1516 OFFCURVE",
"1353.06 1516 OFFCURVE",
"1345.06 1518 CURVE",
"1327.06 1520 OFFCURVE",
"1309.06 1524 OFFCURVE",
"1289.06 1526 CURVE",
"1279.06 1526 OFFCURVE",
"1269.06 1526 OFFCURVE",
"1261.06 1528 CURVE",
"1233.06 1532 LINE",
"1213.06 1532 OFFCURVE",
"1191.06 1534 OFFCURVE",
"1175.06 1534 CURVE SMOOTH",
"1165.06 1534 OFFCURVE",
"1157.06 1534 OFFCURVE",
"1147.06 1536 CURVE"
);
},
{
closed = 1;
nodes = (
"545.064 690 LINE SMOOTH",
"479.064 690 OFFCURVE",
"419.064 680 OFFCURVE",
"361.064 658 CURVE SMOOTH",
"303.064 634 OFFCURVE",
"251.064 600 OFFCURVE",
"197.064 554 CURVE",
"143.064 504 OFFCURVE",
"101.064 448 OFFCURVE",
"75.064 386 CURVE SMOOTH",
"49.064 322 OFFCURVE",
"33.064 252 OFFCURVE",
"35.064 178 CURVE",
"33.064 130 OFFCURVE",
"37.064 88 OFFCURVE",
"43.064 46 CURVE SMOOTH",
"49.064 4 OFFCURVE",
"61.064 -34 OFFCURVE",
"71.064 -72 CURVE",
"85.064 -110 OFFCURVE",
"99.064 -144 OFFCURVE",
"117.064 -176 CURVE SMOOTH",
"135.064 -208 OFFCURVE",
"153.064 -238 OFFCURVE",
"177.064 -264 CURVE",
"215.064 -310 OFFCURVE",
"261.064 -346 OFFCURVE",
"311.064 -378 CURVE SMOOTH",
"359.064 -410 OFFCURVE",
"419.064 -436 OFFCURVE",
"481.064 -454 CURVE SMOOTH",
"547.064 -472 OFFCURVE",
"615.064 -488 OFFCURVE",
"695.064 -496 CURVE SMOOTH",
"775.064 -506 OFFCURVE",
"859.064 -512 OFFCURVE",
"955.064 -512 CURVE SMOOTH",
"1049.06 -512 OFFCURVE",
"1145.06 -498 OFFCURVE",
"1239.06 -472 CURVE SMOOTH",
"1333.06 -446 OFFCURVE",
"1429.06 -404 OFFCURVE",
"1517.06 -350 CURVE SMOOTH",
"1619.06 -292 OFFCURVE",
"1695.06 -230 OFFCURVE",
"1759.06 -166 CURVE SMOOTH",
"1823.06 -102 OFFCURVE",
"1865.06 -36 OFFCURVE",
"1891.06 34 CURVE",
"1889.06 34 LINE",
"1891.06 80 LINE",
"1889.06 80 OFFCURVE",
"1889.06 80 OFFCURVE",
"1891.06 82 CURVE",
"1889.06 84 LINE",
"1885.06 84 LINE SMOOTH",
"1883.06 84 OFFCURVE",
"1883.06 84 OFFCURVE",
"1885.06 84 CURVE",
"1883.06 84 LINE SMOOTH",
"1881.06 84 OFFCURVE",
"1881.06 84 OFFCURVE",
"1883.06 82 CURVE",
"1869.06 70 OFFCURVE",
"1857.06 58 OFFCURVE",
"1845.06 46 CURVE SMOOTH",
"1831.06 32 OFFCURVE",
"1817.06 20 OFFCURVE",
"1801.06 10 CURVE",
"1769.06 -14 OFFCURVE",
"1741.06 -34 OFFCURVE",
"1701.06 -56 CURVE",
"1667.06 -78 OFFCURVE",
"1625.06 -96 OFFCURVE",
"1585.06 -114 CURVE SMOOTH",
"1543.06 -132 OFFCURVE",
"1493.06 -150 OFFCURVE",
"1447.06 -166 CURVE",
"1361.06 -192 OFFCURVE",
"1285.06 -212 OFFCURVE",
"1201.06 -226 CURVE SMOOTH",
"1117.06 -240 OFFCURVE",
"1035.06 -248 OFFCURVE",
"953.064 -248 CURVE SMOOTH",
"843.064 -248 OFFCURVE",
"745.064 -238 OFFCURVE",
"665.064 -216 CURVE SMOOTH",
"583.064 -194 OFFCURVE",
"509.064 -164 OFFCURVE",
"453.064 -124 CURVE SMOOTH",
"395.064 -82 OFFCURVE",
"355.064 -30 OFFCURVE",
"325.064 30 CURVE SMOOTH",
"293.064 90 OFFCURVE",
"283.064 158 OFFCURVE",
"281.064 238 CURVE",
"283.064 248 OFFCURVE",
"283.064 256 OFFCURVE",
"283.064 266 CURVE SMOOTH",
"283.064 276 OFFCURVE",
"285.064 284 OFFCURVE",
"287.064 294 CURVE SMOOTH",
"293.064 320 LINE SMOOTH",
"297.064 336 OFFCURVE",
"303.064 352 OFFCURVE",
"311.064 368 CURVE SMOOTH",
"319.064 384 OFFCURVE",
"327.064 398 OFFCURVE",
"337.064 412 CURVE",
"343.064 418 OFFCURVE",
"347.064 426 OFFCURVE",
"349.064 432 CURVE",
"367.064 450 LINE",
"371.064 456 OFFCURVE",
"377.064 460 OFFCURVE",
"383.064 466 CURVE",
"401.064 482 LINE",
"409.064 490 OFFCURVE",
"423.064 498 OFFCURVE",
"437.064 506 CURVE",
"443.064 508 OFFCURVE",
"449.064 512 OFFCURVE",
"455.064 514 CURVE SMOOTH",
"473.064 520 LINE SMOOTH",
"479.064 522 OFFCURVE",
"483.064 522 OFFCURVE",
"487.064 524 CURVE",
"497.064 524 LINE",
"501.064 526 LINE",
"505.064 526 LINE SMOOTH",
"507.064 526 OFFCURVE",
"509.064 526 OFFCURVE",
"511.064 528 CURVE",
"515.064 528 LINE SMOOTH",
"517.064 528 OFFCURVE",
"519.064 528 OFFCURVE",
"521.064 530 CURVE",
"531.064 530 LINE SMOOTH",
"533.064 530 OFFCURVE",
"535.064 530 OFFCURVE",
"537.064 532 CURVE",
"543.064 532 LINE SMOOTH",
"573.064 532 OFFCURVE",
"593.064 528 OFFCURVE",
"619.064 522 CURVE",
"643.064 514 OFFCURVE",
"663.064 506 OFFCURVE",
"685.064 492 CURVE",
"703.064 478 OFFCURVE",
"725.064 462 OFFCURVE",
"743.064 446 CURVE",
"759.064 428 OFFCURVE",
"779.064 408 OFFCURVE",
"789.064 386 CURVE",
"799.064 376 OFFCURVE",
"805.064 364 OFFCURVE",
"811.064 354 CURVE",
"829.064 318 LINE SMOOTH",
"835.064 306 OFFCURVE",
"841.064 294 OFFCURVE",
"845.064 280 CURVE SMOOTH",
"849.064 266 OFFCURVE",
"853.064 254 OFFCURVE",
"859.064 240 CURVE",
"861.064 226 OFFCURVE",
"865.064 214 OFFCURVE",
"869.064 200 CURVE",
"881.064 116 LINE SMOOTH",
"883.064 102 OFFCURVE",
"883.064 86 OFFCURVE",
"881.064 72 CURVE",
"883.064 24 OFFCURVE",
"873.064 -20 OFFCURVE",
"863.064 -56 CURVE SMOOTH",
"853.064 -92 OFFCURVE",
"829.064 -122 OFFCURVE",
"807.064 -144 CURVE",
"805.064 -144 LINE",
"805.064 -146 LINE",
"803.064 -148 OFFCURVE",
"803.064 -148 OFFCURVE",
"805.064 -148 CURVE",
"805.064 -150 OFFCURVE",
"805.064 -150 OFFCURVE",
"803.064 -150 CURVE",
"805.064 -150 LINE",
"805.064 -152 OFFCURVE",
"807.064 -154 OFFCURVE",
"807.064 -154 CURVE SMOOTH",
"811.064 -154 LINE",
"817.064 -152 OFFCURVE",
"825.064 -152 OFFCURVE",
"835.064 -150 CURVE",
"853.064 -148 OFFCURVE",
"867.064 -142 OFFCURVE",
"885.064 -132 CURVE",
"901.064 -124 OFFCURVE",
"915.064 -114 OFFCURVE",
"929.064 -102 CURVE SMOOTH",
"943.064 -90 OFFCURVE",
"957.064 -78 OFFCURVE",
"969.064 -62 CURVE SMOOTH",
"981.064 -46 OFFCURVE",
"991.064 -30 OFFCURVE",
"1001.06 -12 CURVE",
"1007.06 -4 OFFCURVE",
"1011.06 4 OFFCURVE",
"1015.06 14 CURVE SMOOTH",
"1019.06 24 OFFCURVE",
"1023.06 34 OFFCURVE",
"1029.06 44 CURVE",
"1037.06 64 OFFCURVE",
"1043.06 82 OFFCURVE",
"1047.06 104 CURVE SMOOTH",
"1051.06 126 OFFCURVE",
"1055.06 146 OFFCURVE",
"1055.06 168 CURVE SMOOTH",
"1055.06 178 OFFCURVE",
"1055.06 190 OFFCURVE",
"1057.06 200 CURVE",
"1055.06 210 OFFCURVE",
"1055.06 218 OFFCURVE",
"1057.06 228 CURVE",
"1057.06 236 OFFCURVE",
"1057.06 244 OFFCURVE",
"1055.06 252 CURVE SMOOTH",
"1053.06 260 OFFCURVE",
"1051.06 268 OFFCURVE",
"1051.06 278 CURVE",
"1049.06 294 OFFCURVE",
"1045.06 312 OFFCURVE",
"1039.06 328 CURVE",
"1037.06 336 OFFCURVE",
"1033.06 344 OFFCURVE",
"1031.06 354 CURVE",
"1029.06 362 OFFCURVE",
"1025.06 370 OFFCURVE",
"1021.06 378 CURVE SMOOTH",
"1017.06 386 OFFCURVE",
"1013.06 394 OFFCURVE",
"1011.06 402 CURVE",
"1005.06 408 OFFCURVE",
"1001.06 416 OFFCURVE",
"997.064 424 CURVE SMOOTH",
"989.064 440 OFFCURVE",
"977.064 454 OFFCURVE",
"967.064 470 CURVE",
"957.064 484 OFFCURVE",
"945.064 496 OFFCURVE",
"931.064 510 CURVE",
"923.064 516 OFFCURVE",
"915.064 524 OFFCURVE",
"909.064 530 CURVE SMOOTH",
"895.064 544 OFFCURVE",
"879.064 556 OFFCURVE",
"863.064 566 CURVE",
"861.064 568 OFFCURVE",
"861.064 570 OFFCURVE",
"857.064 572 CURVE",
"855.064 572 OFFCURVE",
"853.064 572 OFFCURVE",
"853.064 574 CURVE",
"847.064 578 LINE",
"845.064 578 OFFCURVE",
"843.064 578 OFFCURVE",
"843.064 580 CURVE",
"841.064 580 OFFCURVE",
"841.064 580 OFFCURVE",
"839.064 582 CURVE",
"837.064 582 OFFCURVE",
"835.064 582 OFFCURVE",
"837.064 584 CURVE",
"831.064 586 OFFCURVE",
"825.064 590 OFFCURVE",
"821.064 594 CURVE",
"815.064 596 OFFCURVE",
"811.064 600 OFFCURVE",
"805.064 604 CURVE",
"799.064 606 OFFCURVE",
"793.064 610 OFFCURVE",
"787.064 614 CURVE",
"777.064 620 OFFCURVE",
"767.064 626 OFFCURVE",
"755.064 632 CURVE",
"749.064 634 OFFCURVE",
"743.064 638 OFFCURVE",
"739.064 642 CURVE",
"733.064 644 OFFCURVE",
"727.064 648 OFFCURVE",
"721.064 650 CURVE SMOOTH",
"715.064 652 OFFCURVE",
"709.064 656 OFFCURVE",
"705.064 658 CURVE",
"697.064 660 OFFCURVE",
"691.064 664 OFFCURVE",
"685.064 666 CURVE SMOOTH",
"649.064 678 LINE SMOOTH",
"637.064 682 OFFCURVE",
"623.064 684 OFFCURVE",
"609.064 686 CURVE SMOOTH",
"593.064 688 OFFCURVE",
"583.064 690 OFFCURVE",
"567.064 690 CURVE SMOOTH"
);
}
);
width = 2048;
}
);
unicode = 264B;
},
{
glyphname = leo;
lastChange = "2014-09-19 13:45:38 +0000";
layers = (
{
layerId = "C6537DE0-68DF-4C5B-B6D5-25B465FDDD7D";
name = Regular;
paths = (
{
closed = 1;
nodes = (
"1016 1536 OFFCURVE",
"964 1534 OFFCURVE",
"916 1528 CURVE SMOOTH",
"866 1522 OFFCURVE",
"820 1516 OFFCURVE",
"774 1506 CURVE SMOOTH",
"728 1496 OFFCURVE",
"688 1484 OFFCURVE",
"650 1470 CURVE SMOOTH",
"610 1454 OFFCURVE",
"576 1438 OFFCURVE",
"544 1420 CURVE",
"512 1398 OFFCURVE",
"484 1380 OFFCURVE",
"460 1358 CURVE SMOOTH",
"434 1334 OFFCURVE",
"412 1308 OFFCURVE",
"396 1282 CURVE",
"378 1256 OFFCURVE",
"364 1228 OFFCURVE",
"356 1198 CURVE",
"346 1168 OFFCURVE",
"342 1136 OFFCURVE",
"342 1104 CURVE SMOOTH",
"342 1074 OFFCURVE",
"346 1044 OFFCURVE",
"356 1014 CURVE",
"364 982 OFFCURVE",
"376 948 OFFCURVE",
"394 914 CURVE",
"410 880 OFFCURVE",
"434 846 OFFCURVE",
"460 808 CURVE SMOOTH",
"486 770 OFFCURVE",
"518 732 OFFCURVE",
"556 692 CURVE",
"552 694 OFFCURVE",
"548 694 OFFCURVE",
"546 694 CURVE SMOOTH",
"490 694 LINE SMOOTH",
"418 694 OFFCURVE",
"356 686 OFFCURVE",
"302 670 CURVE SMOOTH",
"246 654 OFFCURVE",
"202 630 OFFCURVE",
"164 598 CURVE",
"122 558 OFFCURVE",
"88 520 OFFCURVE",
"66 476 CURVE",
"42 432 OFFCURVE",
"30 388 OFFCURVE",
"28 340 CURVE",
"28 322 LINE SMOOTH",
"28 276 OFFCURVE",
"38 234 OFFCURVE",
"56 192 CURVE",
"72 150 OFFCURVE",
"98 108 OFFCURVE",
"130 70 CURVE SMOOTH",
"168 24 OFFCURVE",
"212 -8 OFFCURVE",
"266 -30 CURVE SMOOTH",
"320 -54 OFFCURVE",
"382 -68 OFFCURVE",
"454 -70 CURVE SMOOTH",
"462 -70 LINE",
"464 -72 LINE",
"468 -72 LINE SMOOTH",
"474 -72 OFFCURVE",
"482 -72 OFFCURVE",
"488 -70 CURVE",
"494 -70 OFFCURVE",
"502 -70 OFFCURVE",
"510 -68 CURVE",
"516 -68 OFFCURVE",
"524 -68 OFFCURVE",
"532 -66 CURVE",
"546 -64 OFFCURVE",
"562 -58 OFFCURVE",
"578 -54 CURVE SMOOTH",
"604 -48 LINE SMOOTH",
"614 -46 OFFCURVE",
"624 -42 OFFCURVE",
"634 -40 CURVE SMOOTH",
"644 -38 OFFCURVE",
"652 -34 OFFCURVE",
"662 -30 CURVE",
"684 -24 OFFCURVE",
"702 -16 OFFCURVE",
"720 -8 CURVE SMOOTH",
"738 0 OFFCURVE",
"756 10 OFFCURVE",
"774 20 CURVE",
"790 30 OFFCURVE",
"808 42 OFFCURVE",
"824 56 CURVE SMOOTH",
"840 70 OFFCURVE",
"854 82 OFFCURVE",
"868 98 CURVE SMOOTH",
"882 114 OFFCURVE",
"894 130 OFFCURVE",
"904 148 CURVE",
"914 164 OFFCURVE",
"924 184 OFFCURVE",
"932 202 CURVE SMOOTH",
"940 220 OFFCURVE",
"948 242 OFFCURVE",
"952 264 CURVE SMOOTH",
"956 286 OFFCURVE",
"956 308 OFFCURVE",
"956 332 CURVE SMOOTH",
"956 364 OFFCURVE",
"952 398 OFFCURVE",
"942 432 CURVE SMOOTH",
"932 466 OFFCURVE",
"918 502 OFFCURVE",
"896 540 CURVE",
"878 580 OFFCURVE",
"852 620 OFFCURVE",
"820 662 CURVE SMOOTH",
"788 702 OFFCURVE",
"750 746 OFFCURVE",
"708 792 CURVE",
"660 852 LINE",
"644 870 OFFCURVE",
"632 890 OFFCURVE",
"622 908 CURVE",
"612 924 OFFCURVE",
"606 944 OFFCURVE",
"600 962 CURVE",
"594 978 OFFCURVE",
"592 996 OFFCURVE",
"592 1012 CURVE SMOOTH",
"592 1022 OFFCURVE",
"592 1030 OFFCURVE",
"594 1040 CURVE",
"594 1056 OFFCURVE",
"598 1072 OFFCURVE",
"604 1088 CURVE",
"610 1102 OFFCURVE",
"616 1116 OFFCURVE",
"626 1130 CURVE",
"634 1144 OFFCURVE",
"646 1158 OFFCURVE",
"658 1170 CURVE SMOOTH",
"670 1182 OFFCURVE",
"682 1192 OFFCURVE",
"694 1202 CURVE",
"706 1210 OFFCURVE",
"718 1218 OFFCURVE",
"734 1226 CURVE",
"748 1234 OFFCURVE",
"764 1242 OFFCURVE",
"782 1250 CURVE",
"790 1252 OFFCURVE",
"798 1256 OFFCURVE",
"808 1260 CURVE SMOOTH",
"824 1266 OFFCURVE",
"842 1270 OFFCURVE",
"860 1276 CURVE",
"870 1278 OFFCURVE",
"878 1282 OFFCURVE",
"888 1284 CURVE SMOOTH",
"898 1286 OFFCURVE",
"908 1290 OFFCURVE",
"918 1292 CURVE SMOOTH",
"948 1298 LINE SMOOTH",
"968 1302 OFFCURVE",
"990 1304 OFFCURVE",
"1010 1306 CURVE",
"1020 1306 OFFCURVE",
"1030 1306 OFFCURVE",
"1040 1308 CURVE SMOOTH",
"1050 1310 OFFCURVE",
"1062 1310 OFFCURVE",
"1072 1310 CURVE SMOOTH",
"1154 1310 LINE",
"1186 1308 OFFCURVE",
"1220 1304 OFFCURVE",
"1252 1298 CURVE",
"1268 1296 OFFCURVE",
"1284 1292 OFFCURVE",
"1300 1290 CURVE",
"1332 1282 OFFCURVE",
"1364 1272 OFFCURVE",
"1392 1262 CURVE SMOOTH",
"1420 1252 OFFCURVE",
"1446 1238 OFFCURVE",
"1470 1224 CURVE SMOOTH",
"1496 1208 OFFCURVE",
"1520 1190 OFFCURVE",
"1540 1172 CURVE SMOOTH",
"1560 1154 OFFCURVE",
"1576 1132 OFFCURVE",
"1592 1108 CURVE SMOOTH",
"1608 1084 OFFCURVE",
"1618 1060 OFFCURVE",
"1626 1032 CURVE SMOOTH",
"1634 1004 OFFCURVE",
"1638 972 OFFCURVE",
"1638 940 CURVE SMOOTH",
"1638 910 OFFCURVE",
"1634 878 OFFCURVE",
"1626 844 CURVE SMOOTH",
"1618 810 OFFCURVE",
"1606 774 OFFCURVE",
"1590 736 CURVE SMOOTH",
"1574 698 OFFCURVE",
"1552 658 OFFCURVE",
"1528 618 CURVE SMOOTH",
"1504 578 OFFCURVE",
"1476 538 OFFCURVE",
"1442 492 CURVE",
"1434 482 OFFCURVE",
"1424 470 OFFCURVE",
"1414 456 CURVE SMOOTH",
"1404 442 OFFCURVE",
"1390 426 OFFCURVE",
"1380 410 CURVE",
"1366 394 OFFCURVE",
"1354 376 OFFCURVE",
"1340 356 CURVE",
"1320 324 LINE",
"1304 302 OFFCURVE",
"1292 282 OFFCURVE",
"1280 264 CURVE SMOOTH",
"1268 246 OFFCURVE",
"1254 226 OFFCURVE",
"1244 208 CURVE SMOOTH",
"1234 190 OFFCURVE",
"1222 170 OFFCURVE",
"1214 152 CURVE",
"1204 134 OFFCURVE",
"1196 114 OFFCURVE",
"1188 96 CURVE SMOOTH",
"1180 78 OFFCURVE",
"1172 60 OFFCURVE",
"1166 40 CURVE",
"1158 20 OFFCURVE",
"1154 0 OFFCURVE",
"1150 -18 CURVE SMOOTH",
"1148 -28 OFFCURVE",
"1144 -36 OFFCURVE",
"1142 -46 CURVE",
"1136 -64 OFFCURVE",
"1134 -84 OFFCURVE",
"1134 -100 CURVE",
"1132 -118 OFFCURVE",
"1130 -138 OFFCURVE",
"1130 -154 CURVE SMOOTH",
"1130 -178 LINE SMOOTH",
"1130 -182 OFFCURVE",
"1130 -186 OFFCURVE",
"1132 -188 CURVE",
"1132 -200 LINE SMOOTH",
"1132 -206 OFFCURVE",
"1134 -214 OFFCURVE",
"1136 -220 CURVE",
"1136 -230 LINE SMOOTH",
"1136 -234 OFFCURVE",
"1136 -238 OFFCURVE",
"1138 -242 CURVE",
"1140 -258 OFFCURVE",
"1146 -276 OFFCURVE",
"1154 -292 CURVE SMOOTH",
"1162 -308 OFFCURVE",
"1170 -324 OFFCURVE",
"1184 -340 CURVE",
"1198 -358 OFFCURVE",
"1210 -372 OFFCURVE",
"1226 -386 CURVE",
"1242 -402 OFFCURVE",
"1262 -414 OFFCURVE",
"1280 -428 CURVE SMOOTH",
"1298 -442 OFFCURVE",
"1320 -452 OFFCURVE",
"1344 -462 CURVE SMOOTH",
"1366 -472 OFFCURVE",
"1392 -482 OFFCURVE",
"1416 -488 CURVE",
"1442 -496 OFFCURVE",
"1468 -502 OFFCURVE",
"1498 -506 CURVE SMOOTH",
"1528 -510 OFFCURVE",
"1556 -512 OFFCURVE",
"1586 -512 CURVE SMOOTH",
"1632 -512 OFFCURVE",
"1676 -506 OFFCURVE",
"1718 -496 CURVE",
"1758 -488 OFFCURVE",
"1798 -474 OFFCURVE",
"1836 -456 CURVE",
"1856 -444 LINE",
"1868 -438 OFFCURVE",
"1880 -432 OFFCURVE",
"1890 -424 CURVE SMOOTH",
"1900 -416 OFFCURVE",
"1914 -406 OFFCURVE",
"1924 -396 CURVE SMOOTH",
"1938 -382 LINE",
"1944 -378 OFFCURVE",
"1948 -374 OFFCURVE",
"1952 -368 CURVE SMOOTH",
"1956 -362 OFFCURVE",
"1960 -358 OFFCURVE",
"1966 -352 CURVE",
"1974 -342 OFFCURVE",
"1980 -330 OFFCURVE",
"1988 -318 CURVE",
"1994 -306 OFFCURVE",
"2002 -296 OFFCURVE",
"2004 -282 CURVE",
"2010 -268 OFFCURVE",
"2014 -258 OFFCURVE",
"2016 -244 CURVE SMOOTH",
"2018 -230 OFFCURVE",
"2020 -218 OFFCURVE",
"2020 -202 CURVE SMOOTH",
"2020 -180 OFFCURVE",
"2016 -156 OFFCURVE",
"2010 -132 CURVE SMOOTH",
"2004 -108 OFFCURVE",
"1996 -80 OFFCURVE",
"1986 -54 CURVE",
"1878 82 LINE",
"1878 84 LINE",
"1876 84 LINE SMOOTH",
"1874 84 OFFCURVE",
"1874 84 OFFCURVE",
"1872 82 CURVE SMOOTH",
"1870 80 LINE",
"1868 80 OFFCURVE",
"1868 80 OFFCURVE",
"1870 80 CURVE",
"1870 76 LINE",
"1880 50 OFFCURVE",
"1890 24 OFFCURVE",
"1898 0 CURVE",
"1904 -24 OFFCURVE",
"1906 -44 OFFCURVE",
"1906 -66 CURVE SMOOTH",
"1906 -76 OFFCURVE",
"1906 -84 OFFCURVE",
"1904 -94 CURVE",
"1902 -112 OFFCURVE",
"1896 -132 OFFCURVE",
"1888 -148 CURVE",
"1880 -166 OFFCURVE",
"1872 -182 OFFCURVE",
"1860 -196 CURVE",
"1848 -212 OFFCURVE",
"1834 -226 OFFCURVE",
"1820 -238 CURVE SMOOTH",
"1806 -250 OFFCURVE",
"1792 -264 OFFCURVE",
"1776 -272 CURVE",
"1768 -278 OFFCURVE",
"1760 -282 OFFCURVE",
"1752 -286 CURVE",
"1744 -292 OFFCURVE",
"1736 -296 OFFCURVE",
"1728 -300 CURVE",
"1710 -308 OFFCURVE",
"1692 -314 OFFCURVE",
"1676 -318 CURVE SMOOTH",
"1654 -324 LINE SMOOTH",
"1638 -328 OFFCURVE",
"1624 -330 OFFCURVE",
"1610 -330 CURVE SMOOTH",
"1556 -330 OFFCURVE",
"1512 -312 OFFCURVE",
"1482 -278 CURVE SMOOTH",
"1450 -244 OFFCURVE",
"1428 -194 OFFCURVE",
"1420 -124 CURVE",
"1420 -120 LINE",
"1418 -120 OFFCURVE",
"1418 -120 OFFCURVE",
"1418 -118 CURVE SMOOTH",
"1418 -98 LINE SMOOTH",
"1418 -36 OFFCURVE",
"1440 42 OFFCURVE",
"1488 134 CURVE SMOOTH",
"1536 226 OFFCURVE",
"1606 334 OFFCURVE",
"1700 454 CURVE SMOOTH",
"1740 508 OFFCURVE",
"1774 554 OFFCURVE",
"1802 602 CURVE SMOOTH",
"1830 648 OFFCURVE",
"1852 694 OFFCURVE",
"1870 734 CURVE",
"1886 776 OFFCURVE",
"1900 818 OFFCURVE",
"1908 858 CURVE SMOOTH",
"1916 896 OFFCURVE",
"1922 932 OFFCURVE",
"1922 970 CURVE SMOOTH",
"1922 982 OFFCURVE",
"1922 994 OFFCURVE",
"1920 1008 CURVE",
"1918 1032 OFFCURVE",
"1914 1058 OFFCURVE",
"1908 1082 CURVE SMOOTH",
"1902 1106 OFFCURVE",
"1894 1128 OFFCURVE",
"1886 1152 CURVE",
"1876 1174 OFFCURVE",
"1866 1194 OFFCURVE",
"1852 1216 CURVE SMOOTH",
"1838 1238 OFFCURVE",
"1822 1258 OFFCURVE",
"1800 1280 CURVE SMOOTH",
"1778 1302 OFFCURVE",
"1752 1322 OFFCURVE",
"1726 1340 CURVE SMOOTH",
"1700 1358 OFFCURVE",
"1670 1378 OFFCURVE",
"1640 1394 CURVE SMOOTH",
"1610 1410 OFFCURVE",
"1578 1424 OFFCURVE",
"1546 1440 CURVE",
"1514 1454 OFFCURVE",
"1478 1466 OFFCURVE",
"1444 1478 CURVE SMOOTH",
"1410 1490 OFFCURVE",
"1376 1498 OFFCURVE",
"1340 1506 CURVE SMOOTH",
"1304 1514 OFFCURVE",
"1266 1522 OFFCURVE",
"1230 1526 CURVE SMOOTH",
"1176 1532 LINE SMOOTH",
"1142 1536 OFFCURVE",
"1104 1536 OFFCURVE",
"1070 1536 CURVE SMOOTH"
);
},
{
closed = 1;
nodes = (
"528 532 OFFCURVE",
"550 530 OFFCURVE",
"568 524 CURVE SMOOTH",
"586 518 OFFCURVE",
"602 514 OFFCURVE",
"618 508 CURVE",
"634 500 OFFCURVE",
"648 492 OFFCURVE",
"660 484 CURVE",
"666 478 OFFCURVE",
"670 474 OFFCURVE",
"676 470 CURVE",
"686 460 OFFCURVE",
"696 448 OFFCURVE",
"704 438 CURVE SMOOTH",
"712 428 OFFCURVE",
"718 414 OFFCURVE",
"724 404 CURVE",
"730 390 OFFCURVE",
"734 380 OFFCURVE",
"736 368 CURVE SMOOTH",
"738 356 OFFCURVE",
"740 344 OFFCURVE",
"740 330 CURVE SMOOTH",
"740 310 LINE",
"738 296 OFFCURVE",
"734 282 OFFCURVE",
"728 268 CURVE SMOOTH",
"722 254 OFFCURVE",
"714 242 OFFCURVE",
"706 230 CURVE SMOOTH",
"698 218 OFFCURVE",
"688 204 OFFCURVE",
"678 192 CURVE SMOOTH",
"668 180 OFFCURVE",
"656 168 OFFCURVE",
"642 158 CURVE",
"636 152 OFFCURVE",
"628 148 OFFCURVE",
"622 144 CURVE",
"606 136 OFFCURVE",
"588 130 OFFCURVE",
"572 124 CURVE SMOOTH",
"556 118 OFFCURVE",
"538 112 OFFCURVE",
"518 110 CURVE SMOOTH",
"498 108 OFFCURVE",
"478 106 OFFCURVE",
"454 106 CURVE SMOOTH",
"444 106 OFFCURVE",
"436 106 OFFCURVE",
"426 108 CURVE",
"408 108 OFFCURVE",
"392 112 OFFCURVE",
"376 118 CURVE",
"368 120 OFFCURVE",
"360 124 OFFCURVE",
"352 126 CURVE",
"336 132 OFFCURVE",
"324 140 OFFCURVE",
"312 150 CURVE",
"306 154 OFFCURVE",
"300 158 OFFCURVE",
"294 164 CURVE",
"288 168 OFFCURVE",
"282 172 OFFCURVE",
"278 178 CURVE",
"268 188 OFFCURVE",
"258 200 OFFCURVE",
"252 212 CURVE",
"248 218 OFFCURVE",
"244 224 OFFCURVE",
"242 230 CURVE",
"238 236 OFFCURVE",
"234 242 OFFCURVE",
"232 248 CURVE",
"226 262 OFFCURVE",
"222 274 OFFCURVE",
"220 288 CURVE SMOOTH",
"218 302 OFFCURVE",
"216 314 OFFCURVE",
"216 328 CURVE SMOOTH",
"216 334 OFFCURVE",
"216 342 OFFCURVE",
"218 348 CURVE",
"218 360 OFFCURVE",
"222 372 OFFCURVE",
"226 384 CURVE SMOOTH",
"228 390 OFFCURVE",
"228 396 OFFCURVE",
"230 402 CURVE",
"236 412 OFFCURVE",
"242 426 OFFCURVE",
"250 436 CURVE SMOOTH",
"262 452 LINE SMOOTH",
"270 462 OFFCURVE",
"282 474 OFFCURVE",
"294 482 CURVE SMOOTH",
"306 490 OFFCURVE",
"318 498 OFFCURVE",
"334 506 CURVE",
"340 508 OFFCURVE",
"348 512 OFFCURVE",
"356 516 CURVE",
"372 522 OFFCURVE",
"390 526 OFFCURVE",
"410 530 CURVE SMOOTH",
"430 534 OFFCURVE",
"450 534 OFFCURVE",
"472 534 CURVE SMOOTH",
"506 534 LINE"
);
}
);
width = 2048;
}
);
unicode = 264C;
},
{
glyphname = virgo;
lastChange = "2014-09-19 13:45:38 +0000";
layers = (
{
layerId = "C6537DE0-68DF-4C5B-B6D5-25B465FDDD7D";
name = Regular;
paths = (
{
closed = 1;
nodes = (
"1632 344 LINE",
"1630 344 OFFCURVE",
"1630 344 OFFCURVE",
"1630 346 CURVE SMOOTH",
"1630 348 LINE",
"1628 348 OFFCURVE",
"1628 348 OFFCURVE",
"1628 350 CURVE SMOOTH",
"1628 352 LINE",
"1626 352 OFFCURVE",
"1624 348 OFFCURVE",
"1624 348 CURVE",
"1624 346 LINE",
"1622 344 LINE"
);
},
{
closed = 1;
nodes = (
"1490 912 LINE SMOOTH",
"1490 916 OFFCURVE",
"1490 920 OFFCURVE",
"1492 926 CURVE",
"1492 940 LINE SMOOTH",
"1492 944 OFFCURVE",
"1492 948 OFFCURVE",
"1494 954 CURVE",
"1494 958 OFFCURVE",
"1494 962 OFFCURVE",
"1496 968 CURVE",
"1496 976 OFFCURVE",
"1498 984 OFFCURVE",
"1500 992 CURVE",
"1502 996 OFFCURVE",
"1502 1000 OFFCURVE",
"1504 1004 CURVE",
"1512 1034 OFFCURVE",
"1520 1058 OFFCURVE",
"1530 1082 CURVE",
"1538 1104 OFFCURVE",
"1546 1122 OFFCURVE",
"1560 1138 CURVE",
"1570 1152 OFFCURVE",
"1582 1164 OFFCURVE",
"1594 1172 CURVE SMOOTH",
"1606 1180 OFFCURVE",
"1616 1182 OFFCURVE",
"1630 1182 CURVE SMOOTH",
"1648 1182 OFFCURVE",
"1664 1178 OFFCURVE",
"1680 1168 CURVE",
"1694 1158 OFFCURVE",
"1710 1142 OFFCURVE",
"1720 1120 CURVE",
"1734 1098 OFFCURVE",
"1746 1076 OFFCURVE",
"1756 1046 CURVE SMOOTH",
"1766 1014 OFFCURVE",
"1774 982 OFFCURVE",
"1782 944 CURVE",
"1784 936 OFFCURVE",
"1786 930 OFFCURVE",
"1786 924 CURVE SMOOTH",
"1786 920 OFFCURVE",
"1786 916 OFFCURVE",
"1788 914 CURVE",
"1788 902 LINE SMOOTH",
"1788 900 OFFCURVE",
"1788 896 OFFCURVE",
"1790 894 CURVE",
"1790 862 LINE SMOOTH",
"1790 828 OFFCURVE",
"1786 792 OFFCURVE",
"1780 754 CURVE",
"1772 714 OFFCURVE",
"1764 674 OFFCURVE",
"1748 632 CURVE",
"1734 590 OFFCURVE",
"1720 546 OFFCURVE",
"1698 500 CURVE SMOOTH",
"1676 452 OFFCURVE",
"1654 402 OFFCURVE",
"1628 352 CURVE",
"1580 470 OFFCURVE",
"1548 572 OFFCURVE",
"1526 662 CURVE SMOOTH",
"1502 752 OFFCURVE",
"1490 830 OFFCURVE",
"1490 896 CURVE SMOOTH"
);
},
{
closed = 1;
nodes = (
"2014 -512 LINE SMOOTH",
"2014 -512 OFFCURVE",
"2016 -510 OFFCURVE",
"2016 -508 CURVE SMOOTH",
"2016 -506 OFFCURVE",
"2016 -506 OFFCURVE",
"2014 -504 CURVE",
"2014 -502 OFFCURVE",
"2014 -498 OFFCURVE",
"2012 -496 CURVE",
"2010 -490 OFFCURVE",
"2006 -484 OFFCURVE",
"2006 -478 CURVE",
"2004 -472 OFFCURVE",
"2000 -466 OFFCURVE",
"1998 -460 CURVE",
"1996 -458 OFFCURVE",
"1996 -454 OFFCURVE",
"1996 -452 CURVE",
"1994 -446 OFFCURVE",
"1990 -440 OFFCURVE",
"1988 -434 CURVE",
"1976 -402 LINE SMOOTH",
"1972 -392 OFFCURVE",
"1968 -384 OFFCURVE",
"1966 -374 CURVE",
"1962 -364 OFFCURVE",
"1958 -356 OFFCURVE",
"1956 -346 CURVE",
"1948 -330 OFFCURVE",
"1942 -314 OFFCURVE",
"1936 -298 CURVE",
"1932 -290 OFFCURVE",
"1928 -282 OFFCURVE",
"1926 -274 CURVE SMOOTH",
"1924 -266 OFFCURVE",
"1920 -258 OFFCURVE",
"1918 -250 CURVE",
"1914 -244 OFFCURVE",
"1910 -236 OFFCURVE",
"1908 -230 CURVE",
"1906 -222 OFFCURVE",
"1902 -214 OFFCURVE",
"1900 -206 CURVE",
"1892 -192 OFFCURVE",
"1888 -180 OFFCURVE",
"1882 -164 CURVE",
"1880 -158 OFFCURVE",
"1876 -150 OFFCURVE",
"1872 -144 CURVE",
"1870 -138 OFFCURVE",
"1866 -130 OFFCURVE",
"1864 -122 CURVE",
"1846 -78 LINE",
"1838 -64 OFFCURVE",
"1832 -50 OFFCURVE",
"1824 -34 CURVE SMOOTH",
"1820 -26 OFFCURVE",
"1816 -18 OFFCURVE",
"1814 -10 CURVE",
"1790 42 LINE",
"1778 70 LINE",
"1772 80 OFFCURVE",
"1768 90 OFFCURVE",
"1764 100 CURVE",
"1754 120 OFFCURVE",
"1742 140 OFFCURVE",
"1732 162 CURVE",
"1742 184 OFFCURVE",
"1750 204 OFFCURVE",
"1758 224 CURVE SMOOTH",
"1766 244 OFFCURVE",
"1774 264 OFFCURVE",
"1784 284 CURVE",
"1808 344 LINE",
"1816 362 OFFCURVE",
"1824 382 OFFCURVE",
"1834 400 CURVE",
"1850 440 OFFCURVE",
"1868 476 OFFCURVE",
"1886 516 CURVE",
"1896 534 OFFCURVE",
"1904 554 OFFCURVE",
"1914 574 CURVE",
"1922 592 OFFCURVE",
"1932 612 OFFCURVE",
"1942 632 CURVE SMOOTH",
"1960 670 OFFCURVE",
"1978 712 OFFCURVE",
"1988 756 CURVE",
"1996 800 OFFCURVE",
"2002 846 OFFCURVE",
"2002 894 CURVE SMOOTH",
"2002 918 OFFCURVE",
"2000 942 OFFCURVE",
"1998 968 CURVE SMOOTH",
"1996 992 OFFCURVE",
"1992 1018 OFFCURVE",
"1986 1044 CURVE SMOOTH",
"1980 1070 OFFCURVE",
"1976 1096 OFFCURVE",
"1968 1122 CURVE SMOOTH",
"1960 1148 OFFCURVE",
"1952 1176 OFFCURVE",
"1942 1202 CURVE",
"1932 1232 OFFCURVE",
"1918 1260 OFFCURVE",
"1902 1286 CURVE",
"1884 1310 OFFCURVE",
"1862 1336 OFFCURVE",
"1838 1360 CURVE",
"1816 1384 OFFCURVE",
"1788 1406 OFFCURVE",
"1758 1426 CURVE SMOOTH",
"1728 1446 OFFCURVE",
"1696 1464 OFFCURVE",
"1658 1482 CURVE SMOOTH",
"1620 1500 OFFCURVE",
"1584 1514 OFFCURVE",
"1548 1524 CURVE",
"1512 1532 OFFCURVE",
"1474 1536 OFFCURVE",
"1442 1536 CURVE SMOOTH",
"1422 1536 LINE",
"1380 1530 LINE",
"1374 1528 OFFCURVE",
"1366 1528 OFFCURVE",
"1358 1526 CURVE",
"1344 1524 OFFCURVE",
"1332 1520 OFFCURVE",
"1320 1514 CURVE",
"1300 1506 LINE SMOOTH",
"1286 1500 OFFCURVE",
"1276 1494 OFFCURVE",
"1264 1488 CURVE",
"1230 1464 LINE",
"1218 1454 OFFCURVE",
"1208 1444 OFFCURVE",
"1198 1434 CURVE SMOOTH",
"1188 1424 OFFCURVE",
"1180 1414 OFFCURVE",
"1172 1402 CURVE SMOOTH",
"1160 1384 LINE",
"1158 1390 OFFCURVE",
"1154 1396 OFFCURVE",
"1152 1402 CURVE",
"1146 1414 OFFCURVE",
"1140 1424 OFFCURVE",
"1132 1434 CURVE SMOOTH",
"1124 1444 OFFCURVE",
"1114 1454 OFFCURVE",
"1104 1462 CURVE SMOOTH",
"1094 1470 OFFCURVE",
"1084 1476 OFFCURVE",
"1072 1484 CURVE",
"1060 1490 OFFCURVE",
"1048 1498 OFFCURVE",
"1034 1502 CURVE SMOOTH",
"1014 1508 LINE",
"992 1514 LINE",
"976 1516 OFFCURVE",
"960 1520 OFFCURVE",
"944 1522 CURVE SMOOTH",
"928 1524 OFFCURVE",
"912 1526 OFFCURVE",
"896 1526 CURVE SMOOTH",
"824 1526 LINE",
"808 1524 OFFCURVE",
"792 1520 OFFCURVE",
"776 1518 CURVE SMOOTH",
"760 1516 OFFCURVE",
"746 1512 OFFCURVE",
"732 1506 CURVE",
"710 1500 LINE SMOOTH",
"694 1496 OFFCURVE",
"680 1488 OFFCURVE",
"666 1482 CURVE",
"652 1474 OFFCURVE",
"640 1468 OFFCURVE",
"628 1460 CURVE SMOOTH",
"616 1452 OFFCURVE",
"602 1442 OFFCURVE",
"592 1434 CURVE",
"582 1424 OFFCURVE",
"572 1412 OFFCURVE",
"566 1402 CURVE",
"554 1386 LINE",
"548 1400 OFFCURVE",
"544 1414 OFFCURVE",
"538 1424 CURVE",
"530 1434 OFFCURVE",
"524 1446 OFFCURVE",
"516 1456 CURVE",
"492 1480 LINE SMOOTH",
"484 1488 OFFCURVE",
"474 1492 OFFCURVE",
"464 1498 CURVE SMOOTH",
"454 1504 OFFCURVE",
"442 1510 OFFCURVE",
"432 1512 CURVE",
"414 1518 LINE",
"400 1522 OFFCURVE",
"390 1522 OFFCURVE",
"376 1524 CURVE",
"362 1524 OFFCURVE",
"348 1526 OFFCURVE",
"334 1526 CURVE SMOOTH",
"284 1526 LINE SMOOTH",
"276 1526 OFFCURVE",
"268 1526 OFFCURVE",
"260 1524 CURVE",
"242 1522 OFFCURVE",
"224 1520 OFFCURVE",
"208 1514 CURVE",
"192 1512 OFFCURVE",
"176 1506 OFFCURVE",
"162 1500 CURVE",
"146 1492 OFFCURVE",
"132 1486 OFFCURVE",
"118 1478 CURVE",
"108 1470 OFFCURVE",
"94 1460 OFFCURVE",
"84 1450 CURVE SMOOTH",
"74 1440 OFFCURVE",
"64 1430 OFFCURVE",
"56 1416 CURVE",
"48 1406 OFFCURVE",
"44 1392 OFFCURVE",
"40 1378 CURVE SMOOTH",
"36 1364 OFFCURVE",
"32 1350 OFFCURVE",
"32 1334 CURVE SMOOTH",
"32 1332 LINE SMOOTH",
"32 1330 OFFCURVE",
"32 1330 OFFCURVE",
"34 1330 CURVE SMOOTH",
"36 1330 LINE",
"36 1328 LINE",
"40 1328 LINE",
"42 1330 LINE",
"58 1354 LINE",
"60 1358 OFFCURVE",
"64 1362 OFFCURVE",
"66 1364 CURVE SMOOTH",
"74 1372 LINE",
"80 1380 LINE",
"88 1388 LINE",
"106 1400 LINE",
"110 1402 OFFCURVE",
"112 1404 OFFCURVE",
"118 1406 CURVE",
"120 1406 OFFCURVE",
"122 1406 OFFCURVE",
"124 1408 CURVE",
"126 1408 OFFCURVE",
"130 1408 OFFCURVE",
"132 1410 CURVE",
"172 1410 LINE",
"176 1408 OFFCURVE",
"180 1408 OFFCURVE",
"186 1408 CURVE",
"194 1406 OFFCURVE",
"204 1402 OFFCURVE",
"212 1396 CURVE",
"220 1394 OFFCURVE",
"228 1388 OFFCURVE",
"236 1382 CURVE",
"238 1378 OFFCURVE",
"242 1374 OFFCURVE",
"246 1372 CURVE",
"262 1350 LINE SMOOTH",
"268 1342 OFFCURVE",
"272 1334 OFFCURVE",
"276 1326 CURVE",
"280 1316 OFFCURVE",
"282 1306 OFFCURVE",
"284 1296 CURVE SMOOTH",
"286 1286 OFFCURVE",
"288 1276 OFFCURVE",
"288 1266 CURVE SMOOTH",
"288 -304 LINE",
"290 -304 LINE",
"290 -306 LINE SMOOTH",
"290 -308 OFFCURVE",
"290 -308 OFFCURVE",
"292 -308 CURVE SMOOTH",
"566 -308 LINE SMOOTH",
"566 -308 OFFCURVE",
"568 -306 OFFCURVE",
"568 -304 CURVE SMOOTH",
"568 1250 LINE SMOOTH",
"568 1274 OFFCURVE",
"572 1294 OFFCURVE",
"578 1312 CURVE",
"584 1328 OFFCURVE",
"592 1344 OFFCURVE",
"606 1358 CURVE SMOOTH",
"620 1372 OFFCURVE",
"636 1380 OFFCURVE",
"656 1388 CURVE",
"676 1394 OFFCURVE",
"700 1396 OFFCURVE",
"726 1396 CURVE SMOOTH",
"756 1396 OFFCURVE",
"780 1394 OFFCURVE",
"800 1388 CURVE SMOOTH",
"820 1382 OFFCURVE",
"834 1372 OFFCURVE",
"848 1362 CURVE",
"858 1352 OFFCURVE",
"866 1334 OFFCURVE",
"874 1316 CURVE",
"880 1298 OFFCURVE",
"882 1276 OFFCURVE",
"882 1250 CURVE SMOOTH",
"882 -304 LINE SMOOTH",
"882 -306 OFFCURVE",
"884 -308 OFFCURVE",
"886 -308 CURVE SMOOTH",
"1160 -308 LINE SMOOTH",
"1160 -308 OFFCURVE",
"1162 -306 OFFCURVE",
"1162 -304 CURVE SMOOTH",
"1162 1250 LINE SMOOTH",
"1162 1260 OFFCURVE",
"1164 1270 OFFCURVE",
"1166 1280 CURVE SMOOTH",
"1168 1290 OFFCURVE",
"1170 1300 OFFCURVE",
"1176 1308 CURVE",
"1178 1316 OFFCURVE",
"1184 1324 OFFCURVE",
"1192 1332 CURVE",
"1194 1336 OFFCURVE",
"1198 1340 OFFCURVE",
"1202 1344 CURVE",
"1208 1352 OFFCURVE",
"1214 1358 OFFCURVE",
"1224 1364 CURVE",
"1228 1366 OFFCURVE",
"1232 1370 OFFCURVE",
"1238 1372 CURVE",
"1242 1374 OFFCURVE",
"1246 1378 OFFCURVE",
"1252 1380 CURVE",
"1260 1384 OFFCURVE",
"1272 1388 OFFCURVE",
"1284 1390 CURVE",
"1290 1392 OFFCURVE",
"1296 1392 OFFCURVE",
"1302 1394 CURVE SMOOTH",
"1308 1396 OFFCURVE",
"1314 1396 OFFCURVE",
"1320 1396 CURVE SMOOTH",
"1358 1396 LINE",
"1366 1394 OFFCURVE",
"1376 1392 OFFCURVE",
"1386 1392 CURVE",
"1402 1388 LINE",
"1406 1386 OFFCURVE",
"1410 1386 OFFCURVE",
"1416 1384 CURVE",
"1426 1382 OFFCURVE",
"1436 1378 OFFCURVE",
"1444 1376 CURVE",
"1454 1374 OFFCURVE",
"1464 1370 OFFCURVE",
"1472 1366 CURVE SMOOTH",
"1484 1360 LINE SMOOTH",
"1492 1356 OFFCURVE",
"1498 1350 OFFCURVE",
"1504 1344 CURVE SMOOTH",
"1512 1336 LINE",
"1516 1330 OFFCURVE",
"1518 1326 OFFCURVE",
"1518 1320 CURVE",
"1506 1316 OFFCURVE",
"1494 1312 OFFCURVE",
"1484 1310 CURVE",
"1454 1298 LINE",
"1434 1288 OFFCURVE",
"1416 1276 OFFCURVE",
"1400 1266 CURVE SMOOTH",
"1384 1256 OFFCURVE",
"1370 1242 OFFCURVE",
"1358 1228 CURVE SMOOTH",
"1346 1214 OFFCURVE",
"1334 1200 OFFCURVE",
"1324 1184 CURVE",
"1316 1168 OFFCURVE",
"1308 1152 OFFCURVE",
"1302 1134 CURVE",
"1294 1116 OFFCURVE",
"1288 1098 OFFCURVE",
"1286 1076 CURVE",
"1280 1058 OFFCURVE",
"1278 1036 OFFCURVE",
"1278 1014 CURVE",
"1276 992 OFFCURVE",
"1274 972 OFFCURVE",
"1274 948 CURVE SMOOTH",
"1274 938 OFFCURVE",
"1274 930 OFFCURVE",
"1276 920 CURVE",
"1276 910 OFFCURVE",
"1276 902 OFFCURVE",
"1278 892 CURVE",
"1278 882 OFFCURVE",
"1278 872 OFFCURVE",
"1280 862 CURVE",
"1280 842 OFFCURVE",
"1284 822 OFFCURVE",
"1288 800 CURVE SMOOTH",
"1290 790 OFFCURVE",
"1290 780 OFFCURVE",
"1292 770 CURVE",
"1294 750 OFFCURVE",
"1300 728 OFFCURVE",
"1306 706 CURVE",
"1308 696 OFFCURVE",
"1310 684 OFFCURVE",
"1314 674 CURVE",
"1322 642 LINE",
"1324 632 OFFCURVE",
"1328 620 OFFCURVE",
"1332 610 CURVE",
"1338 588 OFFCURVE",
"1344 568 OFFCURVE",
"1352 546 CURVE SMOOTH",
"1364 514 LINE",
"1366 504 OFFCURVE",
"1370 494 OFFCURVE",
"1374 484 CURVE SMOOTH",
"1386 452 LINE",
"1404 410 LINE",
"1414 384 OFFCURVE",
"1428 356 OFFCURVE",
"1440 330 CURVE SMOOTH",
"1446 316 OFFCURVE",
"1450 304 OFFCURVE",
"1456 292 CURVE SMOOTH",
"1474 254 LINE SMOOTH",
"1480 242 OFFCURVE",
"1486 230 OFFCURVE",
"1492 220 CURVE SMOOTH",
"1498 210 OFFCURVE",
"1502 198 OFFCURVE",
"1508 188 CURVE",
"1524 158 LINE",
"1518 140 LINE",
"1514 134 OFFCURVE",
"1510 126 OFFCURVE",
"1508 120 CURVE",
"1500 104 OFFCURVE",
"1492 86 OFFCURVE",
"1484 64 CURVE",
"1478 54 OFFCURVE",
"1474 42 OFFCURVE",
"1470 32 CURVE",
"1464 22 OFFCURVE",
"1460 10 OFFCURVE",
"1454 -2 CURVE SMOOTH",
"1448 -14 OFFCURVE",
"1444 -26 OFFCURVE",
"1438 -38 CURVE",
"1428 -62 OFFCURVE",
"1416 -88 OFFCURVE",
"1408 -110 CURVE",
"1402 -122 OFFCURVE",
"1398 -134 OFFCURVE",
"1392 -146 CURVE SMOOTH",
"1386 -158 OFFCURVE",
"1382 -170 OFFCURVE",
"1378 -182 CURVE",
"1368 -206 OFFCURVE",
"1356 -230 OFFCURVE",
"1346 -252 CURVE",
"1340 -264 OFFCURVE",
"1336 -276 OFFCURVE",
"1332 -286 CURVE",
"1322 -308 OFFCURVE",
"1312 -328 OFFCURVE",
"1304 -350 CURVE SMOOTH",
"1292 -380 LINE",
"1278 -406 LINE SMOOTH",
"1270 -422 OFFCURVE",
"1264 -438 OFFCURVE",
"1258 -452 CURVE",
"1242 -486 LINE SMOOTH",
"1238 -494 OFFCURVE",
"1232 -502 OFFCURVE",
"1230 -504 CURVE",
"1230 -508 LINE SMOOTH",
"1230 -510 OFFCURVE",
"1234 -512 OFFCURVE",
"1236 -512 CURVE SMOOTH",
"1410 -512 LINE",
"1414 -508 LINE",
"1426 -492 LINE SMOOTH",
"1432 -484 OFFCURVE",
"1436 -476 OFFCURVE",
"1442 -466 CURVE",
"1444 -460 OFFCURVE",
"1448 -456 OFFCURVE",
"1452 -450 CURVE",
"1454 -444 OFFCURVE",
"1458 -438 OFFCURVE",
"1462 -432 CURVE",
"1464 -426 OFFCURVE",
"1468 -420 OFFCURVE",
"1472 -414 CURVE",
"1474 -408 OFFCURVE",
"1478 -400 OFFCURVE",
"1482 -392 CURVE",
"1486 -386 OFFCURVE",
"1490 -378 OFFCURVE",
"1494 -370 CURVE",
"1496 -364 OFFCURVE",
"1500 -356 OFFCURVE",
"1504 -348 CURVE",
"1508 -342 OFFCURVE",
"1512 -334 OFFCURVE",
"1516 -326 CURVE SMOOTH",
"1540 -276 LINE",
"1542 -268 OFFCURVE",
"1546 -260 OFFCURVE",
"1550 -252 CURVE SMOOTH",
"1574 -202 LINE",
"1576 -194 OFFCURVE",
"1580 -186 OFFCURVE",
"1584 -178 CURVE SMOOTH",
"1592 -162 OFFCURVE",
"1598 -146 OFFCURVE",
"1604 -130 CURVE",
"1606 -124 OFFCURVE",
"1610 -116 OFFCURVE",
"1614 -108 CURVE",
"1620 -94 OFFCURVE",
"1626 -78 OFFCURVE",
"1630 -66 CURVE SMOOTH",
"1636 -48 LINE",
"1644 -70 OFFCURVE",
"1652 -90 OFFCURVE",
"1662 -112 CURVE",
"1674 -144 LINE",
"1682 -168 OFFCURVE",
"1690 -190 OFFCURVE",
"1700 -214 CURVE",
"1712 -250 LINE",
"1716 -264 OFFCURVE",
"1720 -276 OFFCURVE",
"1726 -288 CURVE",
"1734 -314 OFFCURVE",
"1744 -340 OFFCURVE",
"1754 -364 CURVE",
"1762 -388 OFFCURVE",
"1770 -410 OFFCURVE",
"1778 -428 CURVE",
"1784 -446 OFFCURVE",
"1790 -464 OFFCURVE",
"1796 -476 CURVE",
"1798 -482 OFFCURVE",
"1802 -488 OFFCURVE",
"1804 -494 CURVE",
"1808 -504 OFFCURVE",
"1812 -510 OFFCURVE",
"1814 -512 CURVE"
);
}
);
width = 2048;
}
);
unicode = 264D;
},
{
glyphname = libra;
lastChange = "2014-09-19 13:45:34 +0000";
layers = (
{
layerId = "C6537DE0-68DF-4C5B-B6D5-25B465FDDD7D";
name = Regular;
paths = (
{
closed = 1;
nodes = (
"946 1536 OFFCURVE",
"882 1532 OFFCURVE",
"820 1526 CURVE SMOOTH",
"758 1518 OFFCURVE",
"702 1506 OFFCURVE",
"648 1492 CURVE",
"598 1476 OFFCURVE",
"550 1458 OFFCURVE",
"506 1438 CURVE SMOOTH",
"462 1418 OFFCURVE",
"422 1392 OFFCURVE",
"388 1366 CURVE SMOOTH",
"354 1340 OFFCURVE",
"322 1310 OFFCURVE",
"296 1278 CURVE SMOOTH",
"270 1246 OFFCURVE",
"248 1212 OFFCURVE",
"232 1174 CURVE",
"214 1140 OFFCURVE",
"200 1100 OFFCURVE",
"192 1060 CURVE SMOOTH",
"184 1018 OFFCURVE",
"180 978 OFFCURVE",
"180 932 CURVE SMOOTH",
"180 876 OFFCURVE",
"186 818 OFFCURVE",
"200 756 CURVE SMOOTH",
"214 694 OFFCURVE",
"234 632 OFFCURVE",
"264 568 CURVE",
"290 506 OFFCURVE",
"328 440 OFFCURVE",
"370 376 CURVE",
"410 310 OFFCURVE",
"460 244 OFFCURVE",
"516 174 CURVE",
"4 174 LINE SMOOTH",
"2 174 OFFCURVE",
"0 172 OFFCURVE",
"0 172 CURVE",
"0 -58 LINE SMOOTH",
"0 -60 OFFCURVE",
"0 -60 OFFCURVE",
"2 -60 CURVE SMOOTH",
"4 -60 LINE",
"4 -62 OFFCURVE",
"4 -62 OFFCURVE",
"6 -62 CURVE SMOOTH",
"782 -62 LINE SMOOTH",
"784 -62 OFFCURVE",
"784 -62 OFFCURVE",
"786 -60 CURVE",
"788 -60 LINE",
"788 172 LINE",
"774 190 OFFCURVE",
"760 206 OFFCURVE",
"748 222 CURVE",
"722 254 OFFCURVE",
"698 284 OFFCURVE",
"676 316 CURVE SMOOTH",
"654 346 OFFCURVE",
"634 374 OFFCURVE",
"618 404 CURVE",
"600 434 OFFCURVE",
"584 462 OFFCURVE",
"570 490 CURVE SMOOTH",
"556 518 OFFCURVE",
"544 546 OFFCURVE",
"534 572 CURVE",
"528 586 OFFCURVE",
"524 598 OFFCURVE",
"520 612 CURVE SMOOTH",
"512 638 OFFCURVE",
"506 664 OFFCURVE",
"500 690 CURVE",
"498 704 OFFCURVE",
"494 716 OFFCURVE",
"492 730 CURVE SMOOTH",
"486 768 LINE",
"484 792 OFFCURVE",
"482 818 OFFCURVE",
"482 842 CURVE SMOOTH",
"482 856 OFFCURVE",
"482 868 OFFCURVE",
"484 880 CURVE SMOOTH",
"486 892 OFFCURVE",
"486 904 OFFCURVE",
"488 916 CURVE SMOOTH",
"494 952 LINE SMOOTH",
"498 974 OFFCURVE",
"504 998 OFFCURVE",
"512 1018 CURVE SMOOTH",
"524 1048 LINE SMOOTH",
"528 1058 OFFCURVE",
"532 1068 OFFCURVE",
"538 1078 CURVE SMOOTH",
"554 1106 LINE",
"572 1134 LINE",
"584 1150 OFFCURVE",
"596 1168 OFFCURVE",
"610 1184 CURVE SMOOTH",
"624 1200 OFFCURVE",
"638 1214 OFFCURVE",
"654 1228 CURVE SMOOTH",
"670 1242 OFFCURVE",
"688 1256 OFFCURVE",
"706 1266 CURVE",
"730 1284 LINE",
"766 1302 LINE SMOOTH",
"790 1314 OFFCURVE",
"812 1322 OFFCURVE",
"836 1332 CURVE",
"860 1340 OFFCURVE",
"886 1346 OFFCURVE",
"910 1352 CURVE",
"922 1354 OFFCURVE",
"934 1358 OFFCURVE",
"946 1360 CURVE SMOOTH",
"970 1364 OFFCURVE",
"994 1364 OFFCURVE",
"1018 1364 CURVE SMOOTH",
"1054 1364 LINE",
"1078 1362 OFFCURVE",
"1102 1358 OFFCURVE",
"1126 1352 CURVE",
"1138 1350 OFFCURVE",
"1150 1346 OFFCURVE",
"1162 1344 CURVE",
"1186 1336 OFFCURVE",
"1210 1326 OFFCURVE",
"1234 1316 CURVE SMOOTH",
"1258 1306 OFFCURVE",
"1282 1294 OFFCURVE",
"1306 1278 CURVE",
"1334 1262 LINE",
"1342 1256 OFFCURVE",
"1350 1250 OFFCURVE",
"1360 1244 CURVE",
"1368 1238 OFFCURVE",
"1376 1230 OFFCURVE",
"1386 1224 CURVE",
"1432 1178 LINE",
"1452 1154 LINE SMOOTH",
"1466 1138 OFFCURVE",
"1480 1118 OFFCURVE",
"1490 1100 CURVE SMOOTH",
"1506 1072 LINE SMOOTH",
"1512 1062 OFFCURVE",
"1516 1052 OFFCURVE",
"1520 1042 CURVE SMOOTH",
"1532 1010 LINE SMOOTH",
"1536 1000 OFFCURVE",
"1540 988 OFFCURVE",
"1542 978 CURVE",
"1548 956 OFFCURVE",
"1554 934 OFFCURVE",
"1556 910 CURVE SMOOTH",
"1558 886 OFFCURVE",
"1560 862 OFFCURVE",
"1560 836 CURVE SMOOTH",
"1560 800 LINE",
"1558 774 OFFCURVE",
"1556 748 OFFCURVE",
"1552 722 CURVE SMOOTH",
"1548 696 OFFCURVE",
"1542 670 OFFCURVE",
"1534 644 CURVE SMOOTH",
"1526 618 OFFCURVE",
"1516 590 OFFCURVE",
"1506 564 CURVE SMOOTH",
"1496 538 OFFCURVE",
"1482 512 OFFCURVE",
"1468 484 CURVE",
"1452 456 OFFCURVE",
"1434 428 OFFCURVE",
"1416 400 CURVE",
"1406 386 OFFCURVE",
"1398 370 OFFCURVE",
"1388 356 CURVE SMOOTH",
"1366 326 OFFCURVE",
"1344 296 OFFCURVE",
"1320 266 CURVE",
"1294 236 OFFCURVE",
"1266 206 OFFCURVE",
"1236 174 CURVE",
"1236 -56 LINE SMOOTH",
"1236 -58 OFFCURVE",
"1236 -58 OFFCURVE",
"1238 -58 CURVE",
"1238 -60 LINE",
"1240 -60 LINE",
"1240 -62 OFFCURVE",
"1240 -62 OFFCURVE",
"1242 -62 CURVE SMOOTH",
"2042 -62 LINE SMOOTH",
"2044 -62 OFFCURVE",
"2044 -62 OFFCURVE",
"2046 -60 CURVE",
"2048 -60 LINE",
"2048 172 LINE",
"2046 174 LINE",
"1526 174 LINE",
"1580 244 OFFCURVE",
"1628 308 OFFCURVE",
"1670 374 CURVE SMOOTH",
"1710 440 OFFCURVE",
"1746 504 OFFCURVE",
"1772 568 CURVE",
"1802 632 OFFCURVE",
"1820 692 OFFCURVE",
"1834 754 CURVE SMOOTH",
"1848 816 OFFCURVE",
"1856 874 OFFCURVE",
"1856 930 CURVE SMOOTH",
"1856 976 OFFCURVE",
"1850 1016 OFFCURVE",
"1842 1056 CURVE SMOOTH",
"1834 1096 OFFCURVE",
"1822 1134 OFFCURVE",
"1804 1172 CURVE SMOOTH",
"1788 1206 OFFCURVE",
"1766 1242 OFFCURVE",
"1742 1274 CURVE",
"1716 1306 OFFCURVE",
"1684 1336 OFFCURVE",
"1652 1362 CURVE",
"1618 1392 OFFCURVE",
"1576 1414 OFFCURVE",
"1534 1436 CURVE SMOOTH",
"1492 1458 OFFCURVE",
"1444 1474 OFFCURVE",
"1390 1490 CURVE SMOOTH",
"1336 1506 OFFCURVE",
"1280 1516 OFFCURVE",
"1218 1524 CURVE SMOOTH",
"1156 1532 OFFCURVE",
"1090 1536 OFFCURVE",
"1018 1536 CURVE SMOOTH"
);
},
{
closed = 1;
nodes = (
"4 -298 LINE",
"2 -300 LINE",
"0 -300 LINE",
"0 -508 LINE SMOOTH",
"0 -510 OFFCURVE",
"2 -512 OFFCURVE",
"4 -512 CURVE SMOOTH",
"2046 -512 LINE SMOOTH",
"2046 -512 OFFCURVE",
"2048 -510 OFFCURVE",
"2048 -508 CURVE SMOOTH",
"2048 -300 LINE",
"2046 -300 OFFCURVE",
"2046 -300 OFFCURVE",
"2046 -298 CURVE"
);
}
);
width = 2048;
}
);
unicode = 264E;
},
{
glyphname = scorpius;
lastChange = "2014-09-19 13:45:38 +0000";
layers = (
{
layerId = "C6537DE0-68DF-4C5B-B6D5-25B465FDDD7D";
name = Regular;
paths = (
{
closed = 1;
nodes = (
"1373.66 225.28 LINE",
"1373.66 225.28 OFFCURVE",
"1371.66 223.282 OFFCURVE",
"1371.66 225.28 CURVE",
"1369.66 225.28 LINE",
"1367.66 223.282 OFFCURVE",
"1367.66 223.282 OFFCURVE",
"1367.66 225.28 CURVE",
"1365.67 223.282 OFFCURVE",
"1365.67 223.282 OFFCURVE",
"1365.67 225.28 CURVE SMOOTH",
"1365.67 227.278 LINE",
"1363.67 225.28 OFFCURVE",
"1363.67 225.28 OFFCURVE",
"1363.67 227.278 CURVE SMOOTH",
"1363.67 229.276 OFFCURVE",
"1363.67 229.276 OFFCURVE",
"1365.67 229.276 CURVE",
"1627.41 1114.41 LINE",
"1629.41 1116.41 LINE",
"1629.41 1116.41 OFFCURVE",
"1631.41 1118.41 OFFCURVE",
"1631.41 1116.41 CURVE",
"1633.4 1118.41 LINE",
"1633.4 1116.41 OFFCURVE",
"1633.4 1116.41 OFFCURVE",
"1635.4 1118.41 CURVE",
"1637.4 1116.41 LINE",
"1637.4 1114.41 OFFCURVE",
"1637.4 1114.41 OFFCURVE",
"1637.4 1116.41 CURVE",
"1957.09 227.278 LINE",
"1957.09 229.276 OFFCURVE",
"1957.09 229.276 OFFCURVE",
"1957.09 227.278 CURVE SMOOTH",
"1957.09 223.282 LINE",
"1955.09 221.284 OFFCURVE",
"1955.09 221.284 OFFCURVE",
"1955.09 223.282 CURVE",
"1953.09 221.284 OFFCURVE",
"1953.09 221.284 OFFCURVE",
"1953.09 223.282 CURVE",
"1951.09 223.282 LINE",
"1949.1 221.284 OFFCURVE",
"1949.1 221.284 OFFCURVE",
"1949.1 223.282 CURVE",
"1947.1 223.282 LINE",
"1723.32 497.015 LINE",
"1737.3 415.095 OFFCURVE",
"1745.3 345.163 OFFCURVE",
"1753.29 275.231 CURVE SMOOTH",
"1761.28 203.302 OFFCURVE",
"1763.28 143.36 OFFCURVE",
"1763.28 81.4199 CURVE SMOOTH",
"1763.28 43.457 OFFCURVE",
"1761.28 5.49414 OFFCURVE",
"1759.28 -26 CURVE SMOOTH",
"1757.28 -58 OFFCURVE",
"1751.29 -94 OFFCURVE",
"1745.3 -120 CURVE",
"1739.3 -152 OFFCURVE",
"1731.31 -178 OFFCURVE",
"1723.32 -204 CURVE",
"1713.33 -230 OFFCURVE",
"1701.34 -252 OFFCURVE",
"1691.35 -274 CURVE",
"1667.37 -312 OFFCURVE",
"1643.39 -350 OFFCURVE",
"1619.42 -378 CURVE",
"1593.44 -406 OFFCURVE",
"1567.47 -436 OFFCURVE",
"1541.49 -452 CURVE",
"1515.52 -474 OFFCURVE",
"1487.55 -486 OFFCURVE",
"1457.58 -496 CURVE SMOOTH",
"1427.61 -506 OFFCURVE",
"1399.63 -510 OFFCURVE",
"1369.66 -512 CURVE",
"1355.68 -510 OFFCURVE",
"1343.69 -510 OFFCURVE",
"1331.7 -508 CURVE",
"1307.72 -508 OFFCURVE",
"1285.74 -500 OFFCURVE",
"1265.76 -492 CURVE",
"1245.78 -486 OFFCURVE",
"1227.8 -476 OFFCURVE",
"1211.82 -460 CURVE",
"1195.83 -446 OFFCURVE",
"1181.85 -432 OFFCURVE",
"1167.86 -410 CURVE SMOOTH",
"1153.87 -388 OFFCURVE",
"1143.88 -364 OFFCURVE",
"1135.89 -338 CURVE",
"1125.9 -314 OFFCURVE",
"1115.91 -280 OFFCURVE",
"1109.92 -248 CURVE SMOOTH",
"1103.92 -216 OFFCURVE",
"1099.93 -178 OFFCURVE",
"1095.93 -136 CURVE SMOOTH",
"1091.93 -94 OFFCURVE",
"1087.94 -48 OFFCURVE",
"1087.94 1.49805 CURVE",
"1085.94 27.4727 OFFCURVE",
"1085.94 51.4492 OFFCURVE",
"1085.94 77.4238 CURVE SMOOTH",
"1085.94 103.398 OFFCURVE",
"1085.94 127.376 OFFCURVE",
"1087.94 149.355 CURVE",
"1087.94 171.333 OFFCURVE",
"1087.94 193.311 OFFCURVE",
"1089.94 217.288 CURVE",
"1089.94 263.243 OFFCURVE",
"1091.93 303.204 OFFCURVE",
"1093.93 345.163 CURVE",
"1095.93 365.144 OFFCURVE",
"1095.93 385.124 OFFCURVE",
"1097.93 407.103 CURVE",
"1099.93 447.064 OFFCURVE",
"1103.92 481.03 OFFCURVE",
"1107.92 520.991 CURVE SMOOTH",
"1109.92 538.974 OFFCURVE",
"1109.92 556.956 OFFCURVE",
"1111.91 572.94 CURVE SMOOTH",
"1117.91 626.888 LINE",
"1119.91 658.856 OFFCURVE",
"1123.9 692.823 OFFCURVE",
"1129.9 722.794 CURVE",
"1135.89 768.749 LINE SMOOTH",
"1137.89 782.735 OFFCURVE",
"1141.88 796.722 OFFCURVE",
"1143.88 810.708 CURVE SMOOTH",
"1149.88 852.667 LINE SMOOTH",
"1153.87 876.644 OFFCURVE",
"1157.87 904.616 OFFCURVE",
"1159.87 926.595 CURVE",
"1171.86 994.529 LINE SMOOTH",
"1175.85 1016.51 OFFCURVE",
"1177.85 1032.49 OFFCURVE",
"1179.85 1056.47 CURVE",
"1181.85 1064.46 OFFCURVE",
"1181.85 1072.45 OFFCURVE",
"1183.84 1082.44 CURVE",
"1183.84 1100.43 OFFCURVE",
"1185.84 1116.41 OFFCURVE",
"1187.84 1132.39 CURVE",
"1187.84 1152.37 LINE SMOOTH",
"1187.84 1170.36 OFFCURVE",
"1185.84 1182.35 OFFCURVE",
"1183.84 1198.33 CURVE SMOOTH",
"1181.85 1212.32 OFFCURVE",
"1177.85 1220.31 OFFCURVE",
"1169.86 1234.29 CURVE",
"1163.86 1242.29 OFFCURVE",
"1155.87 1252.28 OFFCURVE",
"1145.88 1260.27 CURVE",
"1135.89 1266.26 OFFCURVE",
"1123.9 1274.26 OFFCURVE",
"1107.92 1276.25 CURVE",
"1095.93 1282.25 LINE",
"1089.94 1282.25 OFFCURVE",
"1085.94 1282.25 OFFCURVE",
"1081.94 1284.25 CURVE SMOOTH",
"1077.95 1286.24 OFFCURVE",
"1073.95 1286.24 OFFCURVE",
"1071.95 1286.24 CURVE SMOOTH",
"1063.96 1286.24 OFFCURVE",
"1055.97 1288.24 OFFCURVE",
"1049.97 1290.24 CURVE",
"1039.98 1290.24 LINE SMOOTH",
"1035.99 1290.24 OFFCURVE",
"1031.99 1290.24 OFFCURVE",
"1029.99 1292.24 CURVE",
"1026 1292.24 OFFCURVE",
"1022 1292.24 OFFCURVE",
"1020 1290.24 CURVE",
"996.027 1292.24 OFFCURVE",
"980.043 1284.25 OFFCURVE",
"966.057 1276.25 CURVE SMOOTH",
"952.07 1268.26 OFFCURVE",
"946.076 1252.28 OFFCURVE",
"940.082 1236.29 CURVE",
"940.082 1212.32 LINE",
"938.084 1206.32 OFFCURVE",
"938.084 1198.33 OFFCURVE",
"938.084 1190.34 CURVE",
"936.086 1182.35 OFFCURVE",
"936.086 1174.35 OFFCURVE",
"936.086 1166.36 CURVE",
"934.088 1150.38 OFFCURVE",
"932.09 1134.39 OFFCURVE",
"932.09 1114.41 CURVE SMOOTH",
"932.09 1084.44 LINE",
"930.092 1074.45 OFFCURVE",
"930.092 1064.46 OFFCURVE",
"930.092 1054.47 CURVE SMOOTH",
"930.092 1022.5 LINE",
"932.09 -348 LINE",
"932.09 -350 LINE SMOOTH",
"932.09 -352 OFFCURVE",
"932.09 -352 OFFCURVE",
"932.09 -350 CURVE",
"930.092 -350 OFFCURVE",
"930.092 -350 OFFCURVE",
"930.092 -352 CURVE",
"928.094 -354 OFFCURVE",
"928.094 -354 OFFCURVE",
"928.094 -352 CURVE",
"720.297 -354 LINE",
"720.297 -352 LINE",
"718.299 -352 OFFCURVE",
"716.301 -350 OFFCURVE",
"716.301 -350 CURVE",
"716.301 1024.5 LINE SMOOTH",
"716.301 1114.41 OFFCURVE",
"706.31 1180.35 OFFCURVE",
"686.33 1224.3 CURVE SMOOTH",
"666.35 1268.26 OFFCURVE",
"632.383 1288.24 OFFCURVE",
"592.422 1290.24 CURVE",
"552.461 1288.24 OFFCURVE",
"524.488 1268.26 OFFCURVE",
"504.508 1222.31 CURVE SMOOTH",
"484.527 1176.35 OFFCURVE",
"474.537 1110.42 OFFCURVE",
"474.537 1020.5 CURVE SMOOTH",
"474.537 -350 LINE",
"472.539 -350 LINE",
"472.539 -352 LINE",
"470.541 -352 OFFCURVE",
"470.541 -352 OFFCURVE",
"468.543 -354 CURVE",
"268.737 -352 LINE",
"266.739 -354 OFFCURVE",
"266.739 -354 OFFCURVE",
"266.739 -352 CURVE",
"264.741 -350 LINE",
"264.741 -352 OFFCURVE",
"262.743 -348 OFFCURVE",
"262.743 -348 CURVE",
"262.743 1048.48 LINE",
"260.745 1054.47 OFFCURVE",
"258.747 1068.46 OFFCURVE",
"258.747 1076.45 CURVE",
"256.749 1082.44 OFFCURVE",
"256.749 1088.44 OFFCURVE",
"256.749 1094.43 CURVE",
"254.751 1100.43 OFFCURVE",
"254.751 1106.42 OFFCURVE",
"252.753 1112.41 CURVE SMOOTH",
"250.755 1118.41 OFFCURVE",
"250.755 1122.4 OFFCURVE",
"250.755 1128.4 CURVE",
"248.757 1134.39 OFFCURVE",
"248.757 1140.39 OFFCURVE",
"246.759 1146.38 CURVE",
"244.761 1156.37 OFFCURVE",
"240.765 1170.36 OFFCURVE",
"240.765 1180.35 CURVE",
"232.773 1210.32 LINE",
"230.774 1220.31 OFFCURVE",
"228.776 1228.3 OFFCURVE",
"228.776 1236.29 CURVE",
"226.778 1240.29 OFFCURVE",
"226.778 1242.29 OFFCURVE",
"226.778 1244.29 CURVE",
"224.78 1246.28 OFFCURVE",
"224.78 1248.28 OFFCURVE",
"224.78 1252.28 CURVE",
"224.78 1248.28 LINE",
"222.782 1256.27 OFFCURVE",
"218.786 1262.27 OFFCURVE",
"216.788 1268.26 CURVE",
"214.79 1272.26 OFFCURVE",
"210.794 1276.25 OFFCURVE",
"208.796 1282.25 CURVE",
"202.802 1292.24 OFFCURVE",
"198.806 1300.23 OFFCURVE",
"190.814 1308.22 CURVE SMOOTH",
"184.819 1314.22 OFFCURVE",
"178.825 1320.21 OFFCURVE",
"172.831 1322.21 CURVE",
"164.839 1324.21 OFFCURVE",
"156.847 1328.2 OFFCURVE",
"148.855 1326.21 CURVE",
"146.856 1328.2 OFFCURVE",
"142.86 1328.2 OFFCURVE",
"140.862 1326.21 CURVE SMOOTH",
"138.864 1324.21 OFFCURVE",
"134.868 1324.21 OFFCURVE",
"132.87 1324.21 CURVE SMOOTH",
"130.872 1324.21 OFFCURVE",
"128.874 1322.21 OFFCURVE",
"126.876 1320.21 CURVE SMOOTH",
"124.878 1318.21 OFFCURVE",
"122.88 1316.21 OFFCURVE",
"120.882 1316.21 CURVE",
"120.882 1278.25 LINE SMOOTH",
"120.882 1276.25 OFFCURVE",
"120.882 1276.25 OFFCURVE",
"120.882 1278.25 CURVE",
"118.884 1278.25 OFFCURVE",
"118.884 1278.25 OFFCURVE",
"118.884 1276.25 CURVE SMOOTH",
"118.884 1274.26 OFFCURVE",
"118.884 1274.26 OFFCURVE",
"116.886 1276.25 CURVE",
"116.886 1274.26 OFFCURVE",
"116.886 1274.26 OFFCURVE",
"116.886 1276.25 CURVE",
"114.888 1276.25 LINE",
"114.888 1274.26 OFFCURVE",
"114.888 1274.26 OFFCURVE",
"114.888 1276.25 CURVE",
"112.89 1278.25 OFFCURVE",
"112.89 1278.25 OFFCURVE",
"112.89 1276.25 CURVE",
"102.899 1292.24 LINE",
"96.9053 1300.23 OFFCURVE",
"92.9092 1312.22 OFFCURVE",
"92.9092 1320.21 CURVE",
"90.9111 1324.21 OFFCURVE",
"90.9111 1330.2 OFFCURVE",
"90.9111 1336.2 CURVE SMOOTH",
"90.9111 1342.19 OFFCURVE",
"92.9092 1350.18 OFFCURVE",
"96.9053 1358.17 CURVE",
"98.9033 1360.17 OFFCURVE",
"100.901 1364.17 OFFCURVE",
"102.899 1368.16 CURVE SMOOTH",
"104.897 1372.16 OFFCURVE",
"106.896 1374.16 OFFCURVE",
"110.892 1376.16 CURVE",
"112.89 1380.15 OFFCURVE",
"116.886 1384.15 OFFCURVE",
"120.882 1386.15 CURVE",
"130.872 1396.14 LINE",
"142.86 1402.13 LINE SMOOTH",
"146.856 1404.13 OFFCURVE",
"150.852 1406.13 OFFCURVE",
"154.849 1410.12 CURVE",
"158.845 1410.12 OFFCURVE",
"162.841 1412.12 OFFCURVE",
"168.835 1414.12 CURVE",
"196.808 1426.11 LINE",
"200.804 1428.11 OFFCURVE",
"204.8 1428.11 OFFCURVE",
"208.796 1428.11 CURVE",
"214.79 1430.1 OFFCURVE",
"218.786 1430.1 OFFCURVE",
"222.782 1432.1 CURVE",
"226.778 1432.1 OFFCURVE",
"230.774 1432.1 OFFCURVE",
"234.77 1434.1 CURVE SMOOTH",
"238.767 1436.1 OFFCURVE",
"242.763 1436.1 OFFCURVE",
"246.759 1436.1 CURVE",
"248.757 1434.1 OFFCURVE",
"252.753 1434.1 OFFCURVE",
"254.751 1436.1 CURVE",
"264.741 1434.1 OFFCURVE",
"274.731 1434.1 OFFCURVE",
"284.722 1434.1 CURVE",
"316.69 1428.11 LINE",
"326.681 1424.11 OFFCURVE",
"338.669 1420.11 OFFCURVE",
"350.657 1418.12 CURVE SMOOTH",
"362.647 1416.12 OFFCURVE",
"374.635 1410.12 OFFCURVE",
"386.623 1404.13 CURVE",
"390.619 1404.13 OFFCURVE",
"394.615 1404.13 OFFCURVE",
"396.613 1402.13 CURVE SMOOTH",
"398.611 1400.13 OFFCURVE",
"402.607 1398.13 OFFCURVE",
"404.605 1398.13 CURVE SMOOTH",
"406.603 1398.13 OFFCURVE",
"410.6 1398.13 OFFCURVE",
"412.598 1396.14 CURVE SMOOTH",
"414.596 1394.14 OFFCURVE",
"418.592 1394.14 OFFCURVE",
"420.59 1396.14 CURVE",
"428.582 1394.14 OFFCURVE",
"436.574 1402.13 OFFCURVE",
"442.568 1410.12 CURVE",
"448.562 1416.12 OFFCURVE",
"450.56 1430.1 OFFCURVE",
"450.56 1444.09 CURVE SMOOTH",
"450.56 1458.08 OFFCURVE",
"448.562 1466.07 OFFCURVE",
"446.565 1482.05 CURVE",
"444.566 1490.04 OFFCURVE",
"444.566 1498.04 OFFCURVE",
"442.568 1506.03 CURVE",
"436.574 1536 LINE",
"446.565 1534 LINE",
"446.565 1488.05 OFFCURVE",
"450.56 1450.08 OFFCURVE",
"460.551 1428.11 CURVE SMOOTH",
"470.541 1404.13 OFFCURVE",
"484.527 1388.14 OFFCURVE",
"502.51 1390.14 CURVE",
"504.508 1388.14 OFFCURVE",
"508.504 1388.14 OFFCURVE",
"512.5 1390.14 CURVE",
"514.498 1392.14 OFFCURVE",
"518.494 1392.14 OFFCURVE",
"520.492 1392.14 CURVE SMOOTH",
"522.49 1392.14 OFFCURVE",
"526.486 1394.14 OFFCURVE",
"528.484 1396.14 CURVE SMOOTH",
"530.482 1398.13 OFFCURVE",
"534.479 1398.13 OFFCURVE",
"536.477 1398.13 CURVE",
"562.451 1414.12 OFFCURVE",
"590.424 1420.11 OFFCURVE",
"616.398 1428.11 CURVE SMOOTH",
"630.385 1432.1 OFFCURVE",
"642.373 1434.1 OFFCURVE",
"656.359 1436.1 CURVE",
"670.346 1436.1 OFFCURVE",
"682.334 1436.1 OFFCURVE",
"694.322 1438.1 CURVE",
"708.309 1436.1 OFFCURVE",
"724.293 1436.1 OFFCURVE",
"738.279 1436.1 CURVE",
"752.266 1434.1 OFFCURVE",
"764.254 1432.1 OFFCURVE",
"778.24 1428.11 CURVE SMOOTH",
"792.227 1424.11 OFFCURVE",
"804.215 1420.11 OFFCURVE",
"818.201 1418.12 CURVE",
"832.188 1414.12 OFFCURVE",
"844.176 1408.12 OFFCURVE",
"856.164 1400.13 CURVE",
"864.156 1400.13 OFFCURVE",
"870.15 1388.14 OFFCURVE",
"874.146 1378.15 CURVE SMOOTH",
"878.143 1368.16 OFFCURVE",
"880.141 1346.19 OFFCURVE",
"882.139 1328.2 CURVE",
"890.131 1338.19 OFFCURVE",
"900.121 1352.18 OFFCURVE",
"910.111 1362.17 CURVE SMOOTH",
"918.104 1370.16 OFFCURVE",
"930.092 1382.15 OFFCURVE",
"940.082 1388.14 CURVE",
"946.076 1394.14 OFFCURVE",
"950.072 1398.13 OFFCURVE",
"956.066 1400.13 CURVE SMOOTH",
"962.06 1402.13 OFFCURVE",
"968.055 1406.13 OFFCURVE",
"974.049 1410.12 CURVE",
"1010.01 1422.11 LINE",
"1024 1424.11 OFFCURVE",
"1035.99 1426.11 OFFCURVE",
"1049.97 1430.1 CURVE",
"1089.94 1436.1 LINE",
"1101.92 1436.1 OFFCURVE",
"1113.91 1436.1 OFFCURVE",
"1127.9 1438.1 CURVE SMOOTH",
"1139.89 1440.09 OFFCURVE",
"1151.88 1440.09 OFFCURVE",
"1163.86 1438.1 CURVE",
"1171.86 1440.09 LINE",
"1179.85 1438.1 OFFCURVE",
"1187.84 1438.1 OFFCURVE",
"1195.83 1438.1 CURVE",
"1209.82 1436.1 OFFCURVE",
"1223.8 1432.1 OFFCURVE",
"1237.79 1428.11 CURVE",
"1243.79 1426.11 OFFCURVE",
"1251.78 1422.11 OFFCURVE",
"1257.77 1416.12 CURVE",
"1265.76 1414.12 OFFCURVE",
"1273.76 1412.12 OFFCURVE",
"1279.75 1406.13 CURVE SMOOTH",
"1285.74 1400.13 OFFCURVE",
"1291.74 1396.14 OFFCURVE",
"1297.73 1392.14 CURVE SMOOTH",
"1303.73 1388.14 OFFCURVE",
"1307.72 1384.15 OFFCURVE",
"1313.72 1378.15 CURVE",
"1345.69 1342.19 LINE",
"1353.68 1330.2 OFFCURVE",
"1361.67 1312.22 OFFCURVE",
"1369.66 1298.23 CURVE",
"1375.66 1282.25 OFFCURVE",
"1379.65 1266.26 OFFCURVE",
"1385.65 1246.28 CURVE SMOOTH",
"1391.64 1226.3 OFFCURVE",
"1393.64 1208.32 OFFCURVE",
"1395.64 1186.34 CURVE",
"1395.64 1126.4 LINE SMOOTH",
"1395.64 1124.4 OFFCURVE",
"1395.64 1120.41 OFFCURVE",
"1393.64 1116.41 CURVE",
"1393.64 1102.42 LINE",
"1391.64 1100.43 OFFCURVE",
"1391.64 1096.43 OFFCURVE",
"1391.64 1092.43 CURVE SMOOTH",
"1391.64 1084.44 LINE",
"1389.64 1080.44 OFFCURVE",
"1389.64 1076.45 OFFCURVE",
"1389.64 1074.45 CURVE",
"1387.64 1054.47 LINE",
"1385.65 1048.48 OFFCURVE",
"1383.65 1042.48 OFFCURVE",
"1383.65 1034.49 CURVE",
"1381.65 1030.49 OFFCURVE",
"1381.65 1026.5 OFFCURVE",
"1381.65 1024.5 CURVE",
"1379.65 1016.51 OFFCURVE",
"1377.65 1006.52 OFFCURVE",
"1377.65 998.525 CURVE",
"1375.66 990.533 OFFCURVE",
"1375.66 982.541 OFFCURVE",
"1373.66 976.547 CURVE",
"1367.66 954.568 LINE",
"1365.67 936.585 OFFCURVE",
"1363.67 920.601 OFFCURVE",
"1357.67 898.622 CURVE",
"1355.68 880.64 OFFCURVE",
"1351.68 854.665 OFFCURVE",
"1347.68 830.688 CURVE SMOOTH",
"1341.69 790.727 LINE",
"1329.7 706.81 LINE SMOOTH",
"1325.71 680.835 OFFCURVE",
"1319.71 648.866 OFFCURVE",
"1317.71 622.892 CURVE",
"1311.72 580.933 LINE SMOOTH",
"1309.72 566.946 OFFCURVE",
"1309.72 552.96 OFFCURVE",
"1307.72 538.974 CURVE SMOOTH",
"1305.72 522.989 OFFCURVE",
"1305.72 509.003 OFFCURVE",
"1303.73 495.017 CURVE SMOOTH",
"1297.73 451.06 LINE SMOOTH",
"1295.73 435.075 OFFCURVE",
"1295.73 421.089 OFFCURVE",
"1293.74 407.103 CURVE SMOOTH",
"1291.74 391.118 OFFCURVE",
"1291.74 377.132 OFFCURVE",
"1291.74 363.146 CURVE",
"1289.74 349.159 OFFCURVE",
"1289.74 333.175 OFFCURVE",
"1287.74 319.189 CURVE SMOOTH",
"1285.74 303.204 OFFCURVE",
"1285.74 289.218 OFFCURVE",
"1285.74 275.231 CURVE",
"1283.75 261.245 OFFCURVE",
"1283.75 245.261 OFFCURVE",
"1281.75 231.274 CURVE",
"1281.75 205.3 OFFCURVE",
"1279.75 171.333 OFFCURVE",
"1279.75 145.358 CURVE",
"1277.75 131.372 OFFCURVE",
"1277.75 119.383 OFFCURVE",
"1277.75 105.396 CURVE SMOOTH",
"1277.75 65.4355 LINE SMOOTH",
"1277.75 3.49609 OFFCURVE",
"1279.75 -46 OFFCURVE",
"1283.75 -92 CURVE SMOOTH",
"1287.74 -140 OFFCURVE",
"1291.74 -178 OFFCURVE",
"1297.73 -212 CURVE",
"1305.72 -244 OFFCURVE",
"1315.71 -272 OFFCURVE",
"1327.7 -288 CURVE SMOOTH",
"1339.69 -304 OFFCURVE",
"1353.68 -318 OFFCURVE",
"1369.66 -316 CURVE",
"1371.66 -318 OFFCURVE",
"1375.66 -320 OFFCURVE",
"1377.65 -318 CURVE",
"1379.65 -318 OFFCURVE",
"1383.65 -318 OFFCURVE",
"1385.65 -320 CURVE SMOOTH",
"1387.64 -322 OFFCURVE",
"1391.64 -322 OFFCURVE",
"1393.64 -320 CURVE",
"1395.64 -320 OFFCURVE",
"1397.63 -320 OFFCURVE",
"1399.63 -322 CURVE",
"1409.62 -320 OFFCURVE",
"1417.62 -320 OFFCURVE",
"1425.61 -318 CURVE",
"1441.59 -318 OFFCURVE",
"1457.58 -308 OFFCURVE",
"1471.56 -300 CURVE SMOOTH",
"1485.55 -292 OFFCURVE",
"1497.54 -280 OFFCURVE",
"1507.53 -262 CURVE",
"1517.52 -246 OFFCURVE",
"1527.51 -230 OFFCURVE",
"1537.5 -206 CURVE",
"1545.49 -184 OFFCURVE",
"1551.48 -158 OFFCURVE",
"1559.48 -130 CURVE",
"1565.47 -102 OFFCURVE",
"1571.46 -68 OFFCURVE",
"1575.46 -34 CURVE SMOOTH",
"1579.46 -2 OFFCURVE",
"1581.46 37.4629 OFFCURVE",
"1583.45 79.4219 CURVE SMOOTH",
"1589.45 215.29 LINE",
"1589.45 415.095 LINE",
"1587.45 425.085 OFFCURVE",
"1587.45 433.077 OFFCURVE",
"1587.45 441.069 CURVE SMOOTH",
"1587.45 469.042 LINE SMOOTH",
"1587.45 479.032 OFFCURVE",
"1587.45 487.024 OFFCURVE",
"1585.45 495.017 CURVE",
"1373.66 227.278 LINE"
);
}
);
width = 2048;
}
);
unicode = 264F;
},
{
glyphname = sagittarius;
lastChange = "2014-09-19 13:45:38 +0000";
layers = (
{
layerId = "C6537DE0-68DF-4C5B-B6D5-25B465FDDD7D";
name = Regular;
paths = (
{
closed = 1;
nodes = (
"1981 1530 OFFCURVE",
"1959 1522 OFFCURVE",
"1941 1516 CURVE",
"1921 1508 OFFCURVE",
"1901 1500 OFFCURVE",
"1881 1494 CURVE",
"1841 1480 OFFCURVE",
"1805 1470 OFFCURVE",
"1763 1456 CURVE SMOOTH",
"1709 1438 LINE",
"1653 1420 LINE",
"1595 1402 LINE",
"1539 1384 LINE SMOOTH",
"1519 1378 OFFCURVE",
"1501 1374 OFFCURVE",
"1483 1368 CURVE",
"1447 1358 OFFCURVE",
"1409 1346 OFFCURVE",
"1373 1338 CURVE",
"1355 1332 OFFCURVE",
"1335 1328 OFFCURVE",
"1315 1322 CURVE",
"1205 1296 LINE",
"1187 1290 OFFCURVE",
"1167 1286 OFFCURVE",
"1147 1282 CURVE SMOOTH",
"1089 1270 LINE",
"1087 1270 LINE",
"1085 1268 LINE",
"1085 1266 OFFCURVE",
"1085 1266 OFFCURVE",
"1083 1266 CURVE",
"1085 1264 LINE",
"1087 1264 LINE",
"1087 1262 LINE SMOOTH",
"1087 1260 OFFCURVE",
"1087 1260 OFFCURVE",
"1089 1260 CURVE",
"1153 1254 LINE SMOOTH",
"1175 1252 OFFCURVE",
"1195 1248 OFFCURVE",
"1217 1246 CURVE SMOOTH",
"1281 1240 LINE SMOOTH",
"1303 1238 OFFCURVE",
"1323 1234 OFFCURVE",
"1343 1232 CURVE SMOOTH",
"1365 1230 OFFCURVE",
"1385 1226 OFFCURVE",
"1407 1224 CURVE",
"1447 1218 OFFCURVE",
"1493 1214 OFFCURVE",
"1535 1210 CURVE SMOOTH",
"1555 1208 OFFCURVE",
"1577 1204 OFFCURVE",
"1599 1202 CURVE",
"1577 1180 OFFCURVE",
"1555 1160 OFFCURVE",
"1533 1140 CURVE",
"1511 1118 OFFCURVE",
"1491 1098 OFFCURVE",
"1469 1078 CURVE SMOOTH",
"1405 1016 LINE SMOOTH",
"1383 996 OFFCURVE",
"1361 976 OFFCURVE",
"1339 954 CURVE SMOOTH",
"1319 934 OFFCURVE",
"1299 914 OFFCURVE",
"1277 894 CURVE SMOOTH",
"1213 834 LINE SMOOTH",
"1191 812 OFFCURVE",
"1171 792 OFFCURVE",
"1149 772 CURVE",
"1127 750 OFFCURVE",
"1105 730 OFFCURVE",
"1085 708 CURVE",
"1075 714 OFFCURVE",
"1067 722 OFFCURVE",
"1061 728 CURVE SMOOTH",
"1055 734 OFFCURVE",
"1047 738 OFFCURVE",
"1039 744 CURVE SMOOTH",
"1031 750 OFFCURVE",
"1023 754 OFFCURVE",
"1017 760 CURVE",
"977 790 LINE",
"969 794 OFFCURVE",
"963 798 OFFCURVE",
"957 804 CURVE SMOOTH",
"951 810 OFFCURVE",
"943 814 OFFCURVE",
"935 820 CURVE",
"927 824 OFFCURVE",
"921 828 OFFCURVE",
"915 834 CURVE",
"905 838 OFFCURVE",
"897 842 OFFCURVE",
"891 848 CURVE",
"885 852 OFFCURVE",
"877 856 OFFCURVE",
"869 862 CURVE SMOOTH",
"861 868 OFFCURVE",
"853 872 OFFCURVE",
"847 878 CURVE",
"833 886 OFFCURVE",
"817 898 OFFCURVE",
"799 908 CURVE SMOOTH",
"789 914 OFFCURVE",
"781 918 OFFCURVE",
"773 924 CURVE SMOOTH",
"765 930 OFFCURVE",
"757 936 OFFCURVE",
"747 942 CURVE SMOOTH",
"737 948 OFFCURVE",
"727 954 OFFCURVE",
"719 960 CURVE",
"715 962 OFFCURVE",
"713 962 OFFCURVE",
"711 964 CURVE",
"705 968 LINE",
"697 970 OFFCURVE",
"695 972 OFFCURVE",
"689 978 CURVE",
"683 982 LINE",
"679 984 OFFCURVE",
"677 986 OFFCURVE",
"675 988 CURVE",
"669 992 LINE",
"665 994 OFFCURVE",
"663 996 OFFCURVE",
"661 998 CURVE",
"287 1006 LINE",
"285 1006 LINE SMOOTH",
"283 1006 OFFCURVE",
"283 1006 OFFCURVE",
"285 1006 CURVE",
"283 1006 LINE",
"281 1004 OFFCURVE",
"281 1004 OFFCURVE",
"283 1004 CURVE",
"281 1002 OFFCURVE",
"281 1002 OFFCURVE",
"283 1002 CURVE",
"283 1000 LINE",
"281 1000 OFFCURVE",
"281 1000 OFFCURVE",
"283 1000 CURVE",
"285 998 OFFCURVE",
"285 998 OFFCURVE",
"283 998 CURVE",
"303 988 OFFCURVE",
"321 976 OFFCURVE",
"337 966 CURVE SMOOTH",
"353 956 OFFCURVE",
"369 946 OFFCURVE",
"387 936 CURVE SMOOTH",
"405 926 OFFCURVE",
"421 916 OFFCURVE",
"435 906 CURVE SMOOTH",
"465 886 OFFCURVE",
"493 868 OFFCURVE",
"521 852 CURVE",
"559 826 LINE",
"569 818 OFFCURVE",
"581 810 OFFCURVE",
"593 802 CURVE",
"615 786 OFFCURVE",
"633 774 OFFCURVE",
"651 760 CURVE SMOOTH",
"661 752 OFFCURVE",
"671 744 OFFCURVE",
"683 736 CURVE",
"693 728 OFFCURVE",
"705 720 OFFCURVE",
"717 712 CURVE",
"727 702 OFFCURVE",
"739 694 OFFCURVE",
"753 684 CURVE",
"763 674 OFFCURVE",
"777 662 OFFCURVE",
"791 652 CURVE SMOOTH",
"805 642 OFFCURVE",
"817 630 OFFCURVE",
"831 620 CURVE",
"845 608 OFFCURVE",
"859 596 OFFCURVE",
"875 584 CURVE",
"891 570 OFFCURVE",
"907 558 OFFCURVE",
"921 544 CURVE",
"43 -300 LINE",
"41 -300 LINE",
"41 -302 LINE",
"39 -302 OFFCURVE",
"39 -302 OFFCURVE",
"41 -302 CURVE",
"41 -304 OFFCURVE",
"41 -304 OFFCURVE",
"39 -304 CURVE",
"41 -304 LINE",
"39 -304 OFFCURVE",
"41 -306 OFFCURVE",
"41 -306 CURVE SMOOTH",
"43 -306 LINE",
"335 -512 LINE",
"339 -512 LINE SMOOTH",
"341 -512 OFFCURVE",
"341 -512 OFFCURVE",
"341 -510 CURVE",
"343 -510 LINE",
"373 -474 OFFCURVE",
"405 -438 OFFCURVE",
"439 -400 CURVE SMOOTH",
"535 -292 LINE SMOOTH",
"565 -256 OFFCURVE",
"597 -220 OFFCURVE",
"631 -184 CURVE SMOOTH",
"663 -148 OFFCURVE",
"693 -112 OFFCURVE",
"723 -76 CURVE",
"757 -40 OFFCURVE",
"789 -4 OFFCURVE",
"821 32 CURVE SMOOTH",
"851 68 OFFCURVE",
"883 104 OFFCURVE",
"917 140 CURVE SMOOTH",
"1013 248 LINE SMOOTH",
"1043 284 OFFCURVE",
"1075 320 OFFCURVE",
"1109 358 CURVE",
"1111 352 OFFCURVE",
"1117 348 OFFCURVE",
"1123 344 CURVE",
"1137 330 LINE SMOOTH",
"1141 326 OFFCURVE",
"1147 322 OFFCURVE",
"1153 318 CURVE",
"1165 308 OFFCURVE",
"1173 300 OFFCURVE",
"1181 292 CURVE",
"1185 286 OFFCURVE",
"1189 282 OFFCURVE",
"1195 278 CURVE SMOOTH",
"1201 274 OFFCURVE",
"1205 270 OFFCURVE",
"1209 266 CURVE SMOOTH",
"1213 262 OFFCURVE",
"1219 258 OFFCURVE",
"1225 254 CURVE",
"1235 244 OFFCURVE",
"1245 236 OFFCURVE",
"1257 226 CURVE SMOOTH",
"1269 216 OFFCURVE",
"1281 206 OFFCURVE",
"1291 196 CURVE SMOOTH",
"1301 186 OFFCURVE",
"1311 176 OFFCURVE",
"1323 166 CURVE",
"1353 134 LINE",
"1367 124 OFFCURVE",
"1379 112 OFFCURVE",
"1389 102 CURVE SMOOTH",
"1421 68 LINE",
"1453 32 LINE",
"1463 18 OFFCURVE",
"1473 6 OFFCURVE",
"1485 -8 CURVE",
"1497 -14 OFFCURVE",
"1509 -18 OFFCURVE",
"1523 -22 CURVE SMOOTH",
"1537 -26 OFFCURVE",
"1549 -30 OFFCURVE",
"1559 -32 CURVE",
"1579 -40 OFFCURVE",
"1601 -44 OFFCURVE",
"1617 -46 CURVE",
"1631 -46 LINE",
"1633 -48 OFFCURVE",
"1637 -48 OFFCURVE",
"1643 -48 CURVE SMOOTH",
"1673 -48 LINE",
"1677 -50 OFFCURVE",
"1681 -50 OFFCURVE",
"1683 -50 CURVE SMOOTH",
"1719 -50 LINE",
"1723 -52 OFFCURVE",
"1727 -52 OFFCURVE",
"1729 -52 CURVE SMOOTH",
"1755 -52 LINE",
"1761 -54 OFFCURVE",
"1771 -56 OFFCURVE",
"1777 -56 CURVE SMOOTH",
"1789 -56 LINE",
"1793 -58 OFFCURVE",
"1797 -58 OFFCURVE",
"1803 -58 CURVE",
"1807 -60 OFFCURVE",
"1811 -60 OFFCURVE",
"1815 -62 CURVE SMOOTH",
"1819 -64 OFFCURVE",
"1825 -64 OFFCURVE",
"1831 -66 CURVE",
"1835 -66 OFFCURVE",
"1841 -66 OFFCURVE",
"1847 -68 CURVE",
"1859 -70 OFFCURVE",
"1867 -72 OFFCURVE",
"1881 -76 CURVE",
"1899 -82 LINE",
"1905 -82 LINE",
"1907 -80 LINE",
"1905 -80 OFFCURVE",
"1905 -80 OFFCURVE",
"1907 -78 CURVE",
"1907 -76 LINE",
"1905 -76 OFFCURVE",
"1905 -76 OFFCURVE",
"1907 -76 CURVE",
"1905 -74 LINE SMOOTH",
"1895 -64 OFFCURVE",
"1887 -52 OFFCURVE",
"1877 -42 CURVE SMOOTH",
"1867 -32 OFFCURVE",
"1857 -20 OFFCURVE",
"1849 -10 CURVE SMOOTH",
"1841 0 OFFCURVE",
"1833 8 OFFCURVE",
"1823 18 CURVE SMOOTH",
"1813 28 OFFCURVE",
"1805 36 OFFCURVE",
"1799 46 CURVE",
"1789 54 OFFCURVE",
"1781 62 OFFCURVE",
"1775 70 CURVE SMOOTH",
"1769 78 OFFCURVE",
"1761 86 OFFCURVE",
"1753 94 CURVE SMOOTH",
"1745 102 OFFCURVE",
"1737 110 OFFCURVE",
"1731 118 CURVE",
"1717 132 OFFCURVE",
"1705 144 OFFCURVE",
"1689 158 CURVE",
"1681 164 OFFCURVE",
"1675 172 OFFCURVE",
"1669 178 CURVE SMOOTH",
"1649 198 LINE",
"1641 204 OFFCURVE",
"1635 212 OFFCURVE",
"1629 218 CURVE",
"1621 224 OFFCURVE",
"1613 232 OFFCURVE",
"1607 238 CURVE SMOOTH",
"1601 244 OFFCURVE",
"1593 252 OFFCURVE",
"1585 258 CURVE SMOOTH",
"1577 264 OFFCURVE",
"1569 272 OFFCURVE",
"1563 280 CURVE",
"1547 294 OFFCURVE",
"1533 310 OFFCURVE",
"1513 328 CURVE",
"1503 336 OFFCURVE",
"1493 344 OFFCURVE",
"1483 354 CURVE SMOOTH",
"1453 384 LINE",
"1429 404 OFFCURVE",
"1409 422 OFFCURVE",
"1385 446 CURVE",
"1361 468 OFFCURVE",
"1335 494 OFFCURVE",
"1307 522 CURVE SMOOTH",
"1293 536 OFFCURVE",
"1277 550 OFFCURVE",
"1261 564 CURVE",
"1301 610 OFFCURVE",
"1339 652 OFFCURVE",
"1379 694 CURVE SMOOTH",
"1399 716 OFFCURVE",
"1419 736 OFFCURVE",
"1437 758 CURVE SMOOTH",
"1455 780 OFFCURVE",
"1475 800 OFFCURVE",
"1497 822 CURVE",
"1515 844 OFFCURVE",
"1533 864 OFFCURVE",
"1553 886 CURVE SMOOTH",
"1573 908 OFFCURVE",
"1593 928 OFFCURVE",
"1611 950 CURVE SMOOTH",
"1629 972 OFFCURVE",
"1649 992 OFFCURVE",
"1671 1014 CURVE",
"1691 1036 OFFCURVE",
"1709 1056 OFFCURVE",
"1727 1078 CURVE",
"1755 554 LINE",
"1753 552 OFFCURVE",
"1753 552 OFFCURVE",
"1755 552 CURVE",
"1755 550 LINE",
"1755 550 OFFCURVE",
"1759 550 OFFCURVE",
"1759 548 CURVE",
"1761 548 OFFCURVE",
"1761 548 OFFCURVE",
"1761 550 CURVE",
"1763 550 LINE SMOOTH",
"1765 550 OFFCURVE",
"1765 550 OFFCURVE",
"1765 552 CURVE",
"1763 552 OFFCURVE",
"1763 552 OFFCURVE",
"1765 552 CURVE",
"1767 568 OFFCURVE",
"1771 584 OFFCURVE",
"1775 598 CURVE SMOOTH",
"1779 612 OFFCURVE",
"1783 628 OFFCURVE",
"1785 642 CURVE SMOOTH",
"1787 656 OFFCURVE",
"1789 670 OFFCURVE",
"1793 684 CURVE SMOOTH",
"1797 698 OFFCURVE",
"1799 710 OFFCURVE",
"1801 724 CURVE",
"1807 736 OFFCURVE",
"1811 748 OFFCURVE",
"1813 762 CURVE SMOOTH",
"1815 774 OFFCURVE",
"1817 786 OFFCURVE",
"1821 800 CURVE",
"1825 812 OFFCURVE",
"1829 824 OFFCURVE",
"1831 836 CURVE SMOOTH",
"1833 846 OFFCURVE",
"1835 858 OFFCURVE",
"1839 870 CURVE",
"1841 880 OFFCURVE",
"1845 892 OFFCURVE",
"1849 904 CURVE",
"1857 936 LINE",
"1859 946 OFFCURVE",
"1861 958 OFFCURVE",
"1865 968 CURVE",
"1871 990 OFFCURVE",
"1875 1010 OFFCURVE",
"1881 1030 CURVE",
"1883 1040 OFFCURVE",
"1887 1050 OFFCURVE",
"1891 1060 CURVE",
"1897 1088 LINE",
"1899 1106 OFFCURVE",
"1905 1126 OFFCURVE",
"1911 1142 CURVE",
"1913 1150 OFFCURVE",
"1917 1158 OFFCURVE",
"1919 1168 CURVE",
"1925 1192 LINE",
"1931 1208 OFFCURVE",
"1935 1224 OFFCURVE",
"1939 1240 CURVE SMOOTH",
"1945 1266 LINE",
"1951 1290 LINE SMOOTH",
"1953 1298 OFFCURVE",
"1955 1306 OFFCURVE",
"1959 1316 CURVE",
"1965 1342 LINE",
"1971 1366 LINE",
"1977 1392 LINE",
"1983 1410 OFFCURVE",
"1987 1428 OFFCURVE",
"1991 1446 CURVE SMOOTH",
"1997 1472 LINE",
"2003 1502 LINE",
"2009 1530 LINE",
"2007 1530 LINE",
"2003 1536 LINE"
);
}
);
width = 2048;
}
);
unicode = 2650;
},
{
glyphname = capricorn;
lastChange = "2014-09-19 13:45:34 +0000";
layers = (
{
layerId = "C6537DE0-68DF-4C5B-B6D5-25B465FDDD7D";
name = Regular;
paths = (
{
closed = 1;
nodes = (
"1494 1536 LINE",
"1478 1534 OFFCURVE",
"1460 1532 OFFCURVE",
"1444 1528 CURVE SMOOTH",
"1428 1524 OFFCURVE",
"1410 1518 OFFCURVE",
"1394 1512 CURVE",
"1376 1506 OFFCURVE",
"1360 1498 OFFCURVE",
"1344 1490 CURVE",
"1328 1480 OFFCURVE",
"1312 1472 OFFCURVE",
"1296 1460 CURVE SMOOTH",
"1280 1448 OFFCURVE",
"1266 1434 OFFCURVE",
"1252 1420 CURVE",
"1236 1406 OFFCURVE",
"1224 1390 OFFCURVE",
"1210 1374 CURVE SMOOTH",
"1196 1358 OFFCURVE",
"1184 1338 OFFCURVE",
"1174 1320 CURVE SMOOTH",
"1164 1302 OFFCURVE",
"1154 1280 OFFCURVE",
"1146 1260 CURVE SMOOTH",
"1138 1240 OFFCURVE",
"1132 1220 OFFCURVE",
"1126 1202 CURVE",
"1118 1184 OFFCURVE",
"1116 1164 OFFCURVE",
"1112 1146 CURVE SMOOTH",
"1108 1128 OFFCURVE",
"1104 1108 OFFCURVE",
"1104 1092 CURVE SMOOTH",
"1104 1064 LINE SMOOTH",
"1104 1034 OFFCURVE",
"1106 1006 OFFCURVE",
"1112 976 CURVE SMOOTH",
"1118 946 OFFCURVE",
"1128 918 OFFCURVE",
"1138 888 CURVE",
"878 892 LINE",
"874 892 LINE",
"874 888 LINE",
"726 -134 LINE",
"384 1046 LINE",
"10 1482 LINE",
"10 1484 LINE",
"2 1484 LINE",
"0 1482 LINE",
"0 1478 LINE",
"556 -480 LINE",
"560 -484 LINE",
"906 -484 LINE SMOOTH",
"908 -484 OFFCURVE",
"908 -484 OFFCURVE",
"910 -482 CURVE SMOOTH",
"912 -480 LINE",
"936 -344 LINE",
"942 -300 OFFCURVE",
"950 -256 OFFCURVE",
"958 -210 CURVE SMOOTH",
"982 -76 LINE",
"1006 56 LINE",
"1100 590 LINE",
"1304 590 LINE",
"1320 576 OFFCURVE",
"1336 562 OFFCURVE",
"1354 548 CURVE",
"1386 518 OFFCURVE",
"1418 490 OFFCURVE",
"1450 464 CURVE",
"1464 450 OFFCURVE",
"1480 438 OFFCURVE",
"1494 424 CURVE",
"1524 398 OFFCURVE",
"1552 370 OFFCURVE",
"1578 344 CURVE",
"1602 318 OFFCURVE",
"1626 292 OFFCURVE",
"1648 266 CURVE",
"1670 242 OFFCURVE",
"1690 216 OFFCURVE",
"1706 192 CURVE SMOOTH",
"1730 156 LINE SMOOTH",
"1738 144 OFFCURVE",
"1744 132 OFFCURVE",
"1750 120 CURVE",
"1764 96 OFFCURVE",
"1772 72 OFFCURVE",
"1778 50 CURVE SMOOTH",
"1784 26 OFFCURVE",
"1788 4 OFFCURVE",
"1788 -20 CURVE SMOOTH",
"1788 -42 OFFCURVE",
"1784 -62 OFFCURVE",
"1778 -84 CURVE SMOOTH",
"1772 -106 OFFCURVE",
"1760 -126 OFFCURVE",
"1750 -144 CURVE",
"1736 -162 OFFCURVE",
"1722 -184 OFFCURVE",
"1700 -200 CURVE",
"1678 -218 OFFCURVE",
"1654 -236 OFFCURVE",
"1628 -254 CURVE",
"1602 -270 OFFCURVE",
"1570 -286 OFFCURVE",
"1534 -302 CURVE SMOOTH",
"1498 -318 OFFCURVE",
"1456 -332 OFFCURVE",
"1414 -346 CURVE SMOOTH",
"1368 -360 OFFCURVE",
"1322 -372 OFFCURVE",
"1268 -384 CURVE SMOOTH",
"1214 -396 OFFCURVE",
"1158 -410 OFFCURVE",
"1096 -420 CURVE",
"1094 -430 LINE",
"1164 -456 OFFCURVE",
"1228 -478 OFFCURVE",
"1292 -492 CURVE SMOOTH",
"1356 -506 OFFCURVE",
"1420 -512 OFFCURVE",
"1478 -512 CURVE SMOOTH",
"1498 -512 LINE SMOOTH",
"1504 -512 OFFCURVE",
"1512 -512 OFFCURVE",
"1520 -510 CURVE",
"1534 -510 OFFCURVE",
"1548 -508 OFFCURVE",
"1562 -506 CURVE",
"1570 -504 OFFCURVE",
"1578 -504 OFFCURVE",
"1584 -502 CURVE",
"1598 -502 OFFCURVE",
"1614 -498 OFFCURVE",
"1626 -494 CURVE SMOOTH",
"1632 -492 OFFCURVE",
"1638 -492 OFFCURVE",
"1644 -490 CURVE",
"1676 -482 OFFCURVE",
"1704 -470 OFFCURVE",
"1732 -460 CURVE SMOOTH",
"1760 -450 OFFCURVE",
"1786 -436 OFFCURVE",
"1810 -422 CURVE SMOOTH",
"1834 -408 OFFCURVE",
"1858 -392 OFFCURVE",
"1880 -376 CURVE SMOOTH",
"1902 -360 OFFCURVE",
"1920 -344 OFFCURVE",
"1938 -322 CURVE",
"1956 -304 OFFCURVE",
"1970 -284 OFFCURVE",
"1984 -262 CURVE SMOOTH",
"1998 -240 OFFCURVE",
"2010 -218 OFFCURVE",
"2020 -194 CURVE",
"2028 -170 OFFCURVE",
"2038 -144 OFFCURVE",
"2042 -118 CURVE SMOOTH",
"2046 -94 OFFCURVE",
"2048 -68 OFFCURVE",
"2048 -38 CURVE SMOOTH",
"2048 4 LINE",
"2046 32 OFFCURVE",
"2042 58 OFFCURVE",
"2036 84 CURVE",
"2028 110 OFFCURVE",
"2020 138 OFFCURVE",
"2010 164 CURVE SMOOTH",
"2000 190 OFFCURVE",
"1988 218 OFFCURVE",
"1974 244 CURVE",
"1958 270 OFFCURVE",
"1940 298 OFFCURVE",
"1922 324 CURVE SMOOTH",
"1904 350 OFFCURVE",
"1882 376 OFFCURVE",
"1858 402 CURVE SMOOTH",
"1834 428 OFFCURVE",
"1808 454 OFFCURVE",
"1778 480 CURVE",
"1764 494 OFFCURVE",
"1748 506 OFFCURVE",
"1734 520 CURVE",
"1702 546 OFFCURVE",
"1668 572 OFFCURVE",
"1630 598 CURVE",
"1640 598 OFFCURVE",
"1650 600 OFFCURVE",
"1660 602 CURVE SMOOTH",
"1678 606 OFFCURVE",
"1698 610 OFFCURVE",
"1716 618 CURVE",
"1732 626 OFFCURVE",
"1752 636 OFFCURVE",
"1770 650 CURVE",
"1786 664 OFFCURVE",
"1802 676 OFFCURVE",
"1818 692 CURVE SMOOTH",
"1834 708 OFFCURVE",
"1850 728 OFFCURVE",
"1866 750 CURVE",
"1880 772 OFFCURVE",
"1892 794 OFFCURVE",
"1902 820 CURVE",
"1906 832 OFFCURVE",
"1910 844 OFFCURVE",
"1916 858 CURVE",
"1924 884 OFFCURVE",
"1930 914 OFFCURVE",
"1934 946 CURVE SMOOTH",
"1938 976 OFFCURVE",
"1940 1008 OFFCURVE",
"1940 1042 CURVE SMOOTH",
"1940 1100 OFFCURVE",
"1928 1160 OFFCURVE",
"1910 1218 CURVE SMOOTH",
"1892 1274 OFFCURVE",
"1860 1328 OFFCURVE",
"1820 1382 CURVE",
"1780 1432 OFFCURVE",
"1734 1472 OFFCURVE",
"1686 1498 CURVE",
"1636 1522 OFFCURVE",
"1580 1536 OFFCURVE",
"1518 1536 CURVE SMOOTH"
);
},
{
closed = 1;
nodes = (
"1522 1238 OFFCURVE",
"1534 1236 OFFCURVE",
"1544 1234 CURVE",
"1552 1232 OFFCURVE",
"1562 1228 OFFCURVE",
"1570 1222 CURVE",
"1576 1218 OFFCURVE",
"1580 1214 OFFCURVE",
"1584 1212 CURVE",
"1592 1206 OFFCURVE",
"1600 1198 OFFCURVE",
"1608 1190 CURVE",
"1626 1164 LINE",
"1632 1154 OFFCURVE",
"1638 1142 OFFCURVE",
"1642 1132 CURVE SMOOTH",
"1646 1122 OFFCURVE",
"1650 1108 OFFCURVE",
"1652 1098 CURVE",
"1656 1082 LINE",
"1656 1076 OFFCURVE",
"1656 1070 OFFCURVE",
"1658 1064 CURVE",
"1658 1044 LINE SMOOTH",
"1658 1034 OFFCURVE",
"1656 1020 OFFCURVE",
"1656 1008 CURVE",
"1654 996 OFFCURVE",
"1650 982 OFFCURVE",
"1648 972 CURVE",
"1642 956 LINE",
"1638 944 OFFCURVE",
"1634 934 OFFCURVE",
"1628 926 CURVE",
"1624 920 OFFCURVE",
"1620 916 OFFCURVE",
"1618 910 CURVE",
"1616 906 OFFCURVE",
"1612 902 OFFCURVE",
"1608 898 CURVE SMOOTH",
"1604 894 OFFCURVE",
"1600 890 OFFCURVE",
"1598 886 CURVE",
"1594 882 OFFCURVE",
"1590 878 OFFCURVE",
"1586 876 CURVE",
"1580 874 OFFCURVE",
"1576 870 OFFCURVE",
"1572 868 CURVE",
"1564 860 OFFCURVE",
"1552 856 OFFCURVE",
"1544 854 CURVE",
"1534 852 OFFCURVE",
"1522 850 OFFCURVE",
"1512 850 CURVE SMOOTH",
"1502 850 OFFCURVE",
"1490 852 OFFCURVE",
"1482 856 CURVE",
"1454 868 LINE",
"1444 876 OFFCURVE",
"1436 882 OFFCURVE",
"1430 890 CURVE",
"1422 896 OFFCURVE",
"1416 906 OFFCURVE",
"1410 914 CURVE",
"1408 920 OFFCURVE",
"1404 924 OFFCURVE",
"1402 930 CURVE",
"1396 938 OFFCURVE",
"1390 950 OFFCURVE",
"1388 960 CURVE",
"1382 976 LINE",
"1380 982 OFFCURVE",
"1380 988 OFFCURVE",
"1378 994 CURVE",
"1376 1004 OFFCURVE",
"1374 1018 OFFCURVE",
"1374 1028 CURVE SMOOTH",
"1374 1060 LINE SMOOTH",
"1374 1066 OFFCURVE",
"1374 1070 OFFCURVE",
"1376 1076 CURVE",
"1376 1086 OFFCURVE",
"1380 1100 OFFCURVE",
"1382 1110 CURVE",
"1394 1142 LINE",
"1396 1148 OFFCURVE",
"1400 1152 OFFCURVE",
"1402 1158 CURVE",
"1408 1168 OFFCURVE",
"1412 1178 OFFCURVE",
"1420 1186 CURVE",
"1422 1190 OFFCURVE",
"1426 1194 OFFCURVE",
"1430 1198 CURVE",
"1436 1206 OFFCURVE",
"1444 1212 OFFCURVE",
"1454 1220 CURVE SMOOTH",
"1462 1226 OFFCURVE",
"1472 1232 OFFCURVE",
"1482 1234 CURVE",
"1490 1236 OFFCURVE",
"1502 1238 OFFCURVE",
"1512 1238 CURVE SMOOTH"
);
}
);
width = 2048;
}
);
unicode = 2651;
},
{
glyphname = aquarius;
lastChange = "2014-09-19 13:45:34 +0000";
layers = (
{
layerId = "C6537DE0-68DF-4C5B-B6D5-25B465FDDD7D";
name = Regular;
paths = (
{
closed = 1;
nodes = (
"1330 1536 OFFCURVE",
"1312 1534 OFFCURVE",
"1292 1528 CURVE SMOOTH",
"1272 1522 OFFCURVE",
"1250 1514 OFFCURVE",
"1232 1504 CURVE",
"1210 1490 OFFCURVE",
"1190 1478 OFFCURVE",
"1172 1460 CURVE SMOOTH",
"1154 1442 OFFCURVE",
"1136 1420 OFFCURVE",
"1120 1396 CURVE SMOOTH",
"1112 1384 LINE",
"1108 1380 OFFCURVE",
"1104 1376 OFFCURVE",
"1102 1372 CURVE",
"1054 1300 LINE",
"1052 1296 OFFCURVE",
"1048 1292 OFFCURVE",
"1046 1290 CURVE",
"1040 1282 OFFCURVE",
"1034 1272 OFFCURVE",
"1028 1262 CURVE",
"1016 1246 LINE",
"994 1212 LINE",
"984 1200 OFFCURVE",
"976 1188 OFFCURVE",
"968 1174 CURVE",
"962 1168 OFFCURVE",
"958 1160 OFFCURVE",
"954 1154 CURVE",
"946 1140 OFFCURVE",
"936 1128 OFFCURVE",
"926 1114 CURVE SMOOTH",
"920 1106 OFFCURVE",
"916 1098 OFFCURVE",
"912 1092 CURVE",
"906 1084 OFFCURVE",
"902 1076 OFFCURVE",
"898 1070 CURVE",
"892 1064 OFFCURVE",
"888 1056 OFFCURVE",
"884 1050 CURVE",
"878 1042 OFFCURVE",
"874 1034 OFFCURVE",
"870 1028 CURVE SMOOTH",
"860 1014 OFFCURVE",
"850 1002 OFFCURVE",
"842 988 CURVE",
"832 974 OFFCURVE",
"824 964 OFFCURVE",
"816 950 CURVE",
"804 932 LINE",
"796 918 OFFCURVE",
"790 908 OFFCURVE",
"784 900 CURVE",
"780 894 OFFCURVE",
"776 890 OFFCURVE",
"774 886 CURVE",
"772 880 OFFCURVE",
"768 876 OFFCURVE",
"766 872 CURVE",
"764 872 OFFCURVE",
"764 872 OFFCURVE",
"764 870 CURVE",
"760 866 LINE",
"760 864 OFFCURVE",
"758 860 OFFCURVE",
"758 860 CURVE",
"756 858 LINE",
"756 856 LINE",
"754 854 LINE",
"754 852 LINE",
"752 850 OFFCURVE",
"748 846 OFFCURVE",
"748 844 CURVE",
"744 840 LINE",
"742 840 LINE",
"742 838 LINE",
"740 836 LINE",
"740 834 LINE",
"738 832 OFFCURVE",
"734 828 OFFCURVE",
"732 824 CURVE",
"728 818 LINE",
"722 812 LINE",
"718 806 LINE",
"716 804 OFFCURVE",
"710 800 OFFCURVE",
"708 800 CURVE SMOOTH",
"704 800 LINE SMOOTH",
"702 800 OFFCURVE",
"702 800 OFFCURVE",
"700 802 CURVE",
"696 804 OFFCURVE",
"692 808 OFFCURVE",
"688 816 CURVE",
"680 828 LINE",
"678 834 OFFCURVE",
"674 838 OFFCURVE",
"672 844 CURVE",
"666 860 LINE",
"664 866 OFFCURVE",
"660 872 OFFCURVE",
"658 878 CURVE",
"652 890 OFFCURVE",
"648 902 OFFCURVE",
"644 916 CURVE",
"642 922 OFFCURVE",
"638 930 OFFCURVE",
"636 938 CURVE",
"630 958 LINE",
"622 978 LINE SMOOTH",
"616 992 OFFCURVE",
"612 1006 OFFCURVE",
"610 1016 CURVE SMOOTH",
"608 1026 OFFCURVE",
"604 1038 OFFCURVE",
"602 1046 CURVE",
"596 1060 LINE",
"594 1070 OFFCURVE",
"592 1080 OFFCURVE",
"588 1090 CURVE SMOOTH",
"576 1122 LINE",
"574 1128 OFFCURVE",
"574 1134 OFFCURVE",
"572 1140 CURVE SMOOTH",
"568 1152 OFFCURVE",
"564 1160 OFFCURVE",
"562 1174 CURVE",
"556 1192 LINE SMOOTH",
"554 1198 OFFCURVE",
"554 1204 OFFCURVE",
"552 1210 CURVE",
"546 1226 LINE",
"544 1236 OFFCURVE",
"540 1250 OFFCURVE",
"536 1262 CURVE",
"530 1278 LINE",
"528 1284 OFFCURVE",
"528 1290 OFFCURVE",
"526 1296 CURVE",
"520 1312 LINE",
"512 1344 OFFCURVE",
"502 1374 OFFCURVE",
"490 1400 CURVE SMOOTH",
"478 1426 OFFCURVE",
"462 1450 OFFCURVE",
"448 1468 CURVE",
"432 1486 OFFCURVE",
"416 1502 OFFCURVE",
"398 1512 CURVE",
"380 1520 OFFCURVE",
"362 1524 OFFCURVE",
"340 1524 CURVE SMOOTH",
"322 1524 OFFCURVE",
"306 1522 OFFCURVE",
"290 1516 CURVE",
"272 1508 OFFCURVE",
"252 1498 OFFCURVE",
"236 1488 CURVE",
"218 1474 OFFCURVE",
"200 1460 OFFCURVE",
"184 1444 CURVE SMOOTH",
"166 1426 OFFCURVE",
"150 1406 OFFCURVE",
"134 1384 CURVE",
"122 1366 LINE",
"114 1350 OFFCURVE",
"106 1334 OFFCURVE",
"100 1316 CURVE",
"88 1286 LINE SMOOTH",
"80 1264 OFFCURVE",
"74 1242 OFFCURVE",
"68 1218 CURVE",
"60 1192 OFFCURVE",
"54 1166 OFFCURVE",
"48 1136 CURVE SMOOTH",
"34 1072 OFFCURVE",
"24 1018 OFFCURVE",
"16 976 CURVE SMOOTH",
"8 934 OFFCURVE",
"2 902 OFFCURVE",
"0 880 CURVE",
"0 878 LINE",
"2 878 LINE",
"2 876 LINE SMOOTH",
"2 874 OFFCURVE",
"2 874 OFFCURVE",
"4 874 CURVE SMOOTH",
"8 874 LINE",
"10 876 LINE",
"14 882 LINE",
"28 896 LINE SMOOTH",
"30 898 OFFCURVE",
"34 902 OFFCURVE",
"38 904 CURVE",
"40 912 OFFCURVE",
"44 920 OFFCURVE",
"46 930 CURVE",
"52 944 LINE",
"64 978 LINE",
"70 994 LINE",
"76 1012 LINE SMOOTH",
"80 1024 OFFCURVE",
"84 1038 OFFCURVE",
"90 1050 CURVE SMOOTH",
"96 1062 OFFCURVE",
"100 1072 OFFCURVE",
"106 1086 CURVE",
"108 1092 OFFCURVE",
"112 1100 OFFCURVE",
"116 1106 CURVE",
"122 1116 OFFCURVE",
"128 1132 OFFCURVE",
"134 1142 CURVE SMOOTH",
"140 1152 OFFCURVE",
"146 1166 OFFCURVE",
"154 1174 CURVE",
"160 1184 OFFCURVE",
"168 1196 OFFCURVE",
"176 1204 CURVE",
"178 1208 OFFCURVE",
"182 1212 OFFCURVE",
"186 1216 CURVE",
"188 1220 OFFCURVE",
"192 1224 OFFCURVE",
"196 1228 CURVE",
"200 1230 OFFCURVE",
"204 1234 OFFCURVE",
"208 1238 CURVE SMOOTH",
"210 1240 OFFCURVE",
"214 1244 OFFCURVE",
"218 1246 CURVE SMOOTH",
"226 1250 OFFCURVE",
"232 1252 OFFCURVE",
"240 1252 CURVE SMOOTH",
"242 1252 OFFCURVE",
"246 1252 OFFCURVE",
"250 1250 CURVE",
"256 1246 OFFCURVE",
"262 1238 OFFCURVE",
"270 1228 CURVE",
"276 1218 OFFCURVE",
"282 1206 OFFCURVE",
"290 1190 CURVE",
"292 1180 OFFCURVE",
"296 1172 OFFCURVE",
"300 1162 CURVE SMOOTH",
"312 1130 LINE",
"314 1118 OFFCURVE",
"318 1106 OFFCURVE",
"322 1094 CURVE",
"328 1072 LINE SMOOTH",
"332 1056 OFFCURVE",
"336 1044 OFFCURVE",
"340 1032 CURVE SMOOTH",
"342 1026 OFFCURVE",
"342 1018 OFFCURVE",
"344 1012 CURVE",
"346 1002 OFFCURVE",
"350 990 OFFCURVE",
"354 980 CURVE",
"356 974 OFFCURVE",
"356 970 OFFCURVE",
"358 966 CURVE",
"360 958 OFFCURVE",
"364 948 OFFCURVE",
"366 936 CURVE",
"368 930 OFFCURVE",
"368 924 OFFCURVE",
"370 918 CURVE",
"372 908 OFFCURVE",
"376 898 OFFCURVE",
"378 890 CURVE",
"380 886 OFFCURVE",
"380 882 OFFCURVE",
"382 880 CURVE",
"382 876 OFFCURVE",
"382 872 OFFCURVE",
"384 870 CURVE",
"386 866 OFFCURVE",
"386 862 OFFCURVE",
"388 860 CURVE",
"388 854 OFFCURVE",
"390 850 OFFCURVE",
"392 844 CURVE",
"392 842 OFFCURVE",
"392 840 OFFCURVE",
"394 838 CURVE",
"394 834 OFFCURVE",
"396 830 OFFCURVE",
"398 824 CURVE",
"398 822 OFFCURVE",
"400 816 OFFCURVE",
"402 812 CURVE",
"404 810 OFFCURVE",
"404 806 OFFCURVE",
"406 804 CURVE",
"406 800 OFFCURVE",
"406 796 OFFCURVE",
"408 794 CURVE",
"408 792 OFFCURVE",
"408 792 OFFCURVE",
"410 792 CURVE",
"410 790 LINE SMOOTH",
"410 788 OFFCURVE",
"410 788 OFFCURVE",
"412 788 CURVE",
"412 784 LINE",
"414 782 LINE",
"414 778 LINE SMOOTH",
"414 776 OFFCURVE",
"414 776 OFFCURVE",
"416 774 CURVE",
"442 702 LINE SMOOTH",
"448 684 OFFCURVE",
"454 668 OFFCURVE",
"464 654 CURVE",
"472 638 OFFCURVE",
"484 626 OFFCURVE",
"498 618 CURVE",
"512 608 OFFCURVE",
"526 602 OFFCURVE",
"542 596 CURVE",
"556 590 OFFCURVE",
"572 590 OFFCURVE",
"590 590 CURVE SMOOTH",
"600 590 LINE SMOOTH",
"604 590 OFFCURVE",
"608 590 OFFCURVE",
"612 592 CURVE",
"614 592 OFFCURVE",
"618 592 OFFCURVE",
"622 594 CURVE",
"626 594 OFFCURVE",
"630 594 OFFCURVE",
"634 596 CURVE SMOOTH",
"638 598 OFFCURVE",
"642 598 OFFCURVE",
"648 600 CURVE",
"656 602 OFFCURVE",
"664 608 OFFCURVE",
"672 612 CURVE SMOOTH",
"680 616 OFFCURVE",
"690 620 OFFCURVE",
"698 626 CURVE SMOOTH",
"706 632 OFFCURVE",
"716 638 OFFCURVE",
"726 646 CURVE SMOOTH",
"734 652 OFFCURVE",
"744 660 OFFCURVE",
"752 670 CURVE",
"766 684 LINE",
"778 700 LINE",
"782 706 OFFCURVE",
"786 712 OFFCURVE",
"792 718 CURVE",
"796 724 LINE",
"808 740 LINE",
"812 746 LINE",
"820 754 LINE",
"824 760 OFFCURVE",
"828 764 OFFCURVE",
"832 772 CURVE",
"838 780 LINE",
"840 784 OFFCURVE",
"844 788 OFFCURVE",
"848 794 CURVE",
"850 798 OFFCURVE",
"854 802 OFFCURVE",
"856 808 CURVE",
"862 816 OFFCURVE",
"868 826 OFFCURVE",
"876 836 CURVE",
"878 840 OFFCURVE",
"882 844 OFFCURVE",
"886 850 CURVE",
"908 880 LINE SMOOTH",
"914 888 OFFCURVE",
"920 898 OFFCURVE",
"926 908 CURVE",
"928 912 OFFCURVE",
"932 916 OFFCURVE",
"936 920 CURVE",
"938 924 OFFCURVE",
"942 928 OFFCURVE",
"944 934 CURVE",
"968 970 LINE",
"974 976 OFFCURVE",
"978 984 OFFCURVE",
"984 992 CURVE",
"986 998 OFFCURVE",
"990 1002 OFFCURVE",
"994 1008 CURVE SMOOTH",
"998 1014 OFFCURVE",
"1002 1018 OFFCURVE",
"1004 1024 CURVE",
"1006 1028 OFFCURVE",
"1010 1032 OFFCURVE",
"1014 1038 CURVE SMOOTH",
"1038 1074 LINE",
"1044 1080 OFFCURVE",
"1046 1084 OFFCURVE",
"1048 1090 CURVE",
"1052 1094 LINE",
"1052 1096 OFFCURVE",
"1052 1096 OFFCURVE",
"1054 1098 CURVE SMOOTH",
"1056 1100 OFFCURVE",
"1058 1104 OFFCURVE",
"1058 1106 CURVE",
"1064 1114 LINE",
"1064 1116 OFFCURVE",
"1064 1116 OFFCURVE",
"1066 1118 CURVE SMOOTH",
"1068 1120 OFFCURVE",
"1068 1120 OFFCURVE",
"1068 1122 CURVE",
"1084 1144 LINE",
"1088 1148 OFFCURVE",
"1092 1152 OFFCURVE",
"1094 1156 CURVE SMOOTH",
"1096 1160 OFFCURVE",
"1100 1164 OFFCURVE",
"1104 1170 CURVE SMOOTH",
"1112 1182 LINE",
"1114 1186 OFFCURVE",
"1118 1190 OFFCURVE",
"1122 1196 CURVE",
"1124 1202 OFFCURVE",
"1128 1206 OFFCURVE",
"1132 1212 CURVE",
"1138 1220 OFFCURVE",
"1144 1230 OFFCURVE",
"1152 1240 CURVE",
"1154 1246 OFFCURVE",
"1158 1250 OFFCURVE",
"1160 1254 CURVE",
"1174 1276 OFFCURVE",
"1186 1294 OFFCURVE",
"1200 1304 CURVE SMOOTH",
"1214 1314 OFFCURVE",
"1224 1320 OFFCURVE",
"1238 1320 CURVE SMOOTH",
"1248 1320 OFFCURVE",
"1262 1314 OFFCURVE",
"1272 1304 CURVE",
"1280 1294 OFFCURVE",
"1292 1276 OFFCURVE",
"1300 1254 CURVE",
"1300 1256 LINE",
"1306 1234 LINE SMOOTH",
"1308 1226 OFFCURVE",
"1312 1218 OFFCURVE",
"1314 1210 CURVE",
"1320 1194 OFFCURVE",
"1326 1180 OFFCURVE",
"1334 1164 CURVE",
"1336 1162 OFFCURVE",
"1336 1158 OFFCURVE",
"1338 1156 CURVE",
"1338 1154 OFFCURVE",
"1338 1150 OFFCURVE",
"1340 1148 CURVE",
"1342 1142 OFFCURVE",
"1346 1138 OFFCURVE",
"1348 1132 CURVE",
"1348 1126 OFFCURVE",
"1352 1122 OFFCURVE",
"1354 1116 CURVE",
"1356 1114 OFFCURVE",
"1356 1110 OFFCURVE",
"1358 1108 CURVE",
"1358 1106 OFFCURVE",
"1358 1102 OFFCURVE",
"1360 1100 CURVE",
"1364 1094 LINE",
"1364 1088 OFFCURVE",
"1368 1082 OFFCURVE",
"1372 1074 CURVE",
"1374 1068 OFFCURVE",
"1374 1064 OFFCURVE",
"1376 1060 CURVE",
"1378 1054 OFFCURVE",
"1382 1050 OFFCURVE",
"1384 1044 CURVE",
"1396 1012 LINE",
"1400 996 LINE",
"1406 984 LINE SMOOTH",
"1408 980 OFFCURVE",
"1408 976 OFFCURVE",
"1410 972 CURVE",
"1412 964 OFFCURVE",
"1414 958 OFFCURVE",
"1420 950 CURVE",
"1422 944 OFFCURVE",
"1426 938 OFFCURVE",
"1428 932 CURVE",
"1428 926 OFFCURVE",
"1430 920 OFFCURVE",
"1432 918 CURVE",
"1434 912 OFFCURVE",
"1438 906 OFFCURVE",
"1440 900 CURVE SMOOTH",
"1442 894 OFFCURVE",
"1446 888 OFFCURVE",
"1448 882 CURVE SMOOTH",
"1454 864 LINE",
"1466 836 LINE",
"1468 832 OFFCURVE",
"1468 828 OFFCURVE",
"1470 824 CURVE",
"1472 816 OFFCURVE",
"1476 808 OFFCURVE",
"1478 802 CURVE",
"1480 794 OFFCURVE",
"1484 790 OFFCURVE",
"1486 784 CURVE",
"1490 778 LINE",
"1490 776 OFFCURVE",
"1490 772 OFFCURVE",
"1492 770 CURVE SMOOTH",
"1496 766 LINE",
"1496 762 OFFCURVE",
"1498 756 OFFCURVE",
"1500 754 CURVE",
"1500 752 LINE",
"1504 742 LINE",
"1510 726 LINE",
"1516 716 OFFCURVE",
"1520 704 OFFCURVE",
"1526 696 CURVE",
"1532 686 OFFCURVE",
"1538 676 OFFCURVE",
"1546 668 CURVE",
"1552 660 OFFCURVE",
"1560 652 OFFCURVE",
"1568 646 CURVE",
"1576 638 OFFCURVE",
"1584 632 OFFCURVE",
"1592 626 CURVE",
"1596 622 OFFCURVE",
"1600 620 OFFCURVE",
"1606 618 CURVE",
"1618 610 LINE",
"1632 604 LINE",
"1640 598 OFFCURVE",
"1650 596 OFFCURVE",
"1660 596 CURVE",
"1668 594 OFFCURVE",
"1678 592 OFFCURVE",
"1688 592 CURVE SMOOTH",
"1700 592 OFFCURVE",
"1712 594 OFFCURVE",
"1722 596 CURVE SMOOTH",
"1744 600 OFFCURVE",
"1764 604 OFFCURVE",
"1784 614 CURVE",
"1804 622 OFFCURVE",
"1822 636 OFFCURVE",
"1840 652 CURVE SMOOTH",
"1856 666 OFFCURVE",
"1872 682 OFFCURVE",
"1888 700 CURVE SMOOTH",
"1904 718 OFFCURVE",
"1916 738 OFFCURVE",
"1930 762 CURVE",
"1944 784 OFFCURVE",
"1956 806 OFFCURVE",
"1966 832 CURVE",
"1972 844 OFFCURVE",
"1976 856 OFFCURVE",
"1982 868 CURVE",
"1992 894 OFFCURVE",
"2000 922 OFFCURVE",
"2008 948 CURVE SMOOTH",
"2016 974 OFFCURVE",
"2022 1004 OFFCURVE",
"2028 1030 CURVE",
"2026 1034 OFFCURVE",
"2026 1038 OFFCURVE",
"2026 1042 CURVE SMOOTH",
"2026 1052 LINE",
"2024 1060 OFFCURVE",
"2022 1070 OFFCURVE",
"2022 1078 CURVE",
"2020 1082 OFFCURVE",
"2020 1086 OFFCURVE",
"2020 1092 CURVE",
"2018 1100 OFFCURVE",
"2016 1110 OFFCURVE",
"2016 1120 CURVE",
"2014 1124 OFFCURVE",
"2014 1128 OFFCURVE",
"2014 1134 CURVE",
"2022 1158 OFFCURVE",
"2028 1178 OFFCURVE",
"2032 1194 CURVE SMOOTH",
"2036 1210 OFFCURVE",
"2036 1220 OFFCURVE",
"2036 1226 CURVE SMOOTH",
"2036 1234 LINE",
"2034 1234 LINE",
"2034 1236 LINE",
"2030 1236 LINE SMOOTH",
"2028 1236 OFFCURVE",
"2024 1234 OFFCURVE",
"2022 1232 CURVE SMOOTH",
"2020 1230 OFFCURVE",
"2014 1226 OFFCURVE",
"2012 1220 CURVE SMOOTH",
"2010 1214 OFFCURVE",
"2006 1208 OFFCURVE",
"2006 1202 CURVE",
"2004 1196 OFFCURVE",
"2000 1190 OFFCURVE",
"1998 1184 CURVE SMOOTH",
"1996 1178 OFFCURVE",
"1996 1172 OFFCURVE",
"1994 1166 CURVE SMOOTH",
"1982 1126 LINE",
"1978 1110 OFFCURVE",
"1974 1098 OFFCURVE",
"1968 1084 CURVE",
"1962 1062 LINE SMOOTH",
"1958 1048 OFFCURVE",
"1952 1034 OFFCURVE",
"1946 1020 CURVE SMOOTH",
"1930 980 LINE",
"1926 974 OFFCURVE",
"1922 966 OFFCURVE",
"1920 960 CURVE",
"1914 946 OFFCURVE",
"1910 936 OFFCURVE",
"1904 924 CURVE",
"1900 918 OFFCURVE",
"1896 912 OFFCURVE",
"1894 906 CURVE",
"1888 894 OFFCURVE",
"1882 882 OFFCURVE",
"1876 874 CURVE",
"1872 868 OFFCURVE",
"1868 864 OFFCURVE",
"1866 860 CURVE",
"1860 852 OFFCURVE",
"1854 844 OFFCURVE",
"1848 838 CURVE SMOOTH",
"1838 828 LINE SMOOTH",
"1830 820 OFFCURVE",
"1826 816 OFFCURVE",
"1820 814 CURVE",
"1812 812 OFFCURVE",
"1806 810 OFFCURVE",
"1800 810 CURVE SMOOTH",
"1786 810 OFFCURVE",
"1778 816 OFFCURVE",
"1770 826 CURVE",
"1760 836 OFFCURVE",
"1750 850 OFFCURVE",
"1742 872 CURVE",
"1740 882 OFFCURVE",
"1736 890 OFFCURVE",
"1734 898 CURVE",
"1730 906 OFFCURVE",
"1726 914 OFFCURVE",
"1724 922 CURVE",
"1718 936 OFFCURVE",
"1714 950 OFFCURVE",
"1706 960 CURVE",
"1700 974 OFFCURVE",
"1696 986 OFFCURVE",
"1690 998 CURVE",
"1684 1014 LINE",
"1682 1020 OFFCURVE",
"1678 1026 OFFCURVE",
"1676 1032 CURVE",
"1668 1046 OFFCURVE",
"1662 1058 OFFCURVE",
"1656 1074 CURVE",
"1654 1080 OFFCURVE",
"1650 1088 OFFCURVE",
"1648 1096 CURVE",
"1640 1110 OFFCURVE",
"1634 1126 OFFCURVE",
"1628 1144 CURVE",
"1620 1160 OFFCURVE",
"1614 1178 OFFCURVE",
"1608 1200 CURVE",
"1596 1232 LINE",
"1594 1240 OFFCURVE",
"1592 1246 OFFCURVE",
"1588 1254 CURVE SMOOTH",
"1582 1266 LINE SMOOTH",
"1580 1270 OFFCURVE",
"1580 1274 OFFCURVE",
"1578 1276 CURVE",
"1572 1288 LINE",
"1570 1296 OFFCURVE",
"1568 1304 OFFCURVE",
"1564 1312 CURVE",
"1562 1314 OFFCURVE",
"1560 1318 OFFCURVE",
"1558 1322 CURVE",
"1556 1330 OFFCURVE",
"1552 1336 OFFCURVE",
"1550 1344 CURVE",
"1548 1346 OFFCURVE",
"1548 1350 OFFCURVE",
"1546 1354 CURVE SMOOTH",
"1544 1358 OFFCURVE",
"1544 1362 OFFCURVE",
"1542 1364 CURVE",
"1542 1366 OFFCURVE",
"1542 1370 OFFCURVE",
"1540 1374 CURVE",
"1538 1376 OFFCURVE",
"1538 1380 OFFCURVE",
"1538 1382 CURVE",
"1536 1384 OFFCURVE",
"1536 1388 OFFCURVE",
"1536 1390 CURVE",
"1534 1392 OFFCURVE",
"1534 1396 OFFCURVE",
"1534 1398 CURVE",
"1526 1416 OFFCURVE",
"1516 1436 OFFCURVE",
"1506 1452 CURVE SMOOTH",
"1496 1468 OFFCURVE",
"1480 1486 OFFCURVE",
"1464 1496 CURVE",
"1448 1510 OFFCURVE",
"1428 1520 OFFCURVE",
"1410 1528 CURVE",
"1392 1534 OFFCURVE",
"1370 1536 OFFCURVE",
"1348 1536 CURVE SMOOTH"
);
},
{
closed = 1;
nodes = (
"1334 434 LINE SMOOTH",
"1326 434 OFFCURVE",
"1314 432 OFFCURVE",
"1306 430 CURVE SMOOTH",
"1290 426 LINE",
"1284 424 OFFCURVE",
"1280 424 OFFCURVE",
"1276 422 CURVE",
"1260 416 LINE",
"1254 414 OFFCURVE",
"1250 410 OFFCURVE",
"1246 408 CURVE",
"1240 406 OFFCURVE",
"1236 402 OFFCURVE",
"1230 400 CURVE SMOOTH",
"1224 398 OFFCURVE",
"1220 394 OFFCURVE",
"1214 392 CURVE",
"1204 384 OFFCURVE",
"1194 376 OFFCURVE",
"1186 368 CURVE",
"1170 356 LINE",
"1162 348 OFFCURVE",
"1152 338 OFFCURVE",
"1144 328 CURVE",
"1134 318 OFFCURVE",
"1126 306 OFFCURVE",
"1120 296 CURVE",
"1118 294 OFFCURVE",
"1118 294 OFFCURVE",
"1118 292 CURVE",
"1114 288 LINE",
"1110 282 LINE",
"1104 274 LINE",
"1102 268 OFFCURVE",
"1098 262 OFFCURVE",
"1092 256 CURVE",
"1086 248 OFFCURVE",
"1080 238 OFFCURVE",
"1074 228 CURVE",
"1072 228 OFFCURVE",
"1072 228 OFFCURVE",
"1072 226 CURVE",
"1070 224 OFFCURVE",
"1070 224 OFFCURVE",
"1068 224 CURVE",
"1066 222 OFFCURVE",
"1066 222 OFFCURVE",
"1066 220 CURVE",
"1064 218 OFFCURVE",
"1062 214 OFFCURVE",
"1062 212 CURVE",
"1060 210 OFFCURVE",
"1058 208 OFFCURVE",
"1058 204 CURVE",
"1054 198 LINE",
"1052 196 OFFCURVE",
"1048 192 OFFCURVE",
"1046 188 CURVE",
"1038 176 LINE",
"1034 172 OFFCURVE",
"1030 168 OFFCURVE",
"1028 162 CURVE",
"1016 146 LINE",
"1014 140 OFFCURVE",
"1010 136 OFFCURVE",
"1006 130 CURVE",
"998 120 OFFCURVE",
"990 110 OFFCURVE",
"982 96 CURVE",
"972 82 OFFCURVE",
"964 72 OFFCURVE",
"956 58 CURVE SMOOTH",
"944 38 LINE",
"934 24 OFFCURVE",
"924 12 OFFCURVE",
"914 -4 CURVE SMOOTH",
"902 -24 LINE",
"896 -30 OFFCURVE",
"892 -38 OFFCURVE",
"888 -44 CURVE",
"882 -52 OFFCURVE",
"878 -60 OFFCURVE",
"874 -66 CURVE SMOOTH",
"864 -80 OFFCURVE",
"854 -92 OFFCURVE",
"846 -106 CURVE SMOOTH",
"834 -126 LINE",
"824 -140 OFFCURVE",
"816 -150 OFFCURVE",
"808 -164 CURVE",
"796 -182 LINE",
"788 -192 OFFCURVE",
"782 -204 OFFCURVE",
"776 -214 CURVE",
"772 -220 OFFCURVE",
"768 -224 OFFCURVE",
"766 -228 CURVE",
"758 -242 OFFCURVE",
"750 -254 OFFCURVE",
"744 -262 CURVE",
"740 -268 OFFCURVE",
"736 -272 OFFCURVE",
"734 -276 CURVE SMOOTH",
"732 -280 OFFCURVE",
"728 -284 OFFCURVE",
"726 -286 CURVE SMOOTH",
"714 -298 LINE",
"710 -300 OFFCURVE",
"706 -302 OFFCURVE",
"704 -302 CURVE SMOOTH",
"700 -302 LINE SMOOTH",
"698 -302 OFFCURVE",
"694 -298 OFFCURVE",
"692 -294 CURVE",
"688 -290 LINE",
"686 -284 OFFCURVE",
"682 -280 OFFCURVE",
"680 -274 CURVE",
"678 -272 OFFCURVE",
"678 -268 OFFCURVE",
"676 -264 CURVE",
"674 -262 OFFCURVE",
"672 -258 OFFCURVE",
"670 -254 CURVE",
"668 -252 OFFCURVE",
"668 -248 OFFCURVE",
"666 -244 CURVE SMOOTH",
"664 -240 OFFCURVE",
"664 -236 OFFCURVE",
"662 -232 CURVE",
"656 -218 LINE",
"650 -206 LINE",
"648 -196 OFFCURVE",
"646 -188 OFFCURVE",
"642 -178 CURVE",
"638 -170 OFFCURVE",
"634 -160 OFFCURVE",
"632 -150 CURVE",
"626 -136 LINE",
"624 -128 OFFCURVE",
"620 -120 OFFCURVE",
"618 -112 CURVE",
"616 -108 OFFCURVE",
"616 -104 OFFCURVE",
"614 -98 CURVE",
"612 -94 OFFCURVE",
"612 -90 OFFCURVE",
"610 -86 CURVE",
"608 -84 OFFCURVE",
"608 -80 OFFCURVE",
"606 -76 CURVE",
"604 -68 OFFCURVE",
"602 -64 OFFCURVE",
"602 -56 CURVE",
"600 -52 OFFCURVE",
"600 -48 OFFCURVE",
"598 -42 CURVE",
"594 -34 OFFCURVE",
"590 -24 OFFCURVE",
"588 -14 CURVE",
"582 2 LINE",
"580 8 OFFCURVE",
"580 14 OFFCURVE",
"578 20 CURVE",
"572 36 LINE",
"570 42 OFFCURVE",
"570 48 OFFCURVE",
"568 54 CURVE",
"562 70 LINE",
"560 84 OFFCURVE",
"556 96 OFFCURVE",
"552 108 CURVE SMOOTH",
"546 126 LINE",
"544 138 OFFCURVE",
"540 150 OFFCURVE",
"536 160 CURVE",
"530 178 LINE",
"526 194 LINE",
"520 212 LINE",
"518 220 OFFCURVE",
"514 228 OFFCURVE",
"512 236 CURVE",
"506 250 OFFCURVE",
"502 264 OFFCURVE",
"496 278 CURVE",
"492 284 OFFCURVE",
"488 292 OFFCURVE",
"486 298 CURVE",
"478 318 LINE",
"456 352 LINE",
"448 360 OFFCURVE",
"440 370 OFFCURVE",
"432 380 CURVE",
"420 392 LINE",
"414 394 OFFCURVE",
"410 398 OFFCURVE",
"406 402 CURVE",
"398 408 OFFCURVE",
"390 412 OFFCURVE",
"382 416 CURVE",
"376 418 OFFCURVE",
"372 418 OFFCURVE",
"368 420 CURVE",
"358 422 OFFCURVE",
"348 424 OFFCURVE",
"340 424 CURVE SMOOTH",
"306 424 OFFCURVE",
"270 412 OFFCURVE",
"236 390 CURVE",
"202 366 OFFCURVE",
"166 330 OFFCURVE",
"134 282 CURVE",
"118 260 OFFCURVE",
"104 228 OFFCURVE",
"90 188 CURVE SMOOTH",
"74 146 OFFCURVE",
"62 94 OFFCURVE",
"48 36 CURVE SMOOTH",
"34 -28 OFFCURVE",
"24 -82 OFFCURVE",
"16 -124 CURVE SMOOTH",
"8 -166 OFFCURVE",
"2 -196 OFFCURVE",
"0 -218 CURVE",
"0 -220 LINE SMOOTH",
"0 -222 OFFCURVE",
"0 -222 OFFCURVE",
"2 -222 CURVE SMOOTH",
"4 -222 LINE",
"4 -224 LINE",
"8 -224 LINE",
"10 -222 LINE",
"10 -220 LINE",
"20 -210 LINE SMOOTH",
"22 -208 OFFCURVE",
"24 -206 OFFCURVE",
"28 -204 CURVE",
"34 -200 OFFCURVE",
"40 -192 OFFCURVE",
"42 -182 CURVE",
"48 -166 LINE",
"52 -158 OFFCURVE",
"56 -144 OFFCURVE",
"58 -134 CURVE",
"64 -120 OFFCURVE",
"68 -108 OFFCURVE",
"72 -96 CURVE SMOOTH",
"78 -78 LINE SMOOTH",
"80 -72 OFFCURVE",
"84 -66 OFFCURVE",
"86 -60 CURVE",
"92 -50 OFFCURVE",
"96 -38 OFFCURVE",
"102 -24 CURVE",
"104 -18 OFFCURVE",
"108 -10 OFFCURVE",
"112 -4 CURVE",
"114 2 OFFCURVE",
"118 6 OFFCURVE",
"120 12 CURVE",
"126 26 OFFCURVE",
"132 38 OFFCURVE",
"140 48 CURVE",
"142 54 OFFCURVE",
"146 58 OFFCURVE",
"148 64 CURVE SMOOTH",
"150 70 OFFCURVE",
"154 74 OFFCURVE",
"158 78 CURVE",
"160 84 OFFCURVE",
"164 88 OFFCURVE",
"168 94 CURVE",
"174 102 OFFCURVE",
"180 110 OFFCURVE",
"188 118 CURVE SMOOTH",
"198 128 LINE SMOOTH",
"204 134 OFFCURVE",
"212 140 OFFCURVE",
"220 144 CURVE",
"226 148 OFFCURVE",
"232 150 OFFCURVE",
"240 150 CURVE SMOOTH",
"242 150 OFFCURVE",
"246 150 OFFCURVE",
"250 148 CURVE",
"256 144 OFFCURVE",
"262 136 OFFCURVE",
"270 128 CURVE",
"276 118 OFFCURVE",
"282 104 OFFCURVE",
"290 88 CURVE",
"312 30 LINE",
"314 18 OFFCURVE",
"318 6 OFFCURVE",
"322 -8 CURVE SMOOTH",
"326 -24 OFFCURVE",
"330 -40 OFFCURVE",
"336 -54 CURVE",
"344 -84 OFFCURVE",
"352 -110 OFFCURVE",
"360 -134 CURVE",
"362 -146 OFFCURVE",
"366 -156 OFFCURVE",
"368 -166 CURVE",
"374 -188 OFFCURVE",
"378 -206 OFFCURVE",
"384 -222 CURVE SMOOTH",
"390 -238 OFFCURVE",
"394 -252 OFFCURVE",
"396 -266 CURVE",
"408 -298 LINE",
"410 -304 OFFCURVE",
"410 -308 OFFCURVE",
"412 -312 CURVE",
"414 -318 OFFCURVE",
"414 -322 OFFCURVE",
"416 -326 CURVE",
"418 -334 OFFCURVE",
"422 -342 OFFCURVE",
"424 -350 CURVE SMOOTH",
"426 -358 OFFCURVE",
"430 -366 OFFCURVE",
"432 -374 CURVE",
"432 -376 OFFCURVE",
"432 -376 OFFCURVE",
"434 -376 CURVE",
"434 -380 LINE SMOOTH",
"434 -382 OFFCURVE",
"434 -382 OFFCURVE",
"436 -384 CURVE",
"436 -386 LINE SMOOTH",
"436 -388 OFFCURVE",
"438 -392 OFFCURVE",
"440 -394 CURVE",
"440 -396 LINE SMOOTH",
"440 -398 OFFCURVE",
"440 -398 OFFCURVE",
"442 -400 CURVE",
"448 -418 OFFCURVE",
"454 -436 OFFCURVE",
"464 -450 CURVE",
"472 -464 OFFCURVE",
"484 -476 OFFCURVE",
"500 -484 CURVE",
"514 -494 OFFCURVE",
"528 -500 OFFCURVE",
"544 -504 CURVE SMOOTH",
"558 -508 OFFCURVE",
"574 -512 OFFCURVE",
"590 -512 CURVE SMOOTH",
"600 -512 LINE SMOOTH",
"606 -512 OFFCURVE",
"614 -510 OFFCURVE",
"622 -508 CURVE",
"630 -508 OFFCURVE",
"638 -504 OFFCURVE",
"646 -502 CURVE SMOOTH",
"654 -500 OFFCURVE",
"662 -496 OFFCURVE",
"672 -492 CURVE",
"680 -488 OFFCURVE",
"690 -484 OFFCURVE",
"698 -478 CURVE SMOOTH",
"706 -472 OFFCURVE",
"716 -466 OFFCURVE",
"726 -458 CURVE SMOOTH",
"734 -452 OFFCURVE",
"744 -444 OFFCURVE",
"752 -434 CURVE",
"766 -420 LINE",
"778 -404 LINE SMOOTH",
"786 -394 OFFCURVE",
"796 -382 OFFCURVE",
"800 -374 CURVE SMOOTH",
"802 -370 OFFCURVE",
"804 -366 OFFCURVE",
"808 -362 CURVE",
"824 -338 LINE",
"826 -334 OFFCURVE",
"830 -330 OFFCURVE",
"834 -324 CURVE SMOOTH",
"842 -312 LINE",
"844 -308 OFFCURVE",
"848 -304 OFFCURVE",
"852 -300 CURVE",
"868 -276 LINE",
"870 -272 OFFCURVE",
"874 -268 OFFCURVE",
"878 -264 CURVE",
"884 -256 OFFCURVE",
"890 -250 OFFCURVE",
"892 -242 CURVE",
"900 -230 LINE",
"906 -224 OFFCURVE",
"910 -220 OFFCURVE",
"912 -212 CURVE",
"918 -204 LINE",
"958 -144 LINE",
"964 -138 OFFCURVE",
"970 -130 OFFCURVE",
"974 -122 CURVE",
"976 -120 OFFCURVE",
"978 -116 OFFCURVE",
"980 -112 CURVE",
"988 -104 OFFCURVE",
"994 -94 OFFCURVE",
"1000 -84 CURVE",
"1002 -80 OFFCURVE",
"1006 -76 OFFCURVE",
"1010 -70 CURVE SMOOTH",
"1034 -34 LINE",
"1040 -26 OFFCURVE",
"1046 -18 OFFCURVE",
"1048 -10 CURVE",
"1054 -4 OFFCURVE",
"1058 4 OFFCURVE",
"1064 12 CURVE",
"1066 16 OFFCURVE",
"1070 20 OFFCURVE",
"1074 24 CURVE",
"1098 60 LINE",
"1100 64 OFFCURVE",
"1104 68 OFFCURVE",
"1108 74 CURVE",
"1114 82 OFFCURVE",
"1120 92 OFFCURVE",
"1128 102 CURVE",
"1130 108 OFFCURVE",
"1134 112 OFFCURVE",
"1138 118 CURVE SMOOTH",
"1150 136 LINE",
"1152 142 OFFCURVE",
"1156 146 OFFCURVE",
"1160 152 CURVE SMOOTH",
"1174 174 OFFCURVE",
"1186 192 OFFCURVE",
"1200 202 CURVE SMOOTH",
"1214 212 OFFCURVE",
"1224 218 OFFCURVE",
"1238 218 CURVE SMOOTH",
"1248 218 OFFCURVE",
"1260 212 OFFCURVE",
"1270 202 CURVE SMOOTH",
"1280 192 OFFCURVE",
"1290 174 OFFCURVE",
"1300 152 CURVE",
"1300 150 OFFCURVE",
"1300 146 OFFCURVE",
"1302 144 CURVE",
"1302 138 OFFCURVE",
"1304 134 OFFCURVE",
"1306 128 CURVE SMOOTH",
"1308 122 OFFCURVE",
"1312 118 OFFCURVE",
"1314 112 CURVE",
"1316 110 OFFCURVE",
"1316 106 OFFCURVE",
"1318 104 CURVE",
"1318 100 OFFCURVE",
"1320 96 OFFCURVE",
"1322 94 CURVE SMOOTH",
"1324 92 OFFCURVE",
"1324 88 OFFCURVE",
"1326 86 CURVE",
"1328 80 OFFCURVE",
"1332 74 OFFCURVE",
"1334 68 CURVE",
"1334 66 OFFCURVE",
"1334 64 OFFCURVE",
"1336 62 CURVE SMOOTH",
"1338 60 OFFCURVE",
"1338 56 OFFCURVE",
"1338 54 CURVE",
"1344 40 LINE",
"1344 38 OFFCURVE",
"1344 36 OFFCURVE",
"1346 34 CURVE SMOOTH",
"1348 32 OFFCURVE",
"1348 28 OFFCURVE",
"1348 26 CURVE",
"1350 20 OFFCURVE",
"1354 14 OFFCURVE",
"1356 6 CURVE SMOOTH",
"1358 -2 OFFCURVE",
"1360 -10 OFFCURVE",
"1366 -18 CURVE",
"1368 -28 OFFCURVE",
"1372 -38 OFFCURVE",
"1378 -50 CURVE SMOOTH",
"1384 -62 OFFCURVE",
"1388 -78 OFFCURVE",
"1394 -94 CURVE",
"1396 -96 OFFCURVE",
"1396 -100 OFFCURVE",
"1398 -102 CURVE",
"1400 -106 OFFCURVE",
"1402 -110 OFFCURVE",
"1404 -112 CURVE",
"1406 -116 OFFCURVE",
"1406 -120 OFFCURVE",
"1408 -122 CURVE",
"1410 -130 OFFCURVE",
"1414 -136 OFFCURVE",
"1416 -142 CURVE",
"1418 -150 OFFCURVE",
"1422 -156 OFFCURVE",
"1424 -162 CURVE",
"1426 -166 OFFCURVE",
"1426 -170 OFFCURVE",
"1428 -174 CURVE",
"1430 -180 OFFCURVE",
"1434 -184 OFFCURVE",
"1436 -190 CURVE",
"1442 -206 LINE",
"1448 -216 OFFCURVE",
"1452 -228 OFFCURVE",
"1454 -236 CURVE",
"1466 -264 LINE",
"1468 -268 OFFCURVE",
"1468 -272 OFFCURVE",
"1470 -276 CURVE SMOOTH",
"1472 -280 OFFCURVE",
"1472 -284 OFFCURVE",
"1474 -286 CURVE",
"1478 -294 OFFCURVE",
"1482 -302 OFFCURVE",
"1484 -308 CURVE SMOOTH",
"1486 -314 OFFCURVE",
"1490 -320 OFFCURVE",
"1492 -326 CURVE",
"1498 -342 LINE",
"1500 -346 OFFCURVE",
"1500 -350 OFFCURVE",
"1502 -354 CURVE",
"1502 -356 OFFCURVE",
"1504 -360 OFFCURVE",
"1504 -360 CURVE",
"1510 -376 LINE SMOOTH",
"1514 -386 OFFCURVE",
"1518 -398 OFFCURVE",
"1526 -406 CURVE",
"1532 -416 OFFCURVE",
"1538 -426 OFFCURVE",
"1546 -434 CURVE",
"1552 -442 OFFCURVE",
"1560 -450 OFFCURVE",
"1568 -456 CURVE",
"1576 -464 OFFCURVE",
"1584 -470 OFFCURVE",
"1592 -476 CURVE",
"1596 -480 OFFCURVE",
"1600 -482 OFFCURVE",
"1606 -484 CURVE",
"1610 -486 OFFCURVE",
"1614 -490 OFFCURVE",
"1620 -492 CURVE",
"1628 -498 OFFCURVE",
"1638 -500 OFFCURVE",
"1648 -502 CURVE",
"1656 -504 OFFCURVE",
"1666 -508 OFFCURVE",
"1676 -508 CURVE SMOOTH",
"1688 -508 LINE SMOOTH",
"1712 -508 OFFCURVE",
"1732 -506 OFFCURVE",
"1754 -498 CURVE",
"1776 -492 OFFCURVE",
"1796 -484 OFFCURVE",
"1814 -470 CURVE",
"1830 -460 OFFCURVE",
"1850 -444 OFFCURVE",
"1866 -426 CURVE",
"1882 -410 OFFCURVE",
"1896 -392 OFFCURVE",
"1910 -370 CURVE",
"1926 -348 OFFCURVE",
"1938 -326 OFFCURVE",
"1950 -302 CURVE SMOOTH",
"1962 -278 OFFCURVE",
"1972 -252 OFFCURVE",
"1982 -226 CURVE SMOOTH",
"1992 -200 OFFCURVE",
"2000 -172 OFFCURVE",
"2008 -144 CURVE SMOOTH",
"2016 -116 OFFCURVE",
"2022 -90 OFFCURVE",
"2028 -60 CURVE",
"2026 -50 OFFCURVE",
"2022 -36 OFFCURVE",
"2022 -20 CURVE",
"2020 -14 OFFCURVE",
"2020 -6 OFFCURVE",
"2018 2 CURVE SMOOTH",
"2016 10 OFFCURVE",
"2016 18 OFFCURVE",
"2014 28 CURVE",
"2018 42 OFFCURVE",
"2022 54 OFFCURVE",
"2024 64 CURVE",
"2036 112 LINE",
"2036 130 LINE",
"2034 132 LINE",
"2026 132 LINE SMOOTH",
"2024 132 OFFCURVE",
"2020 130 OFFCURVE",
"2018 126 CURVE SMOOTH",
"2016 122 OFFCURVE",
"2012 116 OFFCURVE",
"2010 110 CURVE SMOOTH",
"2008 104 OFFCURVE",
"2004 100 OFFCURVE",
"2002 94 CURVE",
"2000 90 OFFCURVE",
"2000 86 OFFCURVE",
"1998 84 CURVE",
"1996 74 OFFCURVE",
"1992 66 OFFCURVE",
"1990 56 CURVE",
"1982 24 LINE",
"1978 14 OFFCURVE",
"1974 2 OFFCURVE",
"1972 -8 CURVE",
"1948 -72 LINE SMOOTH",
"1940 -94 OFFCURVE",
"1932 -112 OFFCURVE",
"1924 -132 CURVE",
"1918 -142 OFFCURVE",
"1914 -152 OFFCURVE",
"1910 -162 CURVE",
"1902 -180 OFFCURVE",
"1892 -198 OFFCURVE",
"1884 -214 CURVE",
"1874 -230 OFFCURVE",
"1864 -242 OFFCURVE",
"1854 -256 CURVE",
"1846 -266 OFFCURVE",
"1836 -276 OFFCURVE",
"1828 -282 CURVE SMOOTH",
"1818 -290 OFFCURVE",
"1808 -292 OFFCURVE",
"1800 -292 CURVE SMOOTH",
"1786 -292 OFFCURVE",
"1778 -286 OFFCURVE",
"1770 -276 CURVE",
"1760 -266 OFFCURVE",
"1750 -250 OFFCURVE",
"1742 -228 CURVE",
"1740 -226 OFFCURVE",
"1740 -224 OFFCURVE",
"1740 -222 CURVE",
"1738 -220 OFFCURVE",
"1738 -218 OFFCURVE",
"1738 -216 CURVE",
"1736 -212 OFFCURVE",
"1734 -210 OFFCURVE",
"1732 -208 CURVE",
"1732 -202 LINE",
"1730 -200 OFFCURVE",
"1730 -198 OFFCURVE",
"1730 -196 CURVE",
"1728 -192 OFFCURVE",
"1726 -192 OFFCURVE",
"1724 -186 CURVE",
"1724 -184 OFFCURVE",
"1724 -180 OFFCURVE",
"1722 -178 CURVE SMOOTH",
"1720 -176 OFFCURVE",
"1720 -172 OFFCURVE",
"1720 -170 CURVE",
"1714 -156 LINE",
"1712 -154 OFFCURVE",
"1712 -150 OFFCURVE",
"1712 -148 CURVE",
"1710 -144 OFFCURVE",
"1708 -142 OFFCURVE",
"1706 -136 CURVE",
"1704 -134 OFFCURVE",
"1704 -132 OFFCURVE",
"1704 -130 CURVE",
"1698 -118 LINE",
"1696 -116 OFFCURVE",
"1696 -112 OFFCURVE",
"1694 -108 CURVE",
"1692 -102 OFFCURVE",
"1688 -98 OFFCURVE",
"1686 -92 CURVE",
"1684 -88 OFFCURVE",
"1684 -84 OFFCURVE",
"1682 -82 CURVE",
"1680 -76 OFFCURVE",
"1676 -72 OFFCURVE",
"1674 -66 CURVE",
"1672 -64 OFFCURVE",
"1672 -62 OFFCURVE",
"1672 -60 CURVE",
"1670 -58 OFFCURVE",
"1670 -54 OFFCURVE",
"1668 -52 CURVE SMOOTH",
"1666 -50 OFFCURVE",
"1666 -46 OFFCURVE",
"1666 -44 CURVE",
"1664 -42 OFFCURVE",
"1664 -38 OFFCURVE",
"1662 -36 CURVE",
"1658 -30 LINE",
"1658 -24 OFFCURVE",
"1654 -20 OFFCURVE",
"1652 -14 CURVE",
"1650 -12 OFFCURVE",
"1650 -8 OFFCURVE",
"1650 -6 CURVE",
"1648 -4 OFFCURVE",
"1648 0 OFFCURVE",
"1646 2 CURVE SMOOTH",
"1644 4 OFFCURVE",
"1644 4 OFFCURVE",
"1644 6 CURVE SMOOTH",
"1644 8 LINE",
"1642 8 OFFCURVE",
"1642 8 OFFCURVE",
"1642 10 CURVE SMOOTH",
"1642 12 OFFCURVE",
"1642 12 OFFCURVE",
"1640 14 CURVE",
"1640 16 LINE",
"1638 18 OFFCURVE",
"1638 18 OFFCURVE",
"1638 20 CURVE SMOOTH",
"1638 24 LINE",
"1636 24 OFFCURVE",
"1636 24 OFFCURVE",
"1636 26 CURVE",
"1634 30 OFFCURVE",
"1634 34 OFFCURVE",
"1632 38 CURVE",
"1630 40 OFFCURVE",
"1630 44 OFFCURVE",
"1628 48 CURVE SMOOTH",
"1626 52 OFFCURVE",
"1626 56 OFFCURVE",
"1624 60 CURVE",
"1622 62 OFFCURVE",
"1620 66 OFFCURVE",
"1618 70 CURVE",
"1616 72 OFFCURVE",
"1616 76 OFFCURVE",
"1614 80 CURVE",
"1612 82 OFFCURVE",
"1612 86 OFFCURVE",
"1610 90 CURVE",
"1608 92 OFFCURVE",
"1608 96 OFFCURVE",
"1606 100 CURVE SMOOTH",
"1604 104 OFFCURVE",
"1604 108 OFFCURVE",
"1602 110 CURVE",
"1598 120 OFFCURVE",
"1594 128 OFFCURVE",
"1592 138 CURVE",
"1588 148 OFFCURVE",
"1584 156 OFFCURVE",
"1582 166 CURVE",
"1574 182 OFFCURVE",
"1568 198 OFFCURVE",
"1560 214 CURVE",
"1558 222 OFFCURVE",
"1554 230 OFFCURVE",
"1552 238 CURVE",
"1540 278 LINE SMOOTH",
"1536 292 OFFCURVE",
"1532 304 OFFCURVE",
"1528 314 CURVE",
"1524 322 OFFCURVE",
"1520 332 OFFCURVE",
"1514 342 CURVE",
"1510 346 OFFCURVE",
"1506 350 OFFCURVE",
"1504 354 CURVE",
"1496 366 LINE",
"1472 388 LINE",
"1448 406 LINE SMOOTH",
"1440 412 OFFCURVE",
"1430 416 OFFCURVE",
"1422 420 CURVE",
"1412 424 OFFCURVE",
"1402 428 OFFCURVE",
"1394 430 CURVE",
"1384 432 OFFCURVE",
"1372 434 OFFCURVE",
"1364 434 CURVE SMOOTH"
);
},
{
closed = 1;
nodes = (
"2040 38 OFFCURVE",
"2040 34 OFFCURVE",
"2040 30 CURVE SMOOTH",
"2040 18 LINE",
"2038 12 OFFCURVE",
"2038 8 OFFCURVE",
"2038 4 CURVE SMOOTH",
"2038 0 OFFCURVE",
"2036 -4 OFFCURVE",
"2034 -8 CURVE",
"2036 -12 OFFCURVE",
"2036 -16 OFFCURVE",
"2034 -20 CURVE",
"2032 -26 OFFCURVE",
"2032 -30 OFFCURVE",
"2032 -34 CURVE SMOOTH",
"2032 -38 OFFCURVE",
"2032 -42 OFFCURVE",
"2030 -46 CURVE",
"2028 -52 OFFCURVE",
"2028 -56 OFFCURVE",
"2028 -60 CURVE",
"2034 -112 LINE",
"2040 -148 LINE",
"2040 -158 OFFCURVE",
"2042 -166 OFFCURVE",
"2044 -172 CURVE SMOOTH",
"2046 -178 OFFCURVE",
"2046 -180 OFFCURVE",
"2044 -180 CURVE",
"2046 -130 LINE",
"2044 -128 OFFCURVE",
"2044 -124 OFFCURVE",
"2046 -122 CURVE",
"2046 -114 LINE",
"2044 -112 OFFCURVE",
"2044 -108 OFFCURVE",
"2046 -106 CURVE",
"2046 -104 OFFCURVE",
"2046 -102 OFFCURVE",
"2044 -100 CURVE",
"2046 -98 OFFCURVE",
"2046 -96 OFFCURVE",
"2046 -94 CURVE",
"2044 -92 OFFCURVE",
"2044 -90 OFFCURVE",
"2046 -88 CURVE",
"2046 -82 LINE",
"2044 -80 OFFCURVE",
"2044 -76 OFFCURVE",
"2046 -74 CURVE",
"2044 -72 OFFCURVE",
"2044 -68 OFFCURVE",
"2046 -66 CURVE",
"2046 -56 LINE",
"2044 -52 OFFCURVE",
"2044 -48 OFFCURVE",
"2046 -44 CURVE",
"2046 -42 OFFCURVE",
"2046 -38 OFFCURVE",
"2044 -32 CURVE",
"2046 -28 OFFCURVE",
"2046 -24 OFFCURVE",
"2044 -18 CURVE SMOOTH",
"2042 -12 OFFCURVE",
"2042 -6 OFFCURVE",
"2044 0 CURVE",
"2044 20 LINE",
"2042 26 OFFCURVE",
"2042 34 OFFCURVE",
"2042 42 CURVE"
);
},
{
closed = 1;
nodes = (
"2044 1138 OFFCURVE",
"2044 1138 OFFCURVE",
"2042 1136 CURVE SMOOTH",
"2040 1134 OFFCURVE",
"2040 1134 OFFCURVE",
"2042 1132 CURVE",
"2042 1130 LINE",
"2040 1128 OFFCURVE",
"2040 1128 OFFCURVE",
"2042 1126 CURVE",
"2040 1124 OFFCURVE",
"2040 1124 OFFCURVE",
"2042 1124 CURVE",
"2042 1120 LINE",
"2040 1118 OFFCURVE",
"2040 1118 OFFCURVE",
"2040 1116 CURVE SMOOTH",
"2040 1114 OFFCURVE",
"2040 1114 OFFCURVE",
"2038 1112 CURVE",
"2040 1112 LINE",
"2040 1102 LINE",
"2038 1098 OFFCURVE",
"2038 1094 OFFCURVE",
"2038 1092 CURVE SMOOTH",
"2038 1082 LINE",
"2036 1074 OFFCURVE",
"2034 1068 OFFCURVE",
"2034 1062 CURVE",
"2032 1054 OFFCURVE",
"2030 1048 OFFCURVE",
"2030 1042 CURVE",
"2028 1038 OFFCURVE",
"2028 1034 OFFCURVE",
"2028 1030 CURVE",
"2030 1012 OFFCURVE",
"2034 998 OFFCURVE",
"2036 984 CURVE SMOOTH",
"2040 958 OFFCURVE",
"2042 940 OFFCURVE",
"2044 932 CURVE SMOOTH",
"2046 924 LINE",
"2046 984 LINE SMOOTH",
"2046 986 OFFCURVE",
"2046 990 OFFCURVE",
"2048 992 CURVE",
"2048 1000 LINE",
"2046 1002 OFFCURVE",
"2046 1002 OFFCURVE",
"2048 1004 CURVE",
"2046 1006 OFFCURVE",
"2046 1008 OFFCURVE",
"2048 1010 CURVE",
"2048 1016 LINE",
"2046 1018 OFFCURVE",
"2046 1020 OFFCURVE",
"2048 1022 CURVE",
"2048 1024 OFFCURVE",
"2048 1026 OFFCURVE",
"2046 1028 CURVE",
"2048 1030 OFFCURVE",
"2048 1034 OFFCURVE",
"2048 1036 CURVE",
"2046 1038 OFFCURVE",
"2046 1042 OFFCURVE",
"2048 1046 CURVE",
"2048 1056 LINE",
"2046 1062 OFFCURVE",
"2044 1070 OFFCURVE",
"2046 1080 CURVE",
"2046 1098 LINE",
"2044 1104 OFFCURVE",
"2044 1110 OFFCURVE",
"2044 1118 CURVE SMOOTH",
"2044 1124 OFFCURVE",
"2044 1132 OFFCURVE",
"2042 1140 CURVE"
);
}
);
width = 2048;
}
);
unicode = 2652;
},
{
glyphname = pisces;
lastChange = "2014-09-19 13:45:34 +0000";
layers = (
{
layerId = "C6537DE0-68DF-4C5B-B6D5-25B465FDDD7D";
name = Regular;
paths = (
{
closed = 1;
nodes = (
"10 1534 OFFCURVE",
"10 1534 OFFCURVE",
"10 1536 CURVE",
"8 1532 LINE",
"6 1530.01 LINE",
"6 1530.01 OFFCURVE",
"8 1526.01 OFFCURVE",
"8 1528.01 CURVE",
"8 1528.01 OFFCURVE",
"8 1526.01 OFFCURVE",
"10 1524.01 CURVE",
"90 1478.06 OFFCURVE",
"158 1420.11 OFFCURVE",
"216 1358.17 CURVE SMOOTH",
"274 1296.23 OFFCURVE",
"322 1222.31 OFFCURVE",
"360 1144.38 CURVE",
"386 1084.44 LINE",
"434 960.562 LINE SMOOTH",
"448 920.601 OFFCURVE",
"462 878.642 OFFCURVE",
"476 832.687 CURVE SMOOTH",
"490 786.731 OFFCURVE",
"502 746.771 OFFCURVE",
"512 700.815 CURVE SMOOTH",
"518 676.839 OFFCURVE",
"522 652.862 OFFCURVE",
"528 630.884 CURVE",
"506 632.882 OFFCURVE",
"486 634.88 OFFCURVE",
"464 640.874 CURVE",
"400 652.862 LINE",
"378 654.86 OFFCURVE",
"358 658.856 OFFCURVE",
"338 664.851 CURVE SMOOTH",
"316 670.845 OFFCURVE",
"296 674.841 OFFCURVE",
"276 678.837 CURVE",
"218 696.819 LINE",
"198 700.815 OFFCURVE",
"178 706.81 OFFCURVE",
"160 712.804 CURVE SMOOTH",
"140 718.798 OFFCURVE",
"122 722.794 OFFCURVE",
"104 726.79 CURVE SMOOTH",
"86 730.786 OFFCURVE",
"68 736.78 OFFCURVE",
"50 742.774 CURVE",
"48 740.776 OFFCURVE",
"48 740.776 OFFCURVE",
"48 742.774 CURVE",
"46 742.774 OFFCURVE",
"44 740.776 OFFCURVE",
"44 740.776 CURVE",
"42 738.778 OFFCURVE",
"42 736.78 OFFCURVE",
"42 734.782 CURVE",
"42 734.782 OFFCURVE",
"42 732.784 OFFCURVE",
"44 730.786 CURVE",
"44 720.796 LINE SMOOTH",
"44 718.798 OFFCURVE",
"44 714.802 OFFCURVE",
"46 708.808 CURVE",
"46 694.821 LINE",
"52 664.851 LINE",
"52 658.856 OFFCURVE",
"52 652.862 OFFCURVE",
"54 648.866 CURVE",
"60 616.898 LINE",
"60 610.903 OFFCURVE",
"60 604.909 OFFCURVE",
"62 600.913 CURVE",
"62 596.917 OFFCURVE",
"62 592.921 OFFCURVE",
"64 588.925 CURVE",
"64 578.935 OFFCURVE",
"66 568.944 OFFCURVE",
"68 562.95 CURVE",
"68 538.974 LINE SMOOTH",
"68 536.976 OFFCURVE",
"68 536.976 OFFCURVE",
"70 538.974 CURVE",
"70 536.976 LINE SMOOTH",
"70 534.977 OFFCURVE",
"70 534.977 OFFCURVE",
"72 536.976 CURVE",
"82 530.981 OFFCURVE",
"94 524.987 OFFCURVE",
"104 522.989 CURVE",
"136 511 LINE",
"146 505.007 OFFCURVE",
"154 501.011 OFFCURVE",
"164 499.013 CURVE",
"182 493.019 OFFCURVE",
"200 489.022 OFFCURVE",
"216 483.028 CURVE",
"224 479.032 OFFCURVE",
"232 477.034 OFFCURVE",
"240 475.036 CURVE",
"260 467.044 LINE",
"266 465.046 OFFCURVE",
"274 463.048 OFFCURVE",
"280 463.048 CURVE",
"278 461.05 LINE",
"298 455.056 LINE",
"320 449.061 LINE",
"346 443.067 LINE SMOOTH",
"356 441.069 OFFCURVE",
"364 439.071 OFFCURVE",
"374 439.071 CURVE",
"384 435.075 OFFCURVE",
"396 433.077 OFFCURVE",
"408 431.079 CURVE SMOOTH",
"486 419.091 LINE SMOOTH",
"500 417.093 OFFCURVE",
"514 413.097 OFFCURVE",
"530 411.099 CURVE",
"528 391.118 OFFCURVE",
"524 371.138 OFFCURVE",
"520 349.159 CURVE SMOOTH",
"512 307.2 OFFCURVE",
"504 269.237 OFFCURVE",
"490 225.28 CURVE",
"474 181.323 OFFCURVE",
"458 139.364 OFFCURVE",
"440 99.4033 CURVE SMOOTH",
"422 57.4434 OFFCURVE",
"400 9.49023 OFFCURVE",
"376 -30 CURVE SMOOTH",
"336 -96 LINE SMOOTH",
"310 -138 OFFCURVE",
"282 -182 OFFCURVE",
"254 -220 CURVE SMOOTH",
"240 -240 OFFCURVE",
"226 -260 OFFCURVE",
"212 -278 CURVE",
"198 -298 OFFCURVE",
"182 -316 OFFCURVE",
"168 -332 CURVE",
"154 -350 OFFCURVE",
"142 -368 OFFCURVE",
"128 -382 CURVE SMOOTH",
"86 -426 LINE SMOOTH",
"72 -440 OFFCURVE",
"58 -454 OFFCURVE",
"44 -466 CURVE SMOOTH",
"2 -502 LINE",
"0 -504 LINE",
"0 -506 LINE SMOOTH",
"0 -508 OFFCURVE",
"0 -508 OFFCURVE",
"0 -506 CURVE",
"0 -508 OFFCURVE",
"0 -510 OFFCURVE",
"2 -510 CURVE SMOOTH",
"4 -510 LINE",
"4 -512 OFFCURVE",
"4 -512 OFFCURVE",
"6 -510 CURVE",
"6 -512 LINE",
"104 -488 OFFCURVE",
"198 -456 OFFCURVE",
"286 -406 CURVE SMOOTH",
"374 -358 OFFCURVE",
"458 -296 OFFCURVE",
"536 -216 CURVE",
"614 -144 OFFCURVE",
"674 -52 OFFCURVE",
"722 45.4551 CURVE SMOOTH",
"768 143.36 OFFCURVE",
"796 259.247 OFFCURVE",
"810 379.13 CURVE",
"820 381.128 OFFCURVE",
"830 381.128 OFFCURVE",
"840 379.13 CURVE SMOOTH",
"850 377.132 OFFCURVE",
"858 377.132 OFFCURVE",
"868 379.13 CURVE",
"896 379.13 LINE",
"906 377.132 OFFCURVE",
"914 377.132 OFFCURVE",
"924 379.13 CURVE",
"934 377.132 OFFCURVE",
"944 377.132 OFFCURVE",
"954 377.132 CURVE SMOOTH",
"982 377.132 LINE",
"992 375.134 OFFCURVE",
"1002 375.134 OFFCURVE",
"1012 377.132 CURVE",
"1022 377.132 OFFCURVE",
"1032 377.132 OFFCURVE",
"1042 375.134 CURVE",
"1048 377.132 OFFCURVE",
"1056 377.132 OFFCURVE",
"1064 377.132 CURVE",
"1072 375.134 OFFCURVE",
"1080 375.134 OFFCURVE",
"1088 377.132 CURVE SMOOTH",
"1096 379.13 OFFCURVE",
"1104 379.13 OFFCURVE",
"1112 379.13 CURVE",
"1128 377.132 OFFCURVE",
"1144 379.13 OFFCURVE",
"1160 381.128 CURVE",
"1168 383.126 OFFCURVE",
"1176 383.126 OFFCURVE",
"1186 383.126 CURVE",
"1194 381.128 OFFCURVE",
"1202 383.126 OFFCURVE",
"1210 385.124 CURVE SMOOTH",
"1218 387.122 OFFCURVE",
"1226 387.122 OFFCURVE",
"1236 385.124 CURVE",
"1236 331.177 OFFCURVE",
"1242 271.235 OFFCURVE",
"1252 221.284 CURVE SMOOTH",
"1262 171.333 OFFCURVE",
"1278 117.386 OFFCURVE",
"1300 71.4307 CURVE SMOOTH",
"1322 21.4785 OFFCURVE",
"1346 -22 OFFCURVE",
"1378 -68 CURVE SMOOTH",
"1410 -116 OFFCURVE",
"1448 -154 OFFCURVE",
"1490 -200 CURVE",
"1572 -280 OFFCURVE",
"1662 -350 OFFCURVE",
"1754 -400 CURVE SMOOTH",
"1846 -450 OFFCURVE",
"1944 -490 OFFCURVE",
"2042 -508 CURVE",
"2044 -510 OFFCURVE",
"2044 -512 OFFCURVE",
"2044 -510 CURVE SMOOTH",
"2044 -508 OFFCURVE",
"2044 -508 OFFCURVE",
"2046 -508 CURVE",
"2046 -510 OFFCURVE",
"2046 -510 OFFCURVE",
"2048 -508 CURVE",
"2048 -506 OFFCURVE",
"2048 -506 OFFCURVE",
"2048 -508 CURVE",
"2048 -502 LINE",
"2046 -502 OFFCURVE",
"2046 -502 OFFCURVE",
"2046 -500 CURVE",
"2028 -488 OFFCURVE",
"2010 -474 OFFCURVE",
"1992 -460 CURVE SMOOTH",
"1938 -416 LINE SMOOTH",
"1920 -402 OFFCURVE",
"1904 -388 OFFCURVE",
"1890 -370 CURVE",
"1874 -354 OFFCURVE",
"1858 -338 OFFCURVE",
"1842 -324 CURVE",
"1800 -270 LINE",
"1786 -254 OFFCURVE",
"1772 -236 OFFCURVE",
"1760 -216 CURVE",
"1746 -198 OFFCURVE",
"1734 -178 OFFCURVE",
"1722 -160 CURVE SMOOTH",
"1710 -142 OFFCURVE",
"1698 -124 OFFCURVE",
"1688 -102 CURVE",
"1666 -64 OFFCURVE",
"1646 -22 OFFCURVE",
"1630 17.4824 CURVE",
"1612 57.4434 OFFCURVE",
"1596 103.399 OFFCURVE",
"1582 143.36 CURVE",
"1568 189.315 OFFCURVE",
"1556 229.276 OFFCURVE",
"1546 275.231 CURVE SMOOTH",
"1536 321.186 OFFCURVE",
"1528 361.147 OFFCURVE",
"1522 409.101 CURVE",
"1534 409.101 OFFCURVE",
"1546 411.099 OFFCURVE",
"1558 413.097 CURVE SMOOTH",
"1588 419.091 LINE",
"1616 425.085 LINE SMOOTH",
"1626 427.083 OFFCURVE",
"1634 427.083 OFFCURVE",
"1642 427.083 CURVE",
"1666 433.077 LINE",
"1688 439.071 LINE",
"1694 441.069 OFFCURVE",
"1702 441.069 OFFCURVE",
"1708 443.067 CURVE",
"1722 443.067 OFFCURVE",
"1734 445.065 OFFCURVE",
"1746 451.06 CURVE",
"1764 457.054 LINE",
"1770 457.054 OFFCURVE",
"1776 459.052 OFFCURVE",
"1782 461.05 CURVE",
"1798 465.046 LINE",
"1818 471.04 LINE",
"1836 477.034 LINE",
"1856 483.028 LINE SMOOTH",
"1862 485.026 OFFCURVE",
"1870 487.024 OFFCURVE",
"1878 491.021 CURVE",
"1882 491.021 OFFCURVE",
"1886 493.019 OFFCURVE",
"1890 495.017 CURVE",
"1892 497.015 OFFCURVE",
"1896 497.015 OFFCURVE",
"1900 499.013 CURVE",
"1904 499.013 OFFCURVE",
"1908 499.013 OFFCURVE",
"1914 501.011 CURVE",
"1918 503.009 OFFCURVE",
"1922 503.009 OFFCURVE",
"1926 503.009 CURVE",
"1940 509.003 LINE",
"1944 509.003 OFFCURVE",
"1948 511 OFFCURVE",
"1954 512.999 CURVE",
"1968 518.993 LINE",
"1974 518.993 OFFCURVE",
"1978 520.991 OFFCURVE",
"1984 522.989 CURVE",
"1984 520.991 OFFCURVE",
"1984 520.991 OFFCURVE",
"1986 522.989 CURVE",
"1986 524.987 LINE",
"1986 522.989 OFFCURVE",
"1986 522.989 OFFCURVE",
"1988 524.987 CURVE",
"1988 526.985 OFFCURVE",
"1988 526.985 OFFCURVE",
"1988 524.987 CURVE",
"1988 540.972 OFFCURVE",
"1992 552.96 OFFCURVE",
"1996 568.944 CURVE SMOOTH",
"1998 576.937 OFFCURVE",
"1998 584.929 OFFCURVE",
"2000 592.921 CURVE",
"2002 606.907 OFFCURVE",
"2006 622.892 OFFCURVE",
"2012 644.87 CURVE SMOOTH",
"2018 666.849 OFFCURVE",
"2022 686.829 OFFCURVE",
"2030 714.802 CURVE",
"2032 728.788 OFFCURVE",
"2036 740.776 OFFCURVE",
"2040 754.763 CURVE",
"2040 758.759 LINE",
"2038 758.759 OFFCURVE",
"2038 758.759 OFFCURVE",
"2038 760.757 CURVE",
"2038 758.759 OFFCURVE",
"2038 758.759 OFFCURVE",
"2038 760.757 CURVE",
"2036 762.755 LINE",
"2034 760.757 OFFCURVE",
"2034 760.757 OFFCURVE",
"2034 762.755 CURVE",
"2032 762.755 OFFCURVE",
"2032 762.755 OFFCURVE",
"2032 760.757 CURVE",
"2024 758.759 OFFCURVE",
"2016 756.761 OFFCURVE",
"2008 752.765 CURVE SMOOTH",
"2000 748.769 OFFCURVE",
"1992 746.771 OFFCURVE",
"1986 744.773 CURVE",
"1964 738.778 LINE",
"1958 734.782 OFFCURVE",
"1952 732.784 OFFCURVE",
"1946 732.784 CURVE",
"1940 728.788 OFFCURVE",
"1936 726.79 OFFCURVE",
"1930 726.79 CURVE",
"1916 720.796 LINE",
"1910 718.798 OFFCURVE",
"1906 716.8 OFFCURVE",
"1902 716.8 CURVE",
"1892 714.802 OFFCURVE",
"1888 712.804 OFFCURVE",
"1882 708.808 CURVE",
"1880 706.81 OFFCURVE",
"1876 704.812 OFFCURVE",
"1874 704.812 CURVE SMOOTH",
"1872 704.812 OFFCURVE",
"1870 704.812 OFFCURVE",
"1868 702.813 CURVE",
"1864 700.815 OFFCURVE",
"1860 698.817 OFFCURVE",
"1856 698.817 CURVE SMOOTH",
"1854 698.817 OFFCURVE",
"1852 698.817 OFFCURVE",
"1850 696.819 CURVE SMOOTH",
"1848 694.821 OFFCURVE",
"1846 694.821 OFFCURVE",
"1844 694.821 CURVE SMOOTH",
"1842 694.821 OFFCURVE",
"1838 692.823 OFFCURVE",
"1836 690.825 CURVE",
"1834 692.823 OFFCURVE",
"1834 692.823 OFFCURVE",
"1832 690.825 CURVE SMOOTH",
"1830 688.827 OFFCURVE",
"1828 688.827 OFFCURVE",
"1826 688.827 CURVE SMOOTH",
"1822 688.827 LINE",
"1820 686.829 OFFCURVE",
"1818 686.829 OFFCURVE",
"1816 686.829 CURVE",
"1814 684.831 OFFCURVE",
"1814 684.831 OFFCURVE",
"1812 684.831 CURVE SMOOTH",
"1810 684.831 OFFCURVE",
"1808 684.831 OFFCURVE",
"1806 682.833 CURVE SMOOTH",
"1804 680.835 OFFCURVE",
"1802 680.835 OFFCURVE",
"1800 682.833 CURVE",
"1798 682.833 OFFCURVE",
"1796 680.835 OFFCURVE",
"1794 678.837 CURVE",
"1788 678.837 OFFCURVE",
"1784 678.837 OFFCURVE",
"1778 676.839 CURVE SMOOTH",
"1772 674.841 OFFCURVE",
"1768 672.843 OFFCURVE",
"1762 672.843 CURVE SMOOTH",
"1756 672.843 OFFCURVE",
"1752 672.843 OFFCURVE",
"1748 670.845 CURVE",
"1742 668.847 OFFCURVE",
"1738 666.849 OFFCURVE",
"1734 666.849 CURVE",
"1728 664.851 OFFCURVE",
"1724 664.851 OFFCURVE",
"1720 664.851 CURVE",
"1716 662.852 OFFCURVE",
"1712 662.852 OFFCURVE",
"1708 660.854 CURVE",
"1702 658.856 OFFCURVE",
"1698 658.856 OFFCURVE",
"1694 658.856 CURVE",
"1666 652.862 LINE",
"1660 650.864 OFFCURVE",
"1656 650.864 OFFCURVE",
"1650 650.864 CURVE",
"1634 646.868 LINE",
"1628 644.87 OFFCURVE",
"1624 644.87 OFFCURVE",
"1618 644.87 CURVE",
"1612 642.872 OFFCURVE",
"1608 640.874 OFFCURVE",
"1602 640.874 CURVE",
"1596 638.876 OFFCURVE",
"1588 638.876 OFFCURVE",
"1582 636.878 CURVE SMOOTH",
"1576 634.88 OFFCURVE",
"1568 634.88 OFFCURVE",
"1562 634.88 CURVE",
"1538 628.886 LINE",
"1540 654.86 OFFCURVE",
"1544 678.837 OFFCURVE",
"1548 702.813 CURVE",
"1554 748.769 OFFCURVE",
"1562 798.72 OFFCURVE",
"1572 840.679 CURVE SMOOTH",
"1578 862.657 OFFCURVE",
"1582 884.636 OFFCURVE",
"1588 906.614 CURVE SMOOTH",
"1606 968.555 LINE SMOOTH",
"1618 1010.51 OFFCURVE",
"1632 1048.48 OFFCURVE",
"1650 1088.44 CURVE SMOOTH",
"1674 1146.38 LINE SMOOTH",
"1708 1224.3 OFFCURVE",
"1756 1288.24 OFFCURVE",
"1818 1352.18 CURVE SMOOTH",
"1880 1416.12 OFFCURVE",
"1956 1472.06 OFFCURVE",
"2044 1526.01 CURVE",
"2040 1534 LINE",
"1986 1526.01 OFFCURVE",
"1934 1508.03 OFFCURVE",
"1884 1492.04 CURVE",
"1834 1474.06 OFFCURVE",
"1786 1446.09 OFFCURVE",
"1740 1422.11 CURVE",
"1694 1392.14 OFFCURVE",
"1648 1364.17 OFFCURVE",
"1606 1328.2 CURVE SMOOTH",
"1564 1292.24 OFFCURVE",
"1520 1252.28 OFFCURVE",
"1478 1204.32 CURVE",
"1438 1164.36 OFFCURVE",
"1402 1116.41 OFFCURVE",
"1372 1070.45 CURVE SMOOTH",
"1340 1024.5 OFFCURVE",
"1316 974.549 OFFCURVE",
"1298 928.593 CURVE",
"1280 874.646 OFFCURVE",
"1264 828.69 OFFCURVE",
"1256 774.743 CURVE SMOOTH",
"1246 718.798 OFFCURVE",
"1240 668.847 OFFCURVE",
"1240 606.907 CURVE",
"1230 606.907 OFFCURVE",
"1222 606.907 OFFCURVE",
"1212 604.909 CURVE SMOOTH",
"1202 602.911 OFFCURVE",
"1190 602.911 OFFCURVE",
"1180 602.911 CURVE",
"1168 600.913 OFFCURVE",
"1156 600.913 OFFCURVE",
"1146 598.915 CURVE SMOOTH",
"1136 596.917 OFFCURVE",
"1124 596.917 OFFCURVE",
"1112 598.915 CURVE",
"1100 596.917 OFFCURVE",
"1088 594.919 OFFCURVE",
"1076 594.919 CURVE SMOOTH",
"1040 594.919 LINE",
"1026 592.921 OFFCURVE",
"1014 592.921 OFFCURVE",
"1000 594.919 CURVE",
"986 594.919 OFFCURVE",
"974 594.919 OFFCURVE",
"960 592.921 CURVE",
"954 594.919 OFFCURVE",
"950 594.919 OFFCURVE",
"944 594.919 CURVE",
"938 592.921 OFFCURVE",
"932 592.921 OFFCURVE",
"926 594.919 CURVE",
"908 594.919 LINE",
"902 592.921 OFFCURVE",
"894 592.921 OFFCURVE",
"888 594.919 CURVE",
"882 592.921 OFFCURVE",
"876 592.921 OFFCURVE",
"870 594.919 CURVE SMOOTH",
"864 596.917 OFFCURVE",
"858 596.917 OFFCURVE",
"852 596.917 CURVE",
"846 594.919 OFFCURVE",
"840 594.919 OFFCURVE",
"834 596.917 CURVE SMOOTH",
"828 598.915 OFFCURVE",
"822 598.915 OFFCURVE",
"816 598.915 CURVE",
"802 734.782 OFFCURVE",
"776 852.667 OFFCURVE",
"732 960.562 CURVE SMOOTH",
"688 1068.46 OFFCURVE",
"626 1156.37 OFFCURVE",
"552 1238.29 CURVE",
"478 1312.22 OFFCURVE",
"394 1380.15 OFFCURVE",
"306 1428.11 CURVE SMOOTH",
"216 1476.06 OFFCURVE",
"118 1516.02 OFFCURVE",
"14 1534 CURVE",
"12 1536 LINE"
);
}
);
width = 2048;
}
);
unicode = 2653;
},
{
glyphname = uniE000;
lastChange = "2014-09-19 13:45:34 +0000";
layers = (
{
layerId = "C6537DE0-68DF-4C5B-B6D5-25B465FDDD7D";
name = Regular;
paths = (
{
closed = 1;
nodes = (
"0 680.055 LINE",
"0 355.98 LINE",
"1024 1150.84 LINE",
"2048 355.984 LINE",
"2048 680.051 LINE",
"1024 1474.91 LINE"
);
},
{
closed = 1;
nodes = (
"256 384.871 LINE",
"256 -383 LINE",
"768 -383 LINE",
"768 128.871 LINE",
"1280 128.871 LINE",
"1280 -383 LINE",
"1792 -383 LINE",
"1792 384.871 LINE",
"1024 960.871 LINE"
);
}
);
width = 2048;
}
);
unicode = E000;
},
{
glyphname = uniE001;
lastChange = "2014-09-19 13:45:34 +0000";
layers = (
{
layerId = "C6537DE0-68DF-4C5B-B6D5-25B465FDDD7D";
name = Regular;
paths = (
{
closed = 1;
nodes = (
"0 1536 LINE",
"0 -512 LINE",
"1024 -512 LINE",
"1024 1536 LINE"
);
},
{
closed = 1;
nodes = (
"384 0 LINE",
"128 0 LINE",
"128 256 LINE",
"384 256 LINE"
);
},
{
closed = 1;
nodes = (
"896 0 LINE",
"640 0 LINE",
"640 256 LINE",
"896 256 LINE"
);
},
{
closed = 1;
nodes = (
"384 512 LINE",
"128 512 LINE",
"128 768 LINE",
"384 768 LINE"
);
},
{
closed = 1;
nodes = (
"896 512 LINE",
"640 512 LINE",
"640 768 LINE",
"896 768 LINE"
);
},
{
closed = 1;
nodes = (
"384 1024 LINE",
"128 1024 LINE",
"128 1280 LINE",
"384 1280 LINE"
);
},
{
closed = 1;
nodes = (
"1152 640 LINE",
"1152 -512 LINE",
"1408 -512 LINE",
"1408 0 LINE",
"1792 0 LINE",
"1792 -512 LINE",
"2048 -512 LINE",
"2048 640 LINE"
);
},
{
closed = 1;
nodes = (
"896 1024 LINE",
"640 1024 LINE",
"640 1280 LINE",
"896 1280 LINE"
);
},
{
closed = 1;
nodes = (
"1152 896 LINE",
"1152 768 LINE",
"2048 768 LINE",
"2048 896 LINE"
);
}
);
width = 2048;
}
);
unicode = E001;
},
{
glyphname = uniE002;
lastChange = "2014-09-19 13:45:34 +0000";
layers = (
{
layerId = "C6537DE0-68DF-4C5B-B6D5-25B465FDDD7D";
name = Regular;
paths = (
{
closed = 1;
nodes = (
"0 1280 LINE",
"0 -128 LINE SMOOTH",
"0 -199 OFFCURVE",
"57.3091 -256 OFFCURVE",
"128 -256 CURVE SMOOTH",
"1856 -256 LINE SMOOTH",
"1962.04 -256 OFFCURVE",
"2048 -170 OFFCURVE",
"2048 -64 CURVE SMOOTH",
"2048 1024 LINE",
"1792 1024 LINE",
"1792 1280 LINE"
);
},
{
closed = 1;
nodes = (
"256 640 LINE",
"256 0 LINE",
"896 0 LINE",
"896 640 LINE"
);
},
{
closed = 1;
nodes = (
"1024 128 LINE",
"1024 0 LINE",
"1408 0 LINE",
"1408 128 LINE"
);
},
{
closed = 1;
nodes = (
"1664 -128 LINE",
"128 -128 LINE",
"128 1152 LINE",
"1664 1152 LINE"
);
},
{
closed = 1;
nodes = (
"1024 384 LINE",
"1024 256 LINE",
"1536 256 LINE",
"1536 384 LINE"
);
},
{
closed = 1;
nodes = (
"256 896 LINE",
"256 768 LINE",
"1536 768 LINE",
"1536 896 LINE"
);
},
{
closed = 1;
nodes = (
"1024 640 LINE",
"1024 512 LINE",
"1536 512 LINE",
"1536 640 LINE"
);
}
);
width = 2048;
}
);
unicode = E002;
},
{
glyphname = uniE003;
lastChange = "2014-09-19 13:45:34 +0000";
layers = (
{
layerId = "C6537DE0-68DF-4C5B-B6D5-25B465FDDD7D";
name = Regular;
paths = (
{
closed = 1;
nodes = (
"128 64 LINE",
"0 -512 LINE",
"576 -384 LINE",
"1760 800 LINE",
"1312 1248 LINE"
);
},
{
closed = 1;
nodes = (
"1431.16 808.844 LINE",
"535.157 -87 LINE",
"424.844 23.1563 LINE",
"1320.84 919.156 LINE"
);
},
{
closed = 1;
nodes = (
"1655.96 1536 OFFCURVE",
"1589.48 1512.18 OFFCURVE",
"1536 1472 CURVE",
"1408 1344 LINE",
"1856 896 LINE",
"1984 1024 LINE",
"2024.18 1077.48 OFFCURVE",
"2048 1143.96 OFFCURVE",
"2048 1216 CURVE SMOOTH",
"2048 1392.73 OFFCURVE",
"1904.73 1536 OFFCURVE",
"1728 1536 CURVE SMOOTH"
);
}
);
width = 2048;
}
);
unicode = E003;
},
{
glyphname = uniE004;
lastChange = "2014-09-19 13:45:34 +0000";
layers = (
{
layerId = "C6537DE0-68DF-4C5B-B6D5-25B465FDDD7D";
name = Regular;
paths = (
{
closed = 1;
nodes = (
"1152 1536 LINE",
"384 768 LINE",
"0 -512 LINE",
"1280 -128 LINE",
"2048 640 LINE",
"2048 1024 LINE",
"1280 256 LINE",
"1124.18 0 LINE",
"578.6 -198 LINE",
"515.336 -65 OFFCURVE",
"447.268 3.32813 OFFCURVE",
"313.809 66.5938 CURVE",
"512 612.176 LINE",
"768 768 LINE",
"1536 1536 LINE"
);
},
{
closed = 1;
nodes = (
"896 512 LINE",
"768 256 LINE",
"1024 384 LINE",
"1920 1280 LINE",
"1792 1408 LINE"
);
}
);
width = 2048;
}
);
unicode = E004;
},
{
glyphname = uniE005;
lastChange = "2014-09-19 13:45:34 +0000";
layers = (
{
layerId = "C6537DE0-68DF-4C5B-B6D5-25B465FDDD7D";
name = Regular;
paths = (
{
closed = 1;
nodes = (
"926 1536 OFFCURVE",
"256 256 OFFCURVE",
"0 -512 CURVE",
"128 -512 LINE",
"512 128 LINE",
"512 128 OFFCURVE",
"569 71 OFFCURVE",
"721 71 CURVE SMOOTH",
"966 71 OFFCURVE",
"1129 146 OFFCURVE",
"1295 356 CURVE",
"1214 377 OFFCURVE",
"1122 383 OFFCURVE",
"1038 383 CURVE SMOOTH",
"891 383 OFFCURVE",
"768 363 OFFCURVE",
"768 363 CURVE SMOOTH",
"768 363 OFFCURVE",
"1052 533 OFFCURVE",
"1280 533 CURVE SMOOTH",
"1325 533 OFFCURVE",
"1368 527 OFFCURVE",
"1406 511 CURVE",
"1453 583 OFFCURVE",
"1500 661 OFFCURVE",
"1546 741 CURVE",
"1466 761 OFFCURVE",
"1376 767 OFFCURVE",
"1294 767 CURVE SMOOTH",
"1147 767 OFFCURVE",
"1024 747 OFFCURVE",
"1024 747 CURVE SMOOTH",
"1024 747 OFFCURVE",
"1308 917 OFFCURVE",
"1536 917 CURVE SMOOTH",
"1572 917 OFFCURVE",
"1606 913 OFFCURVE",
"1637 903 CURVE",
"1684 988 OFFCURVE",
"1729 1071 OFFCURVE",
"1773 1148 CURVE",
"1741 1150 OFFCURVE",
"1709 1151 OFFCURVE",
"1678 1151 CURVE SMOOTH",
"1531 1151 OFFCURVE",
"1408 1131 OFFCURVE",
"1408 1131 CURVE SMOOTH",
"1408 1131 OFFCURVE",
"1646 1274 OFFCURVE",
"1861 1298 CURVE",
"1929 1408 OFFCURVE",
"1991 1494 OFFCURVE",
"2048 1536 CURVE"
);
}
);
width = 2048;
}
);
unicode = E005;
},
{
glyphname = uniE006;
lastChange = "2014-09-19 13:45:34 +0000";
layers = (
{
layerId = "C6537DE0-68DF-4C5B-B6D5-25B465FDDD7D";
name = Regular;
paths = (
{
closed = 1;
nodes = (
"639.998 1216.01 LINE",
"639.998 640.009 OFFCURVE",
"0 -192 OFFCURVE",
"0 -192 CURVE",
"106.26 -298 LINE",
"653.585 249.072 LINE",
"644.849 271.025 OFFCURVE",
"639.998 294.943 OFFCURVE",
"639.998 320.007 CURVE SMOOTH",
"639.998 426.046 OFFCURVE",
"725.958 512.008 OFFCURVE",
"831.997 512.008 CURVE SMOOTH",
"938.036 512.008 OFFCURVE",
"1024 426.046 OFFCURVE",
"1024 320.007 CURVE SMOOTH",
"1024 213.967 OFFCURVE",
"938.036 128.004 OFFCURVE",
"831.997 128.004 CURVE SMOOTH",
"806.935 128.004 OFFCURVE",
"783.013 132.855 OFFCURVE",
"761.068 141.595 CURVE",
"213.74 -406 LINE",
"319.999 -512 LINE",
"319.999 -512 OFFCURVE",
"1152 128.004 OFFCURVE",
"1727.99 128.004 CURVE",
"1791.99 832.011 LINE",
"1344 1280.01 LINE"
);
},
{
closed = 1;
nodes = (
"1472.01 1408 LINE",
"1920 959.999 LINE",
"2048 1088 LINE",
"1600.01 1536 LINE"
);
}
);
width = 2048;
}
);
unicode = E006;
},
{
glyphname = uniE007;
lastChange = "2014-09-19 13:45:34 +0000";
layers = (
{
layerId = "C6537DE0-68DF-4C5B-B6D5-25B465FDDD7D";
name = Regular;
paths = (
{
closed = 1;
nodes = (
"768 1344 LINE",
"1459 1344 OFFCURVE",
"1856 750 OFFCURVE",
"1856 256 CURVE",
"2048 256 LINE",
"2048 963 OFFCURVE",
"1475 1536 OFFCURVE",
"768 1536 CURVE"
);
},
{
closed = 1;
nodes = (
"639.997 640 OFFCURVE",
"384 640 OFFCURVE",
"384 640 CURVE",
"384 128 OFFCURVE",
"0 -256 OFFCURVE",
"0 -256 CURVE",
"74 -330 LINE",
"641 237 LINE",
"640 243 OFFCURVE",
"640 250 OFFCURVE",
"640 256 CURVE SMOOTH",
"640 327 OFFCURVE",
"697 384 OFFCURVE",
"768 384 CURVE SMOOTH",
"839 384 OFFCURVE",
"896 327 OFFCURVE",
"896 256 CURVE SMOOTH",
"896 185 OFFCURVE",
"839 128 OFFCURVE",
"768 128 CURVE SMOOTH",
"762 128 OFFCURVE",
"755 128 OFFCURVE",
"749 129 CURVE",
"182 -438 LINE",
"256 -512 LINE",
"256 -512 OFFCURVE",
"640 -128 OFFCURVE",
"1152 -128 CURVE SMOOTH",
"1152 -128 OFFCURVE",
"1152 128 OFFCURVE",
"1280 320 CURVE",
"1280 572 OFFCURVE",
"1078 768 OFFCURVE",
"831.997 768 CURVE"
);
},
{
closed = 1;
nodes = (
"768 960 LINE",
"1160 960 OFFCURVE",
"1472 642 OFFCURVE",
"1472 256 CURVE",
"1664 256 LINE",
"1664 751 OFFCURVE",
"1263 1152 OFFCURVE",
"768 1152 CURVE"
);
}
);
width = 2048;
}
);
unicode = E007;
},
{
glyphname = uniE008;
lastChange = "2014-09-19 13:45:38 +0000";
layers = (
{
layerId = "C6537DE0-68DF-4C5B-B6D5-25B465FDDD7D";
name = Regular;
paths = (
{
closed = 1;
nodes = (
"1024 1536 OFFCURVE",
"276 913 OFFCURVE",
"256 241 CURVE SMOOTH",
"264 -176 OFFCURVE",
"605 -512 OFFCURVE",
"1024 -512 CURVE SMOOTH",
"1443 -512 OFFCURVE",
"1784 -176 OFFCURVE",
"1792 241 CURVE SMOOTH",
"1771 913 OFFCURVE",
"1024 1536 OFFCURVE",
"1024 1536 CURVE SMOOTH"
);
},
{
closed = 1;
nodes = (
"1489 531 OFFCURVE",
"1532 403 OFFCURVE",
"1536 247 CURVE SMOOTH",
"1529 -61 OFFCURVE",
"1261 -291 OFFCURVE",
"950 -251 CURVE",
"1351 -12 OFFCURVE",
"1437 402 OFFCURVE",
"1408 681 CURVE"
);
}
);
width = 2048;
}
);
unicode = E008;
},
{
glyphname = uniE009;
lastChange = "2014-09-19 13:45:34 +0000";
layers = (
{
layerId = "C6537DE0-68DF-4C5B-B6D5-25B465FDDD7D";
name = Regular;
paths = (
{
closed = 1;
nodes = (
"2048 1152 LINE",
"1664 1152 LINE",
"1664 1280 LINE SMOOTH",
"1664 1350.4 OFFCURVE",
"1606.4 1408 OFFCURVE",
"1536 1408 CURVE SMOOTH",
"128 1408 LINE SMOOTH",
"57.6021 1408 OFFCURVE",
"0 1350.4 OFFCURVE",
"0 1280 CURVE SMOOTH",
"0 896 LINE SMOOTH",
"0 825.6 OFFCURVE",
"57.6021 768 OFFCURVE",
"128 768 CURVE SMOOTH",
"1536 768 LINE SMOOTH",
"1606.4 768 OFFCURVE",
"1664 825.6 OFFCURVE",
"1664 896 CURVE SMOOTH",
"1664 1024 LINE",
"1920 1024 LINE",
"1920 512 LINE",
"768 512 LINE",
"768 256 LINE",
"704 256 LINE SMOOTH",
"668.653 256 OFFCURVE",
"640 227.348 OFFCURVE",
"640 192 CURVE SMOOTH",
"640 -448 LINE SMOOTH",
"640 -483 OFFCURVE",
"668.653 -512 OFFCURVE",
"704 -512 CURVE SMOOTH",
"960 -512 LINE SMOOTH",
"995.348 -512 OFFCURVE",
"1024 -483 OFFCURVE",
"1024 -448 CURVE SMOOTH",
"1024 192 LINE SMOOTH",
"1024 227.348 OFFCURVE",
"995.348 256 OFFCURVE",
"960 256 CURVE SMOOTH",
"896 256 LINE",
"896 384 LINE",
"2048 384 LINE"
);
},
{
closed = 1;
nodes = (
"128 1152 LINE",
"128 1280 LINE",
"1536 1280 LINE",
"1536 1152 LINE"
);
}
);
width = 2048;
}
);
unicode = E009;
},
{
glyphname = uniE010;
lastChange = "2014-09-19 13:45:34 +0000";
layers = (
{
layerId = "C6537DE0-68DF-4C5B-B6D5-25B465FDDD7D";
name = Regular;
paths = (
{
closed = 1;
nodes = (
"0 1408 LINE",
"0 -384 LINE",
"2048 -384 LINE",
"2048 1408 LINE"
);
},
{
closed = 1;
nodes = (
"384 256 LINE",
"384 0 LINE",
"1664 0 LINE",
"1664 512 LINE",
"1294 256 LINE",
"768 896 LINE"
);
},
{
closed = 1;
nodes = (
"1792 -128 LINE",
"256 -128 LINE",
"256 1152 LINE",
"1792 1152 LINE"
);
},
{
closed = 1;
nodes = (
"1365.96 1024 OFFCURVE",
"1280 938.039 OFFCURVE",
"1280 832 CURVE SMOOTH",
"1280 725.961 OFFCURVE",
"1365.96 640 OFFCURVE",
"1472 640 CURVE SMOOTH",
"1578.04 640 OFFCURVE",
"1664 725.961 OFFCURVE",
"1664 832 CURVE SMOOTH",
"1664 938.039 OFFCURVE",
"1578.04 1024 OFFCURVE",
"1472 1024 CURVE SMOOTH"
);
}
);
width = 2048;
}
);
unicode = E010;
},
{
glyphname = uniE011;
lastChange = "2014-09-19 13:45:34 +0000";
layers = (
{
layerId = "C6537DE0-68DF-4C5B-B6D5-25B465FDDD7D";
name = Regular;
paths = (
{
closed = 1;
nodes = (
"0 1280 LINE",
"0 0 LINE",
"128 0 LINE",
"128 1152 LINE",
"1792 1152 LINE",
"1792 1280 LINE"
);
},
{
closed = 1;
nodes = (
"597.961 768 OFFCURVE",
"512 682.039 OFFCURVE",
"512 576 CURVE SMOOTH",
"512 469.961 OFFCURVE",
"597.961 384 OFFCURVE",
"704 384 CURVE SMOOTH",
"810.04 384 OFFCURVE",
"896 469.961 OFFCURVE",
"896 576 CURVE SMOOTH",
"896 682.039 OFFCURVE",
"810.04 768 OFFCURVE",
"704 768 CURVE SMOOTH"
);
},
{
closed = 1;
nodes = (
"256 1024 LINE",
"256 -256 LINE",
"2048 -256 LINE",
"2048 1024 LINE"
);
},
{
closed = 1;
nodes = (
"1920 -43 LINE",
"1664 384 LINE",
"1373.87 142.223 LINE",
"1152 512 LINE",
"384 -128 LINE",
"384 896 LINE",
"1920 896 LINE"
);
}
);
width = 2048;
}
);
unicode = E011;
},
{
glyphname = uniE012;
lastChange = "2014-09-19 13:45:34 +0000";
layers = (
{
layerId = "C6537DE0-68DF-4C5B-B6D5-25B465FDDD7D";
name = Regular;
paths = (
{
closed = 1;
nodes = (
"768 1280 LINE SMOOTH",
"640 1280 OFFCURVE",
"608 1152 OFFCURVE",
"576 1024 CURVE",
"128 1024 LINE SMOOTH",
"57.6021 1024 OFFCURVE",
"0 966.4 OFFCURVE",
"0 896 CURVE SMOOTH",
"0 -256 LINE SMOOTH",
"0 -326 OFFCURVE",
"57.6021 -384 OFFCURVE",
"128 -384 CURVE SMOOTH",
"1920 -384 LINE SMOOTH",
"1990.4 -384 OFFCURVE",
"2048 -326 OFFCURVE",
"2048 -256 CURVE SMOOTH",
"2048 896 LINE SMOOTH",
"2048 966.4 OFFCURVE",
"1990.4 1024 OFFCURVE",
"1920 1024 CURVE SMOOTH",
"1472 1024 LINE",
"1440 1152 OFFCURVE",
"1408 1280 OFFCURVE",
"1280 1280 CURVE SMOOTH"
);
},
{
closed = 1;
nodes = (
"794.25 736 OFFCURVE",
"608 549.75 OFFCURVE",
"608 320 CURVE SMOOTH",
"608 90.25 OFFCURVE",
"794.25 -96 OFFCURVE",
"1024 -96 CURVE SMOOTH",
"1253.75 -96 OFFCURVE",
"1440 90.25 OFFCURVE",
"1440 320 CURVE SMOOTH",
"1440 549.75 OFFCURVE",
"1253.75 736 OFFCURVE",
"1024 736 CURVE SMOOTH"
);
},
{
closed = 1;
nodes = (
"1337.7 888 OFFCURVE",
"1592 633.699 OFFCURVE",
"1592 320 CURVE SMOOTH",
"1592 6.30078 OFFCURVE",
"1337.71 -248 OFFCURVE",
"1024 -248 CURVE SMOOTH",
"710.301 -248 OFFCURVE",
"456 6.29688 OFFCURVE",
"456 320 CURVE SMOOTH",
"456 633.703 OFFCURVE",
"710.301 888 OFFCURVE",
"1024 888 CURVE SMOOTH"
);
},
{
closed = 1;
nodes = (
"1920 640 LINE",
"1664 640 LINE",
"1664 768 LINE",
"1920 768 LINE"
);
}
);
width = 2048;
}
);
unicode = E012;
},
{
glyphname = uniE013;
lastChange = "2014-09-19 13:45:34 +0000";
layers = (
{
layerId = "C6537DE0-68DF-4C5B-B6D5-25B465FDDD7D";
name = Regular;
paths = (
{
closed = 1;
nodes = (
"640 1152 LINE",
"640 97.1875 LINE",
"581.805 116.938 OFFCURVE",
"516.719 128 OFFCURVE",
"448 128 CURVE SMOOTH",
"200.579 128 OFFCURVE",
"0 -15 OFFCURVE",
"0 -192 CURVE SMOOTH",
"0 -369 OFFCURVE",
"200.579 -512 OFFCURVE",
"448 -512 CURVE SMOOTH",
"695.422 -512 OFFCURVE",
"896 -369 OFFCURVE",
"896 -192 CURVE SMOOTH",
"896 768 LINE",
"1792 1012.36 LINE",
"1792 353.188 LINE",
"1733.81 372.938 OFFCURVE",
"1668.72 384 OFFCURVE",
"1600 384 CURVE SMOOTH",
"1352.58 384 OFFCURVE",
"1152 240.73 OFFCURVE",
"1152 64 CURVE SMOOTH",
"1152 -113 OFFCURVE",
"1352.58 -256 OFFCURVE",
"1600 -256 CURVE SMOOTH",
"1847.42 -256 OFFCURVE",
"2048 -113 OFFCURVE",
"2048 64 CURVE SMOOTH",
"2048 1536 LINE"
);
}
);
width = 2048;
}
);
unicode = E013;
},
{
glyphname = uniE014;
lastChange = "2014-09-19 13:45:34 +0000";
layers = (
{
layerId = "C6537DE0-68DF-4C5B-B6D5-25B465FDDD7D";
name = Regular;
paths = (
{
closed = 1;
nodes = (
"0 1280 LINE",
"0 -256 LINE",
"2048 -256 LINE",
"2048 1280 LINE"
);
},
{
closed = 1;
nodes = (
"384 -128 LINE",
"128 -128 LINE",
"128 128 LINE",
"384 128 LINE"
);
},
{
closed = 1;
nodes = (
"384 384 LINE",
"128 384 LINE",
"128 640 LINE",
"384 640 LINE"
);
},
{
closed = 1;
nodes = (
"384 896 LINE",
"128 896 LINE",
"128 1152 LINE",
"384 1152 LINE"
);
},
{
closed = 1;
nodes = (
"1536 -128 LINE",
"512 -128 LINE",
"512 1152 LINE",
"1536 1152 LINE"
);
},
{
closed = 1;
nodes = (
"768 128 LINE",
"1280 512 LINE",
"768 896 LINE"
);
},
{
closed = 1;
nodes = (
"1920 -128 LINE",
"1664 -128 LINE",
"1664 128 LINE",
"1920 128 LINE"
);
},
{
closed = 1;
nodes = (
"1920 384 LINE",
"1664 384 LINE",
"1664 640 LINE",
"1920 640 LINE"
);
},
{
closed = 1;
nodes = (
"1920 896 LINE",
"1664 896 LINE",
"1664 1152 LINE",
"1920 1152 LINE"
);
}
);
width = 2048;
}
);
unicode = E014;
},
{
glyphname = uniE015;
lastChange = "2014-09-19 13:45:34 +0000";
layers = (
{
layerId = "C6537DE0-68DF-4C5B-B6D5-25B465FDDD7D";
name = Regular;
paths = (
{
closed = 1;
nodes = (
"1536 320 LINE",
"1536 512 LINE SMOOTH",
"1536 582.398 OFFCURVE",
"1478.4 640 OFFCURVE",
"1408 640 CURVE SMOOTH",
"128 640 LINE SMOOTH",
"57.6021 640 OFFCURVE",
"0 582.398 OFFCURVE",
"0 512 CURVE SMOOTH",
"0 -128 LINE SMOOTH",
"0 -198 OFFCURVE",
"57.6021 -256 OFFCURVE",
"128 -256 CURVE SMOOTH",
"1408 -256 LINE SMOOTH",
"1478.4 -256 OFFCURVE",
"1536 -198 OFFCURVE",
"1536 -128 CURVE SMOOTH",
"1536 64 LINE",
"2048 -256 LINE",
"2048 640 LINE"
);
},
{
closed = 1;
nodes = (
"1280 0 LINE",
"256 0 LINE",
"256 384 LINE",
"1280 384 LINE"
);
},
{
closed = 1;
nodes = (
"143.266 1280 OFFCURVE",
"0 1136.73 OFFCURVE",
"0 960 CURVE SMOOTH",
"0 783.266 OFFCURVE",
"143.266 640 OFFCURVE",
"320 640 CURVE SMOOTH",
"496.735 640 OFFCURVE",
"640 783.266 OFFCURVE",
"640 960 CURVE SMOOTH",
"640 1136.73 OFFCURVE",
"496.735 1280 OFFCURVE",
"320 1280 CURVE SMOOTH"
);
},
{
closed = 1;
nodes = (
"911.266 1280 OFFCURVE",
"768 1136.73 OFFCURVE",
"768 960 CURVE SMOOTH",
"768 783.266 OFFCURVE",
"911.266 640 OFFCURVE",
"1088 640 CURVE SMOOTH",
"1264.73 640 OFFCURVE",
"1408 783.266 OFFCURVE",
"1408 960 CURVE SMOOTH",
"1408 1136.73 OFFCURVE",
"1264.73 1280 OFFCURVE",
"1088 1280 CURVE SMOOTH"
);
}
);
width = 2048;
}
);
unicode = E015;
},
{
glyphname = uniE016;
lastChange = "2014-09-19 13:45:34 +0000";
layers = (
{
layerId = "C6537DE0-68DF-4C5B-B6D5-25B465FDDD7D";
name = Regular;
paths = (
{
closed = 1;
nodes = (
"704 1152 LINE SMOOTH",
"528 1152 OFFCURVE",
"384 1008 OFFCURVE",
"384 832 CURVE SMOOTH",
"384 -192 LINE SMOOTH",
"384 -368 OFFCURVE",
"528 -512 OFFCURVE",
"704 -512 CURVE SMOOTH",
"1728 -512 LINE SMOOTH",
"1904 -512 OFFCURVE",
"2048 -368 OFFCURVE",
"2048 -192 CURVE SMOOTH",
"2048 832 LINE SMOOTH",
"2048 1008 OFFCURVE",
"1904 1152 OFFCURVE",
"1728 1152 CURVE SMOOTH"
);
},
{
closed = 1;
nodes = (
"938.04 128 OFFCURVE",
"1024 42.0391 OFFCURVE",
"1024 -64 CURVE SMOOTH",
"1024 -170 OFFCURVE",
"938.04 -256 OFFCURVE",
"832 -256 CURVE SMOOTH",
"725.961 -256 OFFCURVE",
"640 -170 OFFCURVE",
"640 -64 CURVE SMOOTH",
"640 42.0391 OFFCURVE",
"725.961 128 OFFCURVE",
"832 128 CURVE SMOOTH"
);
},
{
closed = 1;
nodes = (
"938.04 896 OFFCURVE",
"1024 810.039 OFFCURVE",
"1024 704 CURVE SMOOTH",
"1024 597.961 OFFCURVE",
"938.04 512 OFFCURVE",
"832 512 CURVE SMOOTH",
"725.961 512 OFFCURVE",
"640 597.961 OFFCURVE",
"640 704 CURVE SMOOTH",
"640 810.039 OFFCURVE",
"725.961 896 OFFCURVE",
"832 896 CURVE SMOOTH"
);
},
{
closed = 1;
nodes = (
"1322.04 512 OFFCURVE",
"1408 426.039 OFFCURVE",
"1408 320 CURVE SMOOTH",
"1408 213.961 OFFCURVE",
"1322.04 128 OFFCURVE",
"1216 128 CURVE SMOOTH",
"1109.96 128 OFFCURVE",
"1024 213.961 OFFCURVE",
"1024 320 CURVE SMOOTH",
"1024 426.039 OFFCURVE",
"1109.96 512 OFFCURVE",
"1216 512 CURVE SMOOTH"
);
},
{
closed = 1;
nodes = (
"1706.04 128 OFFCURVE",
"1792 42.0391 OFFCURVE",
"1792 -64 CURVE SMOOTH",
"1792 -170 OFFCURVE",
"1706.04 -256 OFFCURVE",
"1600 -256 CURVE SMOOTH",
"1493.96 -256 OFFCURVE",
"1408 -170 OFFCURVE",
"1408 -64 CURVE SMOOTH",
"1408 42.0391 OFFCURVE",
"1493.96 128 OFFCURVE",
"1600 128 CURVE SMOOTH"
);
},
{
closed = 1;
nodes = (
"320 1536 LINE SMOOTH",
"144 1536 OFFCURVE",
"0 1392 OFFCURVE",
"0 1216 CURVE SMOOTH",
"0 192 LINE SMOOTH",
"0 37.9063 OFFCURVE",
"110.391 -92 OFFCURVE",
"256 -122 CURVE",
"256 1152 LINE SMOOTH",
"256 1222.4 OFFCURVE",
"313.602 1280 OFFCURVE",
"384 1280 CURVE SMOOTH",
"1657.52 1280 LINE",
"1627.66 1425.61 OFFCURVE",
"1498.1 1536 OFFCURVE",
"1344 1536 CURVE SMOOTH"
);
},
{
closed = 1;
nodes = (
"1706.04 896 OFFCURVE",
"1792 810.039 OFFCURVE",
"1792 704 CURVE SMOOTH",
"1792 597.961 OFFCURVE",
"1706.04 512 OFFCURVE",
"1600 512 CURVE SMOOTH",
"1493.96 512 OFFCURVE",
"1408 597.961 OFFCURVE",
"1408 704 CURVE SMOOTH",
"1408 810.039 OFFCURVE",
"1493.96 896 OFFCURVE",
"1600 896 CURVE SMOOTH"
);
}
);
width = 2048;
}
);
unicode = E016;
},
{
glyphname = uniE017;
lastChange = "2014-09-19 13:45:38 +0000";
layers = (
{
layerId = "C6537DE0-68DF-4C5B-B6D5-25B465FDDD7D";
name = Regular;
paths = (
{
closed = 1;
nodes = (
"586.461 1536 OFFCURVE",
"128 1077.54 OFFCURVE",
"128 512 CURVE SMOOTH",
"128 -54 OFFCURVE",
"586.461 -512 OFFCURVE",
"1152 -512 CURVE SMOOTH",
"1463.04 -512 OFFCURVE",
"1741.66 -373 OFFCURVE",
"1929.46 -154 CURVE",
"1280 512 LINE",
"1929.46 1178.39 LINE",
"1741.66 1397.29 OFFCURVE",
"1463.04 1536 OFFCURVE",
"1152 1536 CURVE SMOOTH"
);
},
{
closed = 1;
nodes = (
"1486.86 1294.8 OFFCURVE",
"1550.8 1230.87 OFFCURVE",
"1550.8 1152 CURVE SMOOTH",
"1550.8 1073.13 OFFCURVE",
"1486.86 1009.2 OFFCURVE",
"1408 1009.2 CURVE SMOOTH",
"1329.14 1009.2 OFFCURVE",
"1265.2 1073.14 OFFCURVE",
"1265.2 1152 CURVE SMOOTH",
"1265.2 1230.86 OFFCURVE",
"1329.14 1294.8 OFFCURVE",
"1408 1294.8 CURVE SMOOTH"
);
}
);
width = 2048;
}
);
unicode = E017;
},
{
glyphname = uniE018;
lastChange = "2014-09-19 13:45:38 +0000";
layers = (
{
layerId = "C6537DE0-68DF-4C5B-B6D5-25B465FDDD7D";
name = Regular;
paths = (
{
closed = 1;
nodes = (
"933 1358 OFFCURVE",
"799.998 1127.41 OFFCURVE",
"412.866 839.699 CURVE SMOOTH",
"210 689 OFFCURVE",
"128 519 OFFCURVE",
"128 368 CURVE SMOOTH",
"128 127 OFFCURVE",
"336 -68 OFFCURVE",
"592 -68 CURVE SMOOTH",
"693 -68 OFFCURVE",
"806 -38 OFFCURVE",
"920.381 41.25 CURVE",
"884.792 -193 OFFCURVE",
"763.323 -363 OFFCURVE",
"639.968 -437 CURVE",
"639.968 -512 LINE",
"1408.03 -512 LINE",
"1408.03 -437 LINE",
"1284.67 -363 OFFCURVE",
"1163.21 -193 OFFCURVE",
"1127.61 41.25 CURVE",
"1238 -35 OFFCURVE",
"1351 -68 OFFCURVE",
"1456 -68 CURVE SMOOTH",
"1712 -68 OFFCURVE",
"1920 127 OFFCURVE",
"1920 368 CURVE SMOOTH",
"1920 519 OFFCURVE",
"1842 685 OFFCURVE",
"1635.14 839.699 CURVE SMOOTH",
"1248.01 1127.42 OFFCURVE",
"1115 1358 OFFCURVE",
"1024 1536 CURVE SMOOTH"
);
}
);
width = 2048;
}
);
unicode = E018;
},
{
glyphname = uniE019;
lastChange = "2014-09-19 13:45:38 +0000";
layers = (
{
layerId = "C6537DE0-68DF-4C5B-B6D5-25B465FDDD7D";
name = Regular;
paths = (
{
closed = 1;
nodes = (
"797 1534 OFFCURVE",
"614 1347 OFFCURVE",
"614 1117 CURVE SMOOTH",
"614 837 OFFCURVE",
"848 785 OFFCURVE",
"922 511 CURVE",
"862 547 OFFCURVE",
"806 587 OFFCURVE",
"774 621 CURVE",
"699 701 OFFCURVE",
"592 750 OFFCURVE",
"474 750 CURVE SMOOTH",
"246 750 OFFCURVE",
"60 563 OFFCURVE",
"60 332 CURVE SMOOTH",
"60 101 OFFCURVE",
"246 -87 OFFCURVE",
"474 -87 CURVE SMOOTH",
"695 -87 OFFCURVE",
"751 57 OFFCURVE",
"931 161 CURVE",
"925 -134 OFFCURVE",
"784 -351 OFFCURVE",
"640 -437 CURVE",
"640 -512 LINE",
"1408 -512 LINE",
"1408 -437 LINE",
"1264 -351 OFFCURVE",
"1123 -134 OFFCURVE",
"1117 161 CURVE",
"1292 60 OFFCURVE",
"1353 -87 OFFCURVE",
"1574 -87 CURVE SMOOTH",
"1802 -87 OFFCURVE",
"1988 101 OFFCURVE",
"1988 332 CURVE",
"1988 563 OFFCURVE",
"1802 750 OFFCURVE",
"1574 750 CURVE SMOOTH",
"1456 750 OFFCURVE",
"1349 701 OFFCURVE",
"1274 621 CURVE",
"1242 587 OFFCURVE",
"1186 547 OFFCURVE",
"1126 511 CURVE",
"1198 780 OFFCURVE",
"1434 837 OFFCURVE",
"1434 1117 CURVE SMOOTH",
"1434 1347 OFFCURVE",
"1251 1534 OFFCURVE",
"1024 1536 CURVE SMOOTH"
);
}
);
width = 2048;
}
);
unicode = E019;
},
{
glyphname = uniE020;
lastChange = "2014-09-19 13:45:38 +0000";
layers = (
{
layerId = "C6537DE0-68DF-4C5B-B6D5-25B465FDDD7D";
name = Regular;
paths = (
{
closed = 1;
nodes = (
"384 512 LINE",
"1024 -512 LINE",
"1664 512 LINE",
"1024 1536 LINE"
);
}
);
width = 2048;
}
);
unicode = E020;
},
{
glyphname = uniE021;
lastChange = "2014-09-19 13:45:34 +0000";
layers = (
{
layerId = "C6537DE0-68DF-4C5B-B6D5-25B465FDDD7D";
name = Regular;
paths = (
{
closed = 1;
nodes = (
"1620.9 1408 OFFCURVE",
"1231.3 1115.33 OFFCURVE",
"670.438 1000.49 CURVE",
"653.317 909.906 OFFCURVE",
"642.375 801.943 OFFCURVE",
"642.375 677.486 CURVE SMOOTH",
"642.375 553.029 OFFCURVE",
"653.309 445.068 OFFCURVE",
"670.438 354.486 CURVE",
"1231.29 239.65 OFFCURVE",
"1620.9 -53 OFFCURVE",
"1620.9 -53 CURVE",
"1790 -53 OFFCURVE",
"1794 -53 OFFCURVE",
"1785 -53 CURVE",
"1930 -50 OFFCURVE",
"2048 276 OFFCURVE",
"2048 677.486 CURVE SMOOTH",
"2048 1079.34 OFFCURVE",
"1930.41 1405.36 OFFCURVE",
"1785.04 1407.94 CURVE",
"1796 1408 OFFCURVE",
"1790 1408 OFFCURVE",
"1620.9 1408 CURVE SMOOTH"
);
},
{
closed = 1;
nodes = (
"643.989 -342 LINE SMOOTH",
"651 -368 OFFCURVE",
"672 -384 OFFCURVE",
"696 -384 CURVE SMOOTH",
"703 -384 OFFCURVE",
"710 -383 OFFCURVE",
"717 -380 CURVE SMOOTH",
"954.473 -285 LINE SMOOTH",
"977 -276 OFFCURVE",
"990 -256 OFFCURVE",
"990 -234 CURVE SMOOTH",
"990 -225 OFFCURVE",
"988 -216 OFFCURVE",
"983 -207 CURVE SMOOTH",
"736.301 251.654 LINE",
"480.305 300.674 LINE"
);
},
{
closed = 1;
nodes = (
"430.985 962.566 OFFCURVE",
"347.844 955.025 OFFCURVE",
"245.047 955.025 CURVE SMOOTH",
"110.93 955.025 OFFCURVE",
"110.93 955.025 OFFCURVE",
"110.93 955.025 CURVE",
"0 765.654 LINE",
"0 589.314 LINE",
"110.922 399.943 LINE",
"110.922 399.943 OFFCURVE",
"110.922 399.943 OFFCURVE",
"245.04 399.943 CURVE SMOOTH",
"347.836 399.943 OFFCURVE",
"430.977 392.397 OFFCURVE",
"525.719 379.295 CURVE",
"511.25 472.623 OFFCURVE",
"503.625 573.583 OFFCURVE",
"503.625 677.486 CURVE SMOOTH",
"503.625 781.389 OFFCURVE",
"511.243 882.346 OFFCURVE",
"525.727 975.674 CURVE"
);
},
{
closed = 1;
nodes = (
"1847 1296 OFFCURVE",
"1922 909 OFFCURVE",
"1921.65 677.494 CURVE SMOOTH",
"1922 412 OFFCURVE",
"1822 57 OFFCURVE",
"1729.65 57.4941 CURVE SMOOTH",
"1637 57 OFFCURVE",
"1538 402 OFFCURVE",
"1537.65 677.494 CURVE SMOOTH",
"1538 899 OFFCURVE",
"1611 1296 OFFCURVE",
"1729.65 1297.5 CURVE SMOOTH"
);
},
{
closed = 1;
nodes = (
"1694 916 OFFCURVE",
"1656 779 OFFCURVE",
"1655.65 677.494 CURVE SMOOTH",
"1656 590 OFFCURVE",
"1683 440 OFFCURVE",
"1729.65 438.537 CURVE SMOOTH",
"1776 440 OFFCURVE",
"1804 590 OFFCURVE",
"1803.65 677.494 CURVE SMOOTH",
"1804 785 OFFCURVE",
"1765 916 OFFCURVE",
"1729.65 916.455 CURVE SMOOTH"
);
}
);
width = 2048;
}
);
unicode = E021;
},
{
glyphname = uniE022;
lastChange = "2014-09-19 13:45:34 +0000";
layers = (
{
layerId = "C6537DE0-68DF-4C5B-B6D5-25B465FDDD7D";
name = Regular;
paths = (
{
closed = 1;
nodes = (
"828.547 1280 OFFCURVE",
"638.882 1241.69 OFFCURVE",
"460.281 1166.16 CURVE SMOOTH",
"287.825 1093.21 OFFCURVE",
"132.965 988.808 OFFCURVE",
"0 855.846 CURVE",
"146.287 709.56 LINE",
"380.737 944.005 OFFCURVE",
"692.445 1073.12 OFFCURVE",
"1024 1073.12 CURVE SMOOTH",
"1355.56 1073.12 OFFCURVE",
"1667.27 944.005 OFFCURVE",
"1901.72 709.56 CURVE",
"2048 855.843 LINE",
"1915.04 988.808 OFFCURVE",
"1760.18 1093.21 OFFCURVE",
"1587.72 1166.16 CURVE SMOOTH",
"1409.12 1241.69 OFFCURVE",
"1219.46 1280 OFFCURVE",
"1024 1280 CURVE SMOOTH"
);
},
{
closed = 1;
nodes = (
"966.875 38.7236 OFFCURVE",
"920.563 -8 OFFCURVE",
"920.563 -65 CURVE SMOOTH",
"920.563 -122 OFFCURVE",
"966.875 -168 OFFCURVE",
"1024 -168 CURVE SMOOTH",
"1081.13 -168 OFFCURVE",
"1127.44 -122 OFFCURVE",
"1127.44 -65 CURVE SMOOTH",
"1127.44 -8 OFFCURVE",
"1081.13 38.7236 OFFCURVE",
"1024 38.7236 CURVE SMOOTH"
);
},
{
closed = 1;
nodes = (
"852.889 452.483 OFFCURVE",
"697.73 382.876 OFFCURVE",
"585.35 270.497 CURVE",
"731.57 124.278 LINE",
"806.492 199.2 OFFCURVE",
"909.931 245.602 OFFCURVE",
"1024 245.602 CURVE SMOOTH",
"1138.07 245.602 OFFCURVE",
"1241.52 199.2 OFFCURVE",
"1316.44 124.278 CURVE",
"1462.66 270.497 LINE",
"1350.28 382.876 OFFCURVE",
"1195.12 452.483 OFFCURVE",
"1024 452.483 CURVE SMOOTH"
);
},
{
closed = 1;
nodes = (
"747.706 866.241 OFFCURVE",
"487.946 758.644 OFFCURVE",
"292.576 563.271 CURVE",
"438.859 416.985 LINE",
"595.158 573.288 OFFCURVE",
"802.962 659.362 OFFCURVE",
"1024 659.362 CURVE SMOOTH",
"1245.04 659.362 OFFCURVE",
"1452.85 573.288 OFFCURVE",
"1609.15 416.989 CURVE",
"1755.44 563.271 LINE",
"1560.06 758.644 OFFCURVE",
"1300.3 866.241 OFFCURVE",
"1024 866.241 CURVE SMOOTH"
);
}
);
width = 2048;
}
);
unicode = E022;
},
{
glyphname = uniE023;
lastChange = "2014-09-19 13:45:38 +0000";
layers = (
{
layerId = "C6537DE0-68DF-4C5B-B6D5-25B465FDDD7D";
name = Regular;
paths = (
{
closed = 1;
nodes = (
"384 1536 LINE SMOOTH",
"243.204 1536 OFFCURVE",
"128 1420.8 OFFCURVE",
"128 1280 CURVE SMOOTH",
"128 -256 LINE SMOOTH",
"128 -397 OFFCURVE",
"243.204 -512 OFFCURVE",
"384 -512 CURVE SMOOTH",
"1920 -512 LINE",
"1920 1280 LINE",
"1792 1280 LINE",
"1792 -384 LINE",
"448 -384 LINE SMOOTH",
"341.954 -384 OFFCURVE",
"256 -298 OFFCURVE",
"256 -192 CURVE SMOOTH",
"256 -86 OFFCURVE",
"341.954 0 OFFCURVE",
"448 0 CURVE SMOOTH",
"1664 0 LINE",
"1664 1536 LINE"
);
},
{
closed = 1;
nodes = (
"512 -128 LINE",
"512 -256 LINE",
"1664 -256 LINE",
"1664 -128 LINE"
);
}
);
width = 2048;
}
);
unicode = E023;
},
{
glyphname = uniE024;
lastChange = "2014-09-19 13:45:34 +0000";
layers = (
{
layerId = "C6537DE0-68DF-4C5B-B6D5-25B465FDDD7D";
name = Regular;
paths = (
{
closed = 1;
nodes = (
"1154.13 959.316 LINE",
"1561.88 -256 LINE",
"2048 -93 LINE",
"1640.25 1122.41 LINE"
);
},
{
closed = 1;
nodes = (
"0 1154.13 LINE",
"0 -256 LINE",
"512.737 -256 LINE",
"512.737 1154.13 LINE"
);
},
{
closed = 1;
nodes = (
"384.553 769.583 LINE",
"128.185 769.583 LINE",
"128.185 897.767 LINE",
"384.553 897.767 LINE"
);
},
{
closed = 1;
nodes = (
"640.921 1154.13 LINE",
"640.921 -256 LINE",
"1153.66 -256 LINE",
"1153.66 1154.13 LINE"
);
},
{
closed = 1;
nodes = (
"1025.47 769.583 LINE",
"769.104 769.583 LINE",
"769.104 897.767 LINE",
"1025.47 897.767 LINE"
);
}
);
width = 2048;
}
);
unicode = E024;
},
{
glyphname = uniE025;
lastChange = "2014-09-19 13:45:34 +0000";
layers = (
{
layerId = "C6537DE0-68DF-4C5B-B6D5-25B465FDDD7D";
name = Regular;
paths = (
{
closed = 1;
nodes = (
"0 896 LINE",
"2048 896 LINE",
"1024 1536 LINE"
);
},
{
closed = 1;
nodes = (
"64 768 LINE",
"128 640 LINE",
"128 -128 LINE",
"384 -128 LINE",
"384 640 LINE",
"448 768 LINE"
);
},
{
closed = 1;
nodes = (
"64 -256 LINE",
"0 -512 LINE",
"2048 -512 LINE",
"1984 -256 LINE"
);
},
{
closed = 1;
nodes = (
"576 768 LINE",
"640 640 LINE",
"640 -128 LINE",
"896 -128 LINE",
"896 640 LINE",
"960 768 LINE"
);
},
{
closed = 1;
nodes = (
"1088 768 LINE",
"1152 640 LINE",
"1152 -128 LINE",
"1408 -128 LINE",
"1408 640 LINE",
"1472 768 LINE"
);
},
{
closed = 1;
nodes = (
"1600 768 LINE",
"1664 640 LINE",
"1664 -128 LINE",
"1920 -128 LINE",
"1920 640 LINE",
"1984 768 LINE"
);
},
{
closed = 1;
nodes = (
"1094.69 1280 OFFCURVE",
"1152 1222.69 OFFCURVE",
"1152 1152 CURVE SMOOTH",
"1152 1081.31 OFFCURVE",
"1094.69 1024 OFFCURVE",
"1024 1024 CURVE SMOOTH",
"953.309 1024 OFFCURVE",
"896 1081.31 OFFCURVE",
"896 1152 CURVE SMOOTH",
"896 1222.69 OFFCURVE",
"953.309 1280 OFFCURVE",
"1024 1280 CURVE SMOOTH"
);
}
);
width = 2048;
}
);
unicode = E025;
},
{
glyphname = uniE026;
lastChange = "2014-09-19 13:45:38 +0000";
layers = (
{
layerId = "C6537DE0-68DF-4C5B-B6D5-25B465FDDD7D";
name = Regular;
paths = (
{
closed = 1;
nodes = (
"192 1536 LINE SMOOTH",
"86.3989 1536 OFFCURVE",
"0 1449.6 OFFCURVE",
"0 1344 CURVE SMOOTH",
"0 -320 LINE SMOOTH",
"0 -426 OFFCURVE",
"86.3989 -512 OFFCURVE",
"192 -512 CURVE SMOOTH",
"1728 -512 LINE SMOOTH",
"1833.6 -512 OFFCURVE",
"1920 -426 OFFCURVE",
"1920 -320 CURVE SMOOTH",
"1920 1344 LINE SMOOTH",
"1920 1449.6 OFFCURVE",
"1833.6 1536 OFFCURVE",
"1728 1536 CURVE SMOOTH"
);
},
{
closed = 1;
nodes = (
"512 128 LINE",
"512 0 LINE",
"1408 0 LINE",
"1408 128 LINE"
);
},
{
closed = 1;
nodes = (
"512 384 LINE",
"512 256 LINE",
"1408 256 LINE",
"1408 384 LINE"
);
},
{
closed = 1;
nodes = (
"1664 -256 LINE",
"256 -256 LINE",
"256 1280 LINE",
"1664 1280 LINE"
);
},
{
closed = 1;
nodes = (
"512 640 LINE",
"512 512 LINE",
"1408 512 LINE",
"1408 640 LINE"
);
},
{
closed = 1;
nodes = (
"512 896 LINE",
"512 768 LINE",
"1408 768 LINE",
"1408 896 LINE"
);
}
);
width = 2048;
}
);
unicode = E026;
},
{
glyphname = uniE027;
lastChange = "2014-09-19 13:45:38 +0000";
layers = (
{
layerId = "C6537DE0-68DF-4C5B-B6D5-25B465FDDD7D";
name = Regular;
paths = (
{
closed = 1;
nodes = (
"192 1536 LINE SMOOTH",
"86.3989 1536 OFFCURVE",
"0 1449.6 OFFCURVE",
"0 1344 CURVE SMOOTH",
"0 -320 LINE SMOOTH",
"0 -426 OFFCURVE",
"86.3989 -512 OFFCURVE",
"192 -512 CURVE SMOOTH",
"1728 -512 LINE SMOOTH",
"1833.6 -512 OFFCURVE",
"1920 -426 OFFCURVE",
"1920 -320 CURVE SMOOTH",
"1920 1344 LINE SMOOTH",
"1920 1449.6 OFFCURVE",
"1833.6 1536 OFFCURVE",
"1728 1536 CURVE SMOOTH"
);
},
{
closed = 1;
nodes = (
"512 128 LINE",
"512 0 LINE",
"1408 0 LINE",
"1408 128 LINE"
);
},
{
closed = 1;
nodes = (
"512 384 LINE",
"512 256 LINE",
"1408 256 LINE",
"1408 384 LINE"
);
},
{
closed = 1;
nodes = (
"1664 -256 LINE",
"256 -256 LINE",
"256 1280 LINE",
"1664 1280 LINE"
);
},
{
closed = 1;
nodes = (
"704 768 LINE SMOOTH",
"598.399 768 OFFCURVE",
"512 710.398 OFFCURVE",
"512 640 CURVE SMOOTH",
"512 512 LINE",
"1152 512 LINE",
"1152 640 LINE SMOOTH",
"1152 710.398 OFFCURVE",
"1065.6 768 OFFCURVE",
"960 768 CURVE SMOOTH"
);
},
{
closed = 1;
nodes = (
"725.961 1152 OFFCURVE",
"640 1066.04 OFFCURVE",
"640 960 CURVE SMOOTH",
"640 853.961 OFFCURVE",
"725.961 768 OFFCURVE",
"832 768 CURVE SMOOTH",
"938.04 768 OFFCURVE",
"1024 853.961 OFFCURVE",
"1024 960 CURVE SMOOTH",
"1024 1066.04 OFFCURVE",
"938.04 1152 OFFCURVE",
"832 1152 CURVE SMOOTH"
);
}
);
width = 2048;
}
);
unicode = E027;
},
{
glyphname = uniE028;
lastChange = "2014-09-19 13:47:01 +0000";
layers = (
{
layerId = "C6537DE0-68DF-4C5B-B6D5-25B465FDDD7D";
name = Regular;
paths = (
{
closed = 1;
nodes = (
"811.922 1536 OFFCURVE",
"640 1364.52 OFFCURVE",
"640 1153 CURVE SMOOTH",
"640 1109.46 OFFCURVE",
"647.301 1067.62 OFFCURVE",
"660.727 1028.61 CURVE",
"658.922 1027.24 OFFCURVE",
"657.117 1025.89 OFFCURVE",
"655.328 1024.5 CURVE",
"305.969 1024.5 LINE",
"190.086 1488.02 LINE",
"65.9063 1456.98 LINE",
"206.027 896.496 LINE",
"529.914 896.496 LINE",
"450.148 790.053 OFFCURVE",
"398.305 657.371 OFFCURVE",
"386.578 512 CURVE",
"0 512 LINE",
"0 384 LINE",
"386.742 384 LINE",
"394.344 292.672 OFFCURVE",
"417.758 206.375 OFFCURVE",
"454.016 128.5 CURVE",
"206.031 128.5 LINE",
"65.9141 -432 LINE",
"190.094 -463 LINE",
"305.973 0.5 LINE",
"530.68 0.5 LINE",
"648.062 -156 OFFCURVE",
"825.473 -255 OFFCURVE",
"1024 -255 CURVE SMOOTH",
"1222.53 -255 OFFCURVE",
"1399.93 -156 OFFCURVE",
"1517.32 0.5 CURVE",
"1742.03 0.5 LINE",
"1857.91 -463 LINE",
"1982.09 -432 LINE",
"1841.97 128.5 LINE",
"1593.99 128.5 LINE",
"1630.25 206.375 OFFCURVE",
"1653.66 292.672 OFFCURVE",
"1661.26 384 CURVE",
"2048 384 LINE",
"2048 512 LINE",
"1661.42 512 LINE",
"1649.7 657.371 OFFCURVE",
"1597.85 790.053 OFFCURVE",
"1518.08 896.5 CURVE",
"1841.97 896.5 LINE",
"1982.09 1456.98 LINE",
"1857.91 1488.02 LINE",
"1742.03 1024.5 LINE",
"1392.67 1024.5 LINE",
"1390.88 1025.89 OFFCURVE",
"1389.08 1027.25 OFFCURVE",
"1387.27 1028.62 CURVE",
"1400.69 1067.62 OFFCURVE",
"1408 1109.46 OFFCURVE",
"1408 1153 CURVE SMOOTH",
"1408 1364.52 OFFCURVE",
"1236.08 1536 OFFCURVE",
"1024 1536 CURVE SMOOTH"
);
}
);
width = 2048;
}
);
unicode = E028;
},
{
glyphname = uniE029;
lastChange = "2014-09-19 13:45:34 +0000";
layers = (
{
layerId = "C6537DE0-68DF-4C5B-B6D5-25B465FDDD7D";
name = Regular;
paths = (
{
closed = 1;
nodes = (
"0 896 LINE",
"1024 384 LINE",
"2048 896 LINE",
"1024 1408 LINE"
);
},
{
closed = 1;
nodes = (
"1024 -179 LINE",
"205.11 230.555 LINE",
"0 128 LINE",
"1024 -384 LINE",
"2048 128 LINE",
"1842.89 230.555 LINE"
);
},
{
closed = 1;
nodes = (
"1024 205.113 LINE",
"205.11 614.555 LINE",
"0 512 LINE",
"1024 0 LINE",
"2048 512 LINE",
"1842.89 614.555 LINE"
);
},
{
closed = 1;
nodes = (
"1708.12 896 LINE",
"1024 553.938 LINE",
"339.883 896 LINE",
"1024 1238.06 LINE"
);
}
);
width = 2048;
}
);
unicode = E029;
},
{
glyphname = uniE030;
lastChange = "2014-09-19 13:45:34 +0000";
layers = (
{
layerId = "C6537DE0-68DF-4C5B-B6D5-25B465FDDD7D";
name = Regular;
paths = (
{
closed = 1;
nodes = (
"0 896 LINE",
"128 -384 LINE",
"1920 -384 LINE",
"2048 896 LINE"
);
},
{
closed = 1;
nodes = (
"256 1280 LINE",
"128 1024 LINE",
"1920 1024 LINE",
"1856 1152 LINE",
"1024 1152 LINE",
"960 1280 LINE"
);
}
);
width = 2048;
}
);
unicode = E030;
},
{
glyphname = uniE031;
lastChange = "2014-09-19 13:45:34 +0000";
layers = (
{
layerId = "C6537DE0-68DF-4C5B-B6D5-25B465FDDD7D";
name = Regular;
paths = (
{
closed = 1;
nodes = (
"1278.5 1536 LINE SMOOTH",
"1172.69 1536 OFFCURVE",
"1024.91 1474.79 OFFCURVE",
"950.094 1399.97 CURVE SMOOTH",
"56.1099 505.991 LINE SMOOTH",
"19 469 OFFCURVE",
"0 419 OFFCURVE",
"0 370 CURVE SMOOTH",
"0 321 OFFCURVE",
"19 271 OFFCURVE",
"56.1099 233.929 CURVE SMOOTH",
"745.93 -456 LINE SMOOTH",
"783 -494 OFFCURVE",
"833 -512 OFFCURVE",
"882 -512 CURVE SMOOTH",
"931 -512 OFFCURVE",
"981 -494 OFFCURVE",
"1017.99 -456 CURVE SMOOTH",
"1911.97 438.093 LINE SMOOTH",
"1986.79 512.913 OFFCURVE",
"2048 660.694 OFFCURVE",
"2048 766.499 CURVE SMOOTH",
"2048 1343.62 LINE SMOOTH",
"2048 1449.43 OFFCURVE",
"1961.43 1536 OFFCURVE",
"1855.63 1536 CURVE SMOOTH"
);
},
{
closed = 1;
nodes = (
"1706.04 1280 OFFCURVE",
"1792 1194.04 OFFCURVE",
"1792 1088 CURVE SMOOTH",
"1792 981.96 OFFCURVE",
"1706.04 895.999 OFFCURVE",
"1600 895.999 CURVE SMOOTH",
"1493.96 895.999 OFFCURVE",
"1408 981.96 OFFCURVE",
"1408 1088 CURVE SMOOTH",
"1408 1194.04 OFFCURVE",
"1493.96 1280 OFFCURVE",
"1600 1280 CURVE SMOOTH"
);
}
);
width = 2048;
}
);
unicode = E031;
},
{
glyphname = uniE032;
lastChange = "2014-09-19 13:45:34 +0000";
layers = (
{
layerId = "C6537DE0-68DF-4C5B-B6D5-25B465FDDD7D";
name = Regular;
paths = (
{
closed = 1;
nodes = (
"1441.25 1408 LINE SMOOTH",
"1341.14 1408 OFFCURVE",
"1201.31 1350.08 OFFCURVE",
"1130.52 1279.29 CURVE SMOOTH",
"417.142 565.915 LINE SMOOTH",
"382 531 OFFCURVE",
"364 484 OFFCURVE",
"364 437 CURVE SMOOTH",
"364 391 OFFCURVE",
"382 344 OFFCURVE",
"417.142 308.49 CURVE SMOOTH",
"948.492 -223 LINE SMOOTH",
"984 -259 OFFCURVE",
"1031 -276 OFFCURVE",
"1077 -276 CURVE SMOOTH",
"1124 -276 OFFCURVE",
"1171 -259 OFFCURVE",
"1205.92 -223 CURVE SMOOTH",
"1919.29 490.516 LINE SMOOTH",
"1990.08 561.307 OFFCURVE",
"2048 701.137 OFFCURVE",
"2048 801.252 CURVE SMOOTH",
"2048 1225.98 LINE SMOOTH",
"2048 1326.09 OFFCURVE",
"1966.09 1408 OFFCURVE",
"1865.98 1408 CURVE SMOOTH"
);
},
{
closed = 1;
nodes = (
"977.088 1408 OFFCURVE",
"837.259 1350.08 OFFCURVE",
"766.467 1279.29 CURVE SMOOTH",
"53.0933 565.915 LINE SMOOTH",
"18 531 OFFCURVE",
"0 484 OFFCURVE",
"0 437 CURVE SMOOTH",
"0 391 OFFCURVE",
"18 344 OFFCURVE",
"53.0933 308.49 CURVE SMOOTH",
"584.443 -223 LINE SMOOTH",
"620 -258 OFFCURVE",
"666 -276 OFFCURVE",
"713 -276 CURVE SMOOTH",
"742 -276 OFFCURVE",
"772 -269 OFFCURVE",
"798.486 -255 CURVE",
"149.305 394.303 LINE SMOOTH",
"138 406 OFFCURVE",
"132 422 OFFCURVE",
"132 437 CURVE SMOOTH",
"132 453 OFFCURVE",
"138 468 OFFCURVE",
"149.305 480.109 CURVE SMOOTH",
"1077.2 1408 LINE"
);
},
{
closed = 1;
nodes = (
"1723.81 1165.3 OFFCURVE",
"1805.3 1083.81 OFFCURVE",
"1805.3 983.276 CURVE SMOOTH",
"1805.3 882.747 OFFCURVE",
"1723.81 801.252 OFFCURVE",
"1623.28 801.252 CURVE SMOOTH",
"1522.75 801.252 OFFCURVE",
"1441.25 882.747 OFFCURVE",
"1441.25 983.276 CURVE SMOOTH",
"1441.25 1083.81 OFFCURVE",
"1522.75 1165.3 OFFCURVE",
"1623.28 1165.3 CURVE SMOOTH"
);
}
);
width = 2048;
}
);
unicode = E032;
},
{
glyphname = uniE033;
lastChange = "2014-09-19 13:45:34 +0000";
layers = (
{
layerId = "C6537DE0-68DF-4C5B-B6D5-25B465FDDD7D";
name = Regular;
paths = (
{
closed = 1;
nodes = (
"1280 1536 LINE",
"1280 768 LINE",
"2048 768 LINE",
"2048 1536 LINE"
);
},
{
closed = 1;
nodes = (
"640 -384 LINE",
"128 -384 LINE",
"128 128 LINE",
"640 128 LINE"
);
},
{
closed = 1;
nodes = (
"0 256 LINE",
"0 -512 LINE",
"768 -512 LINE",
"768 256 LINE"
);
},
{
closed = 1;
nodes = (
"256 0 LINE",
"256 -256 LINE",
"512 -256 LINE",
"512 0 LINE"
);
},
{
closed = 1;
nodes = (
"896 -256 LINE",
"896 -384 LINE",
"1024 -384 LINE",
"1024 -256 LINE"
);
},
{
closed = 1;
nodes = (
"1024 -384 LINE",
"1024 -512 LINE",
"1152 -512 LINE",
"1152 -384 LINE"
);
},
{
closed = 1;
nodes = (
"128 512 LINE",
"128 384 LINE",
"256 384 LINE",
"256 512 LINE"
);
},
{
closed = 1;
nodes = (
"0 640 LINE",
"0 512 LINE",
"128 512 LINE",
"128 640 LINE"
);
},
{
closed = 1;
nodes = (
"896 0 LINE",
"896 -128 LINE",
"1024 -128 LINE",
"1024 0 LINE"
);
},
{
closed = 1;
nodes = (
"1024 -128 LINE",
"1024 -256 LINE",
"1152 -256 LINE",
"1152 -128 LINE"
);
},
{
closed = 1;
nodes = (
"256 640 LINE",
"256 512 LINE",
"384 512 LINE",
"384 640 LINE"
);
},
{
closed = 1;
nodes = (
"1280 -384 LINE",
"1280 -512 LINE",
"1408 -512 LINE",
"1408 -384 LINE"
);
},
{
closed = 1;
nodes = (
"896 256 LINE",
"896 128 LINE",
"1024 128 LINE",
"1024 256 LINE"
);
},
{
closed = 1;
nodes = (
"1024 128 LINE",
"1024 0 LINE",
"1152 0 LINE",
"1152 128 LINE"
);
},
{
closed = 1;
nodes = (
"512 640 LINE",
"512 512 LINE",
"640 512 LINE",
"640 640 LINE"
);
},
{
closed = 1;
nodes = (
"640 512 LINE",
"640 384 LINE",
"768 384 LINE",
"768 512 LINE"
);
},
{
closed = 1;
nodes = (
"1152 0 LINE",
"1152 -128 LINE",
"1280 -128 LINE",
"1280 0 LINE"
);
},
{
closed = 1;
nodes = (
"1280 -128 LINE",
"1280 -256 LINE",
"1408 -256 LINE",
"1408 -128 LINE"
);
},
{
closed = 1;
nodes = (
"1408 -256 LINE",
"1408 -384 LINE",
"1536 -384 LINE",
"1536 -256 LINE"
);
},
{
closed = 1;
nodes = (
"1536 -384 LINE",
"1536 -512 LINE",
"1664 -512 LINE",
"1664 -384 LINE"
);
},
{
closed = 1;
nodes = (
"896 512 LINE",
"896 384 LINE",
"1024 384 LINE",
"1024 512 LINE"
);
},
{
closed = 1;
nodes = (
"1024 384 LINE",
"1024 256 LINE",
"1152 256 LINE",
"1152 384 LINE"
);
},
{
closed = 1;
nodes = (
"768 640 LINE",
"768 512 LINE",
"896 512 LINE",
"896 640 LINE"
);
},
{
closed = 1;
nodes = (
"1152 256 LINE",
"1152 128 LINE",
"1280 128 LINE",
"1280 256 LINE"
);
},
{
closed = 1;
nodes = (
"1280 128 LINE",
"1280 0 LINE",
"1408 0 LINE",
"1408 128 LINE"
);
},
{
closed = 1;
nodes = (
"1536 -128 LINE",
"1536 -256 LINE",
"1664 -256 LINE",
"1664 -128 LINE"
);
},
{
closed = 1;
nodes = (
"1664 -256 LINE",
"1664 -384 LINE",
"1792 -384 LINE",
"1792 -256 LINE"
);
},
{
closed = 1;
nodes = (
"1792 -384 LINE",
"1792 -512 LINE",
"1920 -512 LINE",
"1920 -384 LINE"
);
},
{
closed = 1;
nodes = (
"640 896 LINE",
"128 896 LINE",
"128 1408 LINE",
"640 1408 LINE"
);
},
{
closed = 1;
nodes = (
"0 1536 LINE",
"0 768 LINE",
"768 768 LINE",
"768 1536 LINE"
);
},
{
closed = 1;
nodes = (
"256 1280 LINE",
"256 1024 LINE",
"512 1024 LINE",
"512 1280 LINE"
);
},
{
closed = 1;
nodes = (
"896 768 LINE",
"896 640 LINE",
"1024 640 LINE",
"1024 768 LINE"
);
},
{
closed = 1;
nodes = (
"1152 512 LINE",
"1152 384 LINE",
"1280 384 LINE",
"1280 512 LINE"
);
},
{
closed = 1;
nodes = (
"1280 384 LINE",
"1280 256 LINE",
"1408 256 LINE",
"1408 384 LINE"
);
},
{
closed = 1;
nodes = (
"1408 256 LINE",
"1408 128 LINE",
"1536 128 LINE",
"1536 256 LINE"
);
},
{
closed = 1;
nodes = (
"1536 128 LINE",
"1536 0 LINE",
"1664 0 LINE",
"1664 128 LINE"
);
},
{
closed = 1;
nodes = (
"1664 0 LINE",
"1664 -128 LINE",
"1792 -128 LINE",
"1792 0 LINE"
);
},
{
closed = 1;
nodes = (
"1920 -256 LINE",
"1920 -384 LINE",
"2048 -384 LINE",
"2048 -256 LINE"
);
},
{
closed = 1;
nodes = (
"896 1024 LINE",
"896 896 LINE",
"1024 896 LINE",
"1024 1024 LINE"
);
},
{
closed = 1;
nodes = (
"1024 896 LINE",
"1024 768 LINE",
"1152 768 LINE",
"1152 896 LINE"
);
},
{
closed = 1;
nodes = (
"1280 640 LINE",
"1280 512 LINE",
"1408 512 LINE",
"1408 640 LINE"
);
},
{
closed = 1;
nodes = (
"1408 512 LINE",
"1408 384 LINE",
"1536 384 LINE",
"1536 512 LINE"
);
},
{
closed = 1;
nodes = (
"1664 256 LINE",
"1664 128 LINE",
"1792 128 LINE",
"1792 256 LINE"
);
},
{
closed = 1;
nodes = (
"1920 0 LINE",
"1920 -128 LINE",
"2048 -128 LINE",
"2048 0 LINE"
);
},
{
closed = 1;
nodes = (
"1792 128 LINE",
"1792 0 LINE",
"1920 0 LINE",
"1920 128 LINE"
);
},
{
closed = 1;
nodes = (
"896 1280 LINE",
"896 1152 LINE",
"1024 1152 LINE",
"1024 1280 LINE"
);
},
{
closed = 1;
nodes = (
"1024 1152 LINE",
"1024 1024 LINE",
"1152 1024 LINE",
"1152 1152 LINE"
);
},
{
closed = 1;
nodes = (
"1536 640 LINE",
"1536 512 LINE",
"1664 512 LINE",
"1664 640 LINE"
);
},
{
closed = 1;
nodes = (
"1664 512 LINE",
"1664 384 LINE",
"1792 384 LINE",
"1792 512 LINE"
);
},
{
closed = 1;
nodes = (
"1920 256 LINE",
"1920 128 LINE",
"2048 128 LINE",
"2048 256 LINE"
);
},
{
closed = 1;
nodes = (
"1792 384 LINE",
"1792 256 LINE",
"1920 256 LINE",
"1920 384 LINE"
);
},
{
closed = 1;
nodes = (
"896 1536 LINE",
"896 1408 LINE",
"1024 1408 LINE",
"1024 1536 LINE"
);
},
{
closed = 1;
nodes = (
"1024 1408 LINE",
"1024 1280 LINE",
"1152 1280 LINE",
"1152 1408 LINE"
);
},
{
closed = 1;
nodes = (
"1920 512 LINE",
"1920 384 LINE",
"2048 384 LINE",
"2048 512 LINE"
);
},
{
closed = 1;
nodes = (
"1792 640 LINE",
"1792 512 LINE",
"1920 512 LINE",
"1920 640 LINE"
);
},
{
closed = 1;
nodes = (
"1920 896 LINE",
"1408 896 LINE",
"1408 1408 LINE",
"1920 1408 LINE"
);
},
{
closed = 1;
nodes = (
"1536 1280 LINE",
"1536 1024 LINE",
"1792 1024 LINE",
"1792 1280 LINE"
);
}
);
width = 2048;
}
);
unicode = E033;
},
{
glyphname = uniE034;
lastChange = "2014-09-19 13:45:34 +0000";
layers = (
{
layerId = "C6537DE0-68DF-4C5B-B6D5-25B465FDDD7D";
name = Regular;
paths = (
{
closed = 1;
nodes = (
"1305 1536 OFFCURVE",
"1265 1521 OFFCURVE",
"1235.03 1491.05 CURVE SMOOTH",
"44.9507 300.976 LINE SMOOTH",
"15 271 OFFCURVE",
"0 232 OFFCURVE",
"0 192 CURVE SMOOTH",
"0 152 OFFCURVE",
"15 113 OFFCURVE",
"44.9507 83.0234 CURVE SMOOTH",
"191.99 -64 LINE",
"255.912 0 LINE SMOOTH",
"431 175 OFFCURVE",
"673 -94 OFFCURVE",
"511.956 -256 CURVE SMOOTH",
"447.987 -320 LINE",
"595.018 -467 LINE SMOOTH",
"625 -497 OFFCURVE",
"664 -512 OFFCURVE",
"704 -512 CURVE SMOOTH",
"743 -512 OFFCURVE",
"783 -497 OFFCURVE",
"812.972 -467 CURVE SMOOTH",
"2003.05 723.025 LINE SMOOTH",
"2033 753 OFFCURVE",
"2048 793 OFFCURVE",
"2048 832 CURVE SMOOTH",
"2048 872 OFFCURVE",
"2033 911 OFFCURVE",
"2003.05 940.994 CURVE SMOOTH",
"1856.02 1088.02 LINE",
"1792.01 1024.01 LINE SMOOTH",
"1634 866 OFFCURVE",
"1360 1104 OFFCURVE",
"1536.05 1280.04 CURVE SMOOTH",
"1600.02 1344.02 LINE",
"1452.98 1491.05 LINE SMOOTH",
"1423 1521 OFFCURVE",
"1384 1536 OFFCURVE",
"1344 1536 CURVE SMOOTH"
);
},
{
closed = 1;
nodes = (
"640.003 384.015 LINE",
"895.998 128.02 LINE",
"1407.99 640.006 LINE",
"1151.99 896 LINE"
);
},
{
closed = 1;
nodes = (
"1664.01 640.01 LINE",
"896.002 -128 LINE",
"384.002 384.011 LINE",
"1152 1152.01 LINE"
);
}
);
width = 2048;
}
);
unicode = E034;
},
{
glyphname = uniE035;
lastChange = "2014-09-19 13:45:34 +0000";
layers = (
{
layerId = "C6537DE0-68DF-4C5B-B6D5-25B465FDDD7D";
name = Regular;
paths = (
{
closed = 1;
nodes = (
"127.998 1279.97 LINE SMOOTH",
"57.3081 1279.97 OFFCURVE",
"0 1222.67 OFFCURVE",
"0 1151.97 CURVE SMOOTH",
"0 1081.28 OFFCURVE",
"57.3081 1023.98 OFFCURVE",
"127.998 1023.98 CURVE SMOOTH",
"334.999 1023.98 LINE",
"448.981 112.115 LINE SMOOTH",
"456.989 48.0625 OFFCURVE",
"511.438 0 OFFCURVE",
"575.991 0 CURVE SMOOTH",
"1663.97 0 LINE SMOOTH",
"1721.12 0 OFFCURVE",
"1771.35 37.8789 OFFCURVE",
"1787.05 92.8262 CURVE SMOOTH",
"2043.04 988.813 LINE SMOOTH",
"2062.46 1056.78 OFFCURVE",
"2023.11 1127.63 OFFCURVE",
"1955.13 1147.05 CURVE SMOOTH",
"1887.17 1166.47 OFFCURVE",
"1816.31 1127.11 OFFCURVE",
"1796.9 1059.14 CURVE SMOOTH",
"1786.85 1023.98 LINE",
"592.987 1023.98 LINE",
"575.003 1167.85 LINE SMOOTH",
"566.995 1231.9 OFFCURVE",
"512.547 1279.97 OFFCURVE",
"447.993 1279.97 CURVE SMOOTH"
);
},
{
closed = 1;
nodes = (
"597.952 -128 OFFCURVE",
"511.992 -214 OFFCURVE",
"511.992 -320 CURVE SMOOTH",
"511.992 -426 OFFCURVE",
"597.952 -512 OFFCURVE",
"703.989 -512 CURVE SMOOTH",
"810.027 -512 OFFCURVE",
"895.987 -426 OFFCURVE",
"895.987 -320 CURVE SMOOTH",
"895.987 -214 OFFCURVE",
"810.027 -128 OFFCURVE",
"703.989 -128 CURVE SMOOTH"
);
},
{
closed = 1;
nodes = (
"895.987 255.988 LINE",
"688.985 255.988 LINE",
"672.986 383.986 LINE",
"895.987 383.986 LINE"
);
},
{
closed = 1;
nodes = (
"1365.94 -128 OFFCURVE",
"1279.98 -214 OFFCURVE",
"1279.98 -320 CURVE SMOOTH",
"1279.98 -426 OFFCURVE",
"1365.94 -512 OFFCURVE",
"1471.98 -512 CURVE SMOOTH",
"1578.01 -512 OFFCURVE",
"1663.97 -426 OFFCURVE",
"1663.97 -320 CURVE SMOOTH",
"1663.97 -214 OFFCURVE",
"1578.01 -128 OFFCURVE",
"1471.98 -128 CURVE SMOOTH"
);
},
{
closed = 1;
nodes = (
"895.987 511.985 LINE",
"656.987 511.985 LINE",
"640.986 639.983 LINE",
"895.987 639.983 LINE"
);
},
{
closed = 1;
nodes = (
"1279.97 255.988 LINE",
"1023.98 255.988 LINE",
"1023.98 383.986 LINE",
"1279.97 383.986 LINE"
);
},
{
closed = 1;
nodes = (
"895.987 767.981 LINE",
"624.987 767.981 LINE",
"608.987 895.979 LINE",
"895.987 895.979 LINE"
);
},
{
closed = 1;
nodes = (
"1279.97 511.985 LINE",
"1023.98 511.985 LINE",
"1023.98 639.983 LINE",
"1279.97 639.983 LINE"
);
},
{
closed = 1;
nodes = (
"1567.42 255.988 LINE",
"1407.97 255.988 LINE",
"1407.97 383.986 LINE",
"1603.99 383.986 LINE"
);
},
{
closed = 1;
nodes = (
"1279.97 767.981 LINE",
"1023.98 767.981 LINE",
"1023.98 895.979 LINE",
"1279.97 895.979 LINE"
);
},
{
closed = 1;
nodes = (
"1640.57 511.985 LINE",
"1407.97 511.985 LINE",
"1407.97 639.983 LINE",
"1677.14 639.983 LINE"
);
},
{
closed = 1;
nodes = (
"1713.71 767.981 LINE",
"1407.97 767.981 LINE",
"1407.97 895.979 LINE",
"1750.28 895.979 LINE"
);
}
);
width = 2048;
}
);
unicode = E035;
},
{
glyphname = uniE036;
lastChange = "2014-09-19 13:45:34 +0000";
layers = (
{
layerId = "C6537DE0-68DF-4C5B-B6D5-25B465FDDD7D";
name = Regular;
paths = (
{
closed = 1;
nodes = (
"192 1280 LINE SMOOTH",
"86.3989 1280 OFFCURVE",
"0 1193.6 OFFCURVE",
"0 1088 CURVE SMOOTH",
"0 -64 LINE SMOOTH",
"0 -170 OFFCURVE",
"86.3989 -256 OFFCURVE",
"192 -256 CURVE SMOOTH",
"1856 -256 LINE SMOOTH",
"1961.6 -256 OFFCURVE",
"2048 -170 OFFCURVE",
"2048 -64 CURVE SMOOTH",
"2048 1088 LINE SMOOTH",
"2048 1193.6 OFFCURVE",
"1961.6 1280 OFFCURVE",
"1856 1280 CURVE SMOOTH"
);
},
{
closed = 1;
nodes = (
"256 256 LINE",
"256 0 LINE",
"384 0 LINE",
"384 256 LINE"
);
},
{
closed = 1;
nodes = (
"512 256 LINE",
"512 0 LINE",
"640 0 LINE",
"640 256 LINE"
);
},
{
closed = 1;
nodes = (
"768 256 LINE",
"768 0 LINE",
"896 0 LINE",
"896 256 LINE"
);
},
{
closed = 1;
nodes = (
"1920 -64 LINE SMOOTH",
"1920 -99 OFFCURVE",
"1890.69 -128 OFFCURVE",
"1856 -128 CURVE SMOOTH",
"192 -128 LINE SMOOTH",
"157.309 -128 OFFCURVE",
"128 -99 OFFCURVE",
"128 -64 CURVE SMOOTH",
"128 512 LINE",
"1920 512 LINE"
);
},
{
closed = 1;
nodes = (
"1890.69 1152 OFFCURVE",
"1920 1122.69 OFFCURVE",
"1920 1088 CURVE SMOOTH",
"1920 896 LINE",
"128 896 LINE",
"128 1088 LINE SMOOTH",
"128 1122.69 OFFCURVE",
"157.309 1152 OFFCURVE",
"192 1152 CURVE SMOOTH",
"1856 1152 LINE SMOOTH"
);
}
);
width = 2048;
}
);
unicode = E036;
},
{
glyphname = uniE037;
lastChange = "2014-09-19 13:45:34 +0000";
layers = (
{
layerId = "C6537DE0-68DF-4C5B-B6D5-25B465FDDD7D";
name = Regular;
paths = (
{
closed = 1;
nodes = (
"458.461 1536 OFFCURVE",
"0 1077.54 OFFCURVE",
"0 512 CURVE SMOOTH",
"0 -54 OFFCURVE",
"458.461 -512 OFFCURVE",
"1024 -512 CURVE SMOOTH",
"1589.54 -512 OFFCURVE",
"2048 -54 OFFCURVE",
"2048 512 CURVE SMOOTH",
"2048 1077.54 OFFCURVE",
"1589.54 1536 OFFCURVE",
"1024 1536 CURVE SMOOTH"
);
},
{
closed = 1;
nodes = (
"1366.95 -316 LINE",
"1148 -407 OFFCURVE",
"900 -407 OFFCURVE",
"681.047 -316 CURVE",
"828.028 38.8789 LINE",
"952 -13 OFFCURVE",
"1096 -13 OFFCURVE",
"1219.97 38.8789 CURVE"
);
},
{
closed = 1;
nodes = (
"550.883 707.973 LINE",
"499 584 OFFCURVE",
"499 440 OFFCURVE",
"550.883 316.027 CURVE",
"196.04 169.047 LINE",
"105 388 OFFCURVE",
"105 636 OFFCURVE",
"196.04 854.953 CURVE"
);
},
{
closed = 1;
nodes = (
"1236.08 896 OFFCURVE",
"1408 724.078 OFFCURVE",
"1408 512 CURVE SMOOTH",
"1408 299.922 OFFCURVE",
"1236.08 128 OFFCURVE",
"1024 128 CURVE SMOOTH",
"811.922 128 OFFCURVE",
"640 299.922 OFFCURVE",
"640 512 CURVE SMOOTH",
"640 724.078 OFFCURVE",
"811.922 896 OFFCURVE",
"1024 896 CURVE SMOOTH"
);
},
{
closed = 1;
nodes = (
"1943 636 OFFCURVE",
"1943 388 OFFCURVE",
"1851.96 169.047 CURVE",
"1497.12 316.027 LINE",
"1549 440 OFFCURVE",
"1549 584 OFFCURVE",
"1497.12 707.973 CURVE",
"1851.96 854.951 LINE"
);
},
{
closed = 1;
nodes = (
"1219.98 985.119 LINE",
"1096 1037 OFFCURVE",
"952 1037 OFFCURVE",
"828.028 985.119 CURVE",
"681.047 1339.96 LINE",
"900 1431 OFFCURVE",
"1148 1431 OFFCURVE",
"1366.96 1339.96 CURVE"
);
}
);
width = 2048;
}
);
unicode = E037;
},
{
glyphname = uniE038;
lastChange = "2014-09-19 13:45:38 +0000";
layers = (
{
layerId = "C6537DE0-68DF-4C5B-B6D5-25B465FDDD7D";
name = Regular;
paths = (
{
closed = 1;
nodes = (
"256 1408 OFFCURVE",
"0 1024 OFFCURVE",
"0 1024 CURVE",
"0 768 OFFCURVE",
"263 249.001 OFFCURVE",
"512 0 CURVE SMOOTH",
"761 -249 OFFCURVE",
"1280 -512 OFFCURVE",
"1536 -512 CURVE",
"1536 -512 OFFCURVE",
"1920 -256 OFFCURVE",
"1920 -128 CURVE SMOOTH",
"1920 0 OFFCURVE",
"1536 384 OFFCURVE",
"1408 256 CURVE SMOOTH",
"1280 128.001 OFFCURVE",
"1280 0 OFFCURVE",
"1152 0 CURVE SMOOTH",
"1024 0 OFFCURVE",
"896 128.001 OFFCURVE",
"768 256 CURVE SMOOTH",
"640 384 OFFCURVE",
"512 512 OFFCURVE",
"512 640 CURVE SMOOTH",
"512 768 OFFCURVE",
"640 768 OFFCURVE",
"768 896 CURVE SMOOTH",
"896 1024 OFFCURVE",
"512 1408 OFFCURVE",
"384 1408 CURVE SMOOTH"
);
}
);
width = 2048;
}
);
unicode = E038;
},
